# Blender 3.6.23
# www.blender.org
mtllib Chicken.mtl
o chicken.057
v -6.853971 -1.651007 1.692998
v -6.023809 0.658895 2.066790
v -5.323055 3.512985 -3.607392
v -6.946033 -1.669628 -2.428530
v -3.608814 -7.845411 -3.777564
v -6.010829 -6.278650 -2.192130
v -5.510775 -4.693913 -5.358004
v -3.706518 -5.015141 -8.343446
v -6.444981 -6.654065 4.943071
v -3.582653 -7.794786 7.936953
v -5.269835 -4.045161 7.101881
v -3.532877 -9.825156 -2.159614
v -6.397017 -8.938941 -0.230251
v -1.269106 -10.684074 -0.705332
v 0.000000 -9.209875 -3.682006
v -0.586724 -11.353176 1.740353
v 0.000000 -11.143089 1.493551
v -2.843869 -10.787191 4.484457
v -0.586724 -11.353176 1.740353
v 0.000000 -11.143089 1.493551
v 0.000000 -9.068466 7.235313
v -5.931193 -9.318002 3.372250
v -6.571392 -3.223610 0.860815
v -6.977786 -6.097770 1.003588
v -5.023502 0.514013 -9.217045
v -3.308262 -0.690014 -10.999014
v -5.464045 -2.133024 -7.688625
v -4.179362 4.181440 -9.207159
v -2.723336 2.801748 -11.688355
v -6.096151 1.321705 -6.594764
v -4.161190 5.550196 -6.891390
v -2.555985 6.791943 -4.974476
v -3.305551 5.046698 -2.489195
v 0.000000 6.308052 -1.740834
v 0.000000 7.391846 -4.314162
v 0.000000 -1.089792 -11.369232
v 0.000000 -5.406016 -8.689841
v 0.000000 2.272938 -12.289059
v -2.331917 -4.602751 10.182002
v 0.000000 -5.147039 9.828331
v 0.000000 -2.253622 13.088302
v -3.477182 -2.437145 12.315063
v -2.726431 6.612299 -10.859692
v -3.398328 8.040081 -8.251147
v -2.098468 9.548227 -6.463853
v 0.000000 10.287039 -6.009533
v 0.000000 5.790525 -12.227440
v -2.193380 9.446814 -11.420076
v -2.147257 10.764349 -12.128552
v 0.000001 10.463362 -12.727003
v 0.000000 8.859158 -12.185613
v -2.049940 12.734848 -10.528349
v -2.499470 11.099272 -9.421597
v -1.727622 12.676760 -8.406054
v -1.370155 13.978592 -10.105631
v -0.675791 11.024426 -13.240088
v 0.000000 11.259481 -14.370240
v -0.554273 11.179792 -14.379334
v -1.487380 11.548388 -14.213861
v -1.200579 11.207998 -13.228045
v -1.932362 13.566505 -12.254086
v -0.921025 14.983917 -11.903660
v 0.000000 14.830864 -9.908388
v 0.000000 15.372734 -11.606478
v -0.727627 11.625328 -15.637460
v -0.445934 11.872959 -16.804171
v -0.210086 11.833067 -17.578928
v 0.000000 11.426941 -17.993805
v 0.000000 11.479300 -17.243490
v -1.695969 12.168293 -14.424945
v -1.021176 12.615639 -15.781496
v -0.991770 11.746447 -15.622483
v -0.856321 11.917192 -15.856534
v -0.590119 12.227428 -16.791140
v -0.427562 12.788292 -16.804518
v 0.000000 12.490408 -17.676151
v -0.596110 13.533882 -15.994429
v 0.000000 13.547615 -16.275110
v -0.000004 14.608906 -15.948183
v 0.000000 13.886017 -16.558481
v -2.912169 -12.030794 -0.726076
v -5.509207 -11.364253 -0.060752
v -3.841996 -13.632387 0.741938
v -1.641350 -12.528221 1.989941
v -2.454881 -13.744098 1.988001
v -3.296067 -12.091022 3.923079
v -1.641350 -12.528221 1.989941
v -3.415729 -13.773115 3.083035
v -2.454881 -13.744098 1.988001
v -5.207866 -11.497611 2.794755
v -4.524965 -13.785699 2.266243
v -3.822577 3.386257 7.247139
v -3.166075 3.573744 11.331337
v 0.000000 4.695868 8.415439
v -2.702360 5.142670 15.066649
v 0.000000 6.448650 11.798182
v 0.000000 7.803759 15.232355
v -2.702360 5.142670 15.066651
v 0.000000 7.803757 15.232355
v 0.000000 8.426003 17.104685
v -2.363353 5.051764 17.959322
v -3.739591 0.788506 14.816803
v 0.000000 2.281574 14.801190
v -6.085717 -3.674780 -3.384998
v -3.870923 3.533405 2.223714
v 0.000000 4.415489 2.478653
v -6.276782 -0.355663 7.122114
v -4.655552 -0.620623 11.737981
v -3.739591 0.788506 14.816803
v 0.000000 13.611576 -8.107979
v -3.842875 -0.923147 13.518684
v -3.842875 -0.923147 13.518684
v -2.363353 5.051764 17.959322
v -1.487380 11.548388 -14.213861
v -0.991770 11.746447 -15.622483
v -0.968828 10.997780 -15.736753
v -1.071087 10.734695 -15.371781
v -1.146230 10.301033 -13.616212
v -1.160599 10.635071 -12.916936
v -1.200579 11.207998 -13.228045
v -0.554273 11.179792 -14.379334
v -0.675791 11.024426 -13.240088
v -1.160599 10.635071 -12.916936
v -1.146230 10.301033 -13.616212
v -0.675791 11.024426 -13.240088
v -0.727627 11.625328 -15.637460
v -1.071087 10.734695 -15.371781
v -0.968828 10.997780 -15.736753
v -0.727627 11.625328 -15.637460
v -1.142495 14.656357 -14.498337
v -1.647366 13.372765 -14.386099
v -2.382878 11.888166 -12.432343
v 0.000000 15.490261 -12.473993
v 0.000000 11.667265 -16.253443
v 0.000000 15.890377 -12.187868
v 0.000000 17.780148 -11.279267
v -0.000006 15.842384 -14.043964
v 0.000000 17.916054 -13.887071
v 0.000000 16.537460 -16.119295
v 0.000000 14.880768 -16.870718
v -1.082171 9.849468 -15.971055
v -1.186574 9.096935 -13.109694
v -1.186574 9.096935 -13.109694
v -1.082171 9.849468 -15.971055
v 0.000000 8.426003 17.104685
v 6.853971 -1.651007 1.692998
v 6.946033 -1.669628 -2.428530
v 5.323055 3.512985 -3.607392
v 6.023809 0.658895 2.066790
v 3.608814 -7.845411 -3.777564
v 3.706518 -5.015141 -8.343446
v 5.510775 -4.693913 -5.358004
v 6.010829 -6.278650 -2.192130
v 6.444981 -6.654065 4.943071
v 5.269835 -4.045161 7.101881
v 3.582653 -7.794786 7.936953
v 6.397017 -8.938941 -0.230251
v 3.532877 -9.825156 -2.159614
v 1.269106 -10.684074 -0.705332
v 0.586724 -11.353176 1.740353
v 2.843869 -10.787191 4.484457
v 0.000000 -9.068466 7.235313
v 0.586724 -11.353176 1.740353
v 5.931193 -9.318002 3.372250
v 6.977786 -6.097770 1.003588
v 6.571392 -3.223610 0.860815
v 5.023502 0.514013 -9.217045
v 5.464045 -2.133024 -7.688625
v 3.308262 -0.690014 -10.999014
v 4.179362 4.181440 -9.207159
v 2.723336 2.801748 -11.688355
v 6.096151 1.321705 -6.594764
v 4.161190 5.550196 -6.891390
v 2.555985 6.791943 -4.974476
v 3.305551 5.046698 -2.489195
v 2.331917 -4.602751 10.182002
v 3.477182 -2.437145 12.315063
v 2.726431 6.612299 -10.859692
v 3.398328 8.040081 -8.251146
v 2.098468 9.548227 -6.463853
v 0.000001 10.463362 -12.727003
v 2.147257 10.764349 -12.128552
v 2.193380 9.446814 -11.420076
v 2.049940 12.734848 -10.528349
v 2.499470 11.099272 -9.421597
v 1.370155 13.978592 -10.105631
v 1.727622 12.676760 -8.406054
v 0.675791 11.024426 -13.240088
v 0.554273 11.179792 -14.379334
v 1.200579 11.207998 -13.228045
v 1.487380 11.548388 -14.213861
v 1.932362 13.566505 -12.254086
v 0.921025 14.983917 -11.903660
v 0.000000 14.830864 -9.908388
v 1.142495 14.656357 -14.498337
v 0.000006 15.842384 -14.043964
v 0.000000 15.890377 -12.187868
v 0.727627 11.625328 -15.637460
v 0.000000 11.426941 -17.993805
v 0.210086 11.833067 -17.578928
v 0.445934 11.872959 -16.804171
v 0.991770 11.746447 -15.622483
v 1.021176 12.615639 -15.781496
v 1.695969 12.168293 -14.424945
v 0.856321 11.917192 -15.856534
v 0.590119 12.227428 -16.791140
v 0.427562 12.788292 -16.804518
v 0.000000 12.490408 -17.676151
v 0.596110 13.533882 -15.994429
v 0.000004 14.608906 -15.948183
v 5.509207 -11.364253 -0.060752
v 2.912169 -12.030794 -0.726076
v 3.841996 -13.632387 0.741939
v 1.641350 -12.528221 1.989941
v 2.454881 -13.744098 1.988001
v 3.296067 -12.091022 3.923079
v 1.641350 -12.528221 1.989941
v 3.415730 -13.773115 3.083035
v 2.454881 -13.744098 1.988001
v 5.207866 -11.497611 2.794755
v 4.524965 -13.785699 2.266243
v 3.822577 3.386257 7.247139
v 3.166075 3.573744 11.331337
v 2.702360 5.142670 15.066649
v 0.000000 7.803759 15.232355
v 2.702360 5.142670 15.066651
v 2.363353 5.051764 17.959322
v 3.739590 0.788506 14.816803
v 6.085717 -3.674780 -3.384998
v 3.870923 3.533405 2.223714
v 6.276782 -0.355663 7.122114
v 4.655552 -0.620623 11.737981
v 3.739590 0.788506 14.816803
v 3.842875 -0.923147 13.518684
v 3.842875 -0.923147 13.518684
v 2.363353 5.051764 17.959322
v 1.487380 11.548388 -14.213861
v 1.071087 10.734695 -15.371781
v 0.968828 10.997780 -15.736753
v 0.991770 11.746447 -15.622483
v 1.146230 10.301033 -13.616212
v 1.200579 11.207998 -13.228045
v 1.160599 10.635071 -12.916936
v 0.554273 11.179792 -14.379334
v 1.146230 10.301033 -13.616212
v 1.160599 10.635071 -12.916936
v 0.675791 11.024426 -13.240088
v 0.675791 11.024426 -13.240088
v 0.727627 11.625328 -15.637460
v 1.071087 10.734695 -15.371781
v 0.727627 11.625328 -15.637460
v 0.968828 10.997780 -15.736753
v 1.647366 13.372765 -14.386099
v 2.382878 11.888166 -12.432343
v 0.000000 17.780148 -11.279267
v 0.000000 17.916054 -13.887071
v 0.000000 16.537460 -16.119295
v 0.000000 14.880768 -16.870718
v 0.000000 13.886017 -16.558481
v 1.082171 9.849468 -15.971055
v 1.186574 9.096935 -13.109694
v 1.186574 9.096935 -13.109694
v 1.082171 9.849468 -15.971055
v -5.509207 -11.364253 -0.060752
v -3.841996 -13.632387 0.741938
v -2.912169 -12.030794 -0.726076
v -2.454881 -13.744098 1.988001
v -1.641350 -12.528221 1.989941
v -3.415729 -13.773115 3.083035
v -3.296067 -12.091022 3.923079
v -1.641350 -12.528221 1.989941
v -2.454881 -13.744098 1.988001
v -4.524965 -13.785699 2.266243
v -5.207866 -11.497611 2.794755
v 5.509207 -11.364253 -0.060752
v 2.912169 -12.030794 -0.726076
v 3.841996 -13.632387 0.741939
v 2.454881 -13.744098 1.988001
v 1.641350 -12.528221 1.989941
v 3.415730 -13.773115 3.083035
v 2.454881 -13.744098 1.988001
v 1.641350 -12.528221 1.989941
v 3.296067 -12.091022 3.923079
v 4.524965 -13.785699 2.266243
v 5.207866 -11.497611 2.794755
v -2.912169 -12.030794 -0.726076
v -3.500951 -13.698078 1.947347
v -5.509207 -11.364253 -0.060752
v -5.207866 -11.497611 2.794755
v -3.296067 -12.091022 3.923079
v -1.641350 -12.528221 1.989941
v 5.509207 -11.364253 -0.060752
v 3.500951 -13.698078 1.947347
v 2.912169 -12.030794 -0.726076
v 1.641350 -12.528221 1.989941
v 3.296067 -12.091022 3.923079
v 5.207866 -11.497611 2.794755
v -4.271191 -19.173071 -4.501302
v -3.962567 -19.204678 -2.939654
v -4.723873 -19.200285 -2.835723
v -4.900778 -19.188448 -4.422981
v -4.900778 -19.188448 -4.422981
v -4.723873 -19.200285 -2.835723
v -4.357055 -18.431980 -2.877932
v -4.600278 -18.510323 -4.463590
v -4.704918 -18.876648 -5.419613
v -3.703573 -14.981005 0.645579
v -3.818547 -17.421934 -0.322870
v -4.236835 -17.504293 0.457986
v -4.173580 -15.125820 1.370386
v -4.283748 -13.028381 2.219189
v -3.706811 -12.872014 1.153239
v -6.818823 -19.190346 -2.533620
v -7.245122 -18.939358 -3.403172
v -6.441985 -19.202393 -2.860332
v -6.818823 -19.190346 -2.533620
v -6.056760 -19.193705 -1.396317
v -5.836595 -18.535284 -1.629719
v -6.628282 -18.600786 -2.678597
v -6.441985 -19.202393 -2.860332
v -7.245122 -18.939358 -3.403172
v -5.605434 -19.205795 -1.831568
v -5.605434 -19.205795 -1.831568
v -6.056760 -19.193705 -1.396317
v -4.525446 -19.240454 0.742190
v -5.450297 -19.214590 -0.523652
v -4.717927 -19.190903 -1.136494
v -4.322049 -18.080496 0.744488
v -4.939375 -18.182234 -0.631784
v -5.450297 -19.214590 -0.523652
v -4.525446 -19.240454 0.742190
v -4.717927 -19.190903 -1.136494
v -4.040308 -18.015919 -1.224125
v -3.433180 -19.186510 -1.307134
v -4.717927 -19.190903 -1.136494
v -4.271191 -19.173071 -4.501302
v -4.704918 -18.876648 -5.419613
v -2.912036 -15.099304 1.272341
v -2.940105 -17.567421 0.292242
v -2.834557 -13.005039 1.983940
v -1.911136 -19.193180 -2.683767
v -1.767962 -18.945036 -3.749681
v -2.172570 -18.596283 -2.807848
v -2.544415 -18.607681 -1.922941
v -2.302703 -19.191196 -1.758096
v -2.448966 -19.200020 -2.949779
v -2.889266 -19.200886 -2.070019
v -1.911136 -19.193180 -2.683767
v -2.302703 -19.191196 -1.758096
v -2.889266 -19.200886 -2.070019
v -2.448966 -19.200020 -2.949779
v -2.776556 -18.106611 0.281260
v -2.738313 -19.201624 0.256328
v -2.555869 -19.188101 -0.993834
v -2.966083 -18.210760 -0.969902
v -3.433180 -19.186510 -1.307134
v -4.040308 -18.015919 -1.224125
v -3.433180 -19.186510 -1.307134
v -3.962567 -19.204678 -2.939654
v -3.027957 -18.301872 1.491416
v -3.338471 -17.610550 1.041908
v -3.492134 -19.242031 1.542560
v -3.027957 -18.301872 1.491416
v -3.338471 -17.610550 1.041908
v -3.330601 -15.220675 1.874330
v -3.216653 -13.143705 2.885915
v -3.330601 -15.220675 1.874330
v -3.216653 -13.143705 2.885915
v -3.027957 -18.301872 1.491416
v -3.492134 -19.242031 1.542560
v -3.107502 -19.240566 2.461957
v -2.711391 -18.457834 2.409723
v -2.394826 -18.613798 3.328031
v -2.722871 -19.239101 3.381354
v -2.071259 -18.940828 4.090643
v -3.492134 -19.242031 1.542560
v -2.659448 -19.237776 1.218760
v -2.382669 -19.237875 2.188300
v -3.107502 -19.240566 2.461957
v -2.105890 -19.237976 3.157840
v -2.382669 -19.237875 2.188300
v -2.722871 -19.239101 3.381354
v -2.105890 -19.237976 3.157840
v -2.071259 -18.940828 4.090643
v -1.767962 -18.945036 -3.749681
v -2.659448 -19.237776 1.218760
v -5.450297 -19.214590 -0.523652
v -4.939375 -18.182234 -0.631784
v -4.717927 -19.190903 -1.136494
v -5.450297 -19.214590 -0.523652
v -2.555869 -19.188101 -0.993834
v -3.433180 -19.186510 -1.307134
v -2.555869 -19.188101 -0.993834
v -2.966083 -18.210760 -0.969902
v -2.659448 -19.237776 1.218760
v -3.492134 -19.242031 1.542560
v -2.738313 -19.201624 0.256328
v -3.433180 -19.186510 -1.307134
v -2.555869 -19.188101 -0.993834
v -3.433180 -19.186510 -1.307134
v -4.717927 -19.190903 -1.136494
v -4.717927 -19.190903 -1.136494
v 4.271191 -19.173071 -4.501302
v 4.900778 -19.188448 -4.422981
v 4.723873 -19.200285 -2.835723
v 3.962567 -19.204678 -2.939654
v 4.900778 -19.188448 -4.422981
v 4.600278 -18.510323 -4.463590
v 4.357055 -18.431980 -2.877932
v 4.723873 -19.200285 -2.835723
v 4.704918 -18.876648 -5.419613
v 3.703573 -14.981005 0.645579
v 4.173580 -15.125820 1.370386
v 4.236835 -17.504293 0.457986
v 3.818548 -17.421934 -0.322870
v 4.283748 -13.028381 2.219189
v 3.706811 -12.872014 1.153239
v 6.818823 -19.190346 -2.533620
v 6.441985 -19.202393 -2.860332
v 7.245120 -18.939358 -3.403172
v 6.818823 -19.190346 -2.533620
v 6.628282 -18.600786 -2.678597
v 5.836595 -18.535284 -1.629719
v 6.056760 -19.193705 -1.396317
v 6.441985 -19.202393 -2.860332
v 7.245120 -18.939358 -3.403172
v 5.605434 -19.205795 -1.831568
v 6.056760 -19.193705 -1.396317
v 5.605434 -19.205795 -1.831568
v 4.525446 -19.240454 0.742190
v 4.717927 -19.190903 -1.136494
v 5.450297 -19.214590 -0.523652
v 4.322049 -18.080496 0.744488
v 4.525446 -19.240454 0.742190
v 5.450297 -19.214590 -0.523652
v 4.939375 -18.182234 -0.631784
v 4.717927 -19.190903 -1.136494
v 4.040308 -18.015919 -1.224125
v 4.717927 -19.190903 -1.136494
v 3.433180 -19.186510 -1.307134
v 4.271191 -19.173071 -4.501302
v 4.704918 -18.876648 -5.419613
v 2.940105 -17.567421 0.292242
v 2.912036 -15.099304 1.272341
v 2.834557 -13.005039 1.983940
v 1.911136 -19.193180 -2.683767
v 2.172570 -18.596283 -2.807848
v 1.767961 -18.945036 -3.749681
v 2.302703 -19.191196 -1.758096
v 2.544415 -18.607681 -1.922941
v 2.448966 -19.200020 -2.949779
v 2.889266 -19.200886 -2.070019
v 1.911136 -19.193180 -2.683767
v 2.448966 -19.200020 -2.949779
v 2.889266 -19.200886 -2.070019
v 2.302703 -19.191196 -1.758096
v 2.776556 -18.106611 0.281260
v 2.966083 -18.210760 -0.969902
v 2.555869 -19.188101 -0.993834
v 2.738313 -19.201624 0.256328
v 3.433180 -19.186510 -1.307134
v 3.962567 -19.204678 -2.939654
v 3.433180 -19.186510 -1.307134
v 4.040308 -18.015919 -1.224125
v 3.027957 -18.301872 1.491416
v 3.338471 -17.610550 1.041908
v 3.027957 -18.301872 1.491416
v 3.492133 -19.242031 1.542560
v 3.330601 -15.220675 1.874330
v 3.338471 -17.610550 1.041908
v 3.216652 -13.143705 2.885914
v 3.330601 -15.220675 1.874330
v 3.216652 -13.143705 2.885914
v 3.027957 -18.301872 1.491416
v 2.711391 -18.457834 2.409723
v 3.107502 -19.240566 2.461957
v 3.492133 -19.242031 1.542560
v 2.394826 -18.613798 3.328031
v 2.071259 -18.940828 4.090643
v 2.722871 -19.239101 3.381354
v 3.492133 -19.242031 1.542560
v 3.107502 -19.240566 2.461957
v 2.382669 -19.237875 2.188300
v 2.659448 -19.237776 1.218760
v 2.382669 -19.237875 2.188300
v 2.105890 -19.237976 3.157840
v 2.722871 -19.239101 3.381354
v 2.071259 -18.940828 4.090643
v 2.105890 -19.237976 3.157840
v 1.767961 -18.945036 -3.749681
v 2.659448 -19.237776 1.218760
v 4.939375 -18.182234 -0.631784
v 5.450297 -19.214590 -0.523652
v 5.450297 -19.214590 -0.523652
v 4.717927 -19.190903 -1.136494
v 3.433180 -19.186510 -1.307134
v 2.555869 -19.188101 -0.993834
v 2.555869 -19.188101 -0.993834
v 2.966083 -18.210760 -0.969902
v 2.659448 -19.237776 1.218760
v 2.738313 -19.201624 0.256328
v 3.492133 -19.242031 1.542560
v 3.433180 -19.186510 -1.307134
v 2.555869 -19.188101 -0.993834
v 3.433180 -19.186510 -1.307134
v 4.717927 -19.190903 -1.136494
v 4.717927 -19.190903 -1.136494
v -2.659448 -19.237776 1.218760
v 2.659448 -19.237776 1.218760
vn -0.9834 0.0645 0.1697
vn -0.9039 0.4097 0.1229
vn -0.8431 0.5253 0.1152
vn -0.9932 -0.0465 -0.1072
vn -0.4649 -0.6885 -0.5566
vn -0.8660 -0.2943 -0.4042
vn -0.8636 -0.3854 -0.3250
vn -0.4838 -0.5878 -0.6484
vn -0.9184 -0.1354 0.3719
vn -0.4480 -0.5223 0.7256
vn -0.8956 -0.1960 0.3994
vn -0.1588 -0.5748 -0.8028
vn -0.8995 -0.3088 -0.3092
vn 0.3173 -0.7932 -0.5198
vn -0.0000 -0.8500 -0.5268
vn 0.5731 -0.8031 0.1629
vn -0.0000 -0.9990 -0.0455
vn -0.0428 -0.7220 0.6906
vn 0.5731 -0.8032 0.1628
vn -0.0000 -0.7490 0.6625
vn -0.8412 -0.4084 0.3544
vn -0.9972 -0.0606 0.0440
vn -0.9991 -0.0356 -0.0243
vn -0.8202 0.0095 -0.5720
vn -0.5001 -0.2598 -0.8261
vn -0.8707 -0.2208 -0.4394
vn -0.8846 0.2224 -0.4098
vn -0.5641 0.0215 -0.8254
vn -0.9627 0.1678 -0.2122
vn -0.8937 0.4471 0.0370
vn -0.6084 0.6489 0.4569
vn -0.5698 0.7690 0.2898
vn -0.0000 0.9247 0.3807
vn -0.0000 0.7607 0.6491
vn -0.0000 -0.4051 -0.9143
vn -0.0000 -0.6709 -0.7416
vn -0.0000 -0.1071 -0.9943
vn -0.3208 -0.6494 0.6894
vn -0.0000 -0.6446 0.7645
vn -0.0000 -0.5841 0.8117
vn -0.4946 -0.6363 0.5920
vn -0.7317 0.1362 -0.6679
vn -0.9520 0.3054 0.0208
vn -0.6523 0.4532 0.6075
vn -0.0000 0.5313 0.8472
vn -0.0000 0.0845 -0.9964
vn -0.7729 -0.0722 -0.6304
vn -0.8417 -0.3782 -0.3853
vn -0.0000 -0.6660 -0.7460
vn -0.0000 -0.1741 -0.9847
vn -0.9495 0.2919 0.1147
vn -0.9673 0.2535 0.0095
vn -0.7141 0.5202 0.4684
vn -0.7201 0.6301 0.2905
vn -0.3072 -0.9064 -0.2899
vn -0.0000 -0.9628 -0.2701
vn 0.1421 -0.9617 -0.2344
vn -0.8886 -0.3576 -0.2872
vn -0.6492 -0.7603 -0.0218
vn -0.9111 0.4122 -0.0027
vn -0.6453 0.7518 0.1354
vn -0.0000 0.8944 0.4473
vn -0.0000 0.9731 0.2302
vn -0.2225 -0.6642 -0.7137
vn -0.7596 -0.6339 -0.1457
vn -0.9003 -0.0043 -0.4352
vn -0.0000 -0.5936 -0.8047
vn -0.0000 -0.9947 0.1024
vn -0.8833 -0.1999 -0.4242
vn -0.8913 0.0634 -0.4490
vn -0.7566 -0.1695 -0.6315
vn -0.7239 -0.4578 -0.5161
vn -0.9072 -0.0376 -0.4189
vn -0.8192 0.3042 -0.4862
vn -0.0000 0.4714 -0.8819
vn -0.6886 0.3933 -0.6092
vn -0.0000 0.6145 -0.7889
vn -0.9352 0.2200 -0.2775
vn -1.0000 -0.0000 -0.0000
vn 0.1839 -0.6521 -0.7355
vn -0.7683 -0.4664 -0.4383
vn -0.1999 -0.7554 -0.6241
vn 0.7863 -0.5967 0.1603
vn 0.7755 -0.6290 0.0551
vn 0.0355 -0.4531 0.8908
vn 0.0608 -0.4677 0.8818
vn 0.7755 -0.6290 0.0552
vn -0.8120 -0.3716 0.4500
vn -0.8154 -0.4824 0.3200
vn -0.6161 0.7869 0.0348
vn -0.7821 0.6216 -0.0439
vn -0.0000 0.9884 -0.1520
vn -0.8576 0.5130 -0.0350
vn -0.0000 0.9238 -0.3828
vn -0.0000 0.9416 -0.3368
vn 0.7054 -0.3763 0.6008
vn -0.0000 -0.7421 0.6703
vn -0.0000 -0.9914 0.1310
vn 0.8853 -0.4499 -0.1179
vn 0.3567 -0.4587 0.8139
vn -0.0000 -0.2160 0.9764
vn -0.9638 -0.1656 -0.2089
vn -0.5916 0.7954 0.1317
vn -0.0000 0.9784 0.2065
vn -0.9866 0.1111 0.1198
vn -0.9449 -0.0728 0.3192
vn -0.9669 0.1469 0.2088
vn -0.0000 0.7228 0.6911
vn -0.8833 -0.3117 0.3502
vn 0.0125 -0.5344 0.8452
vn -0.8853 0.4499 0.1179
vn -0.7566 -0.1696 -0.6315
vn -0.9243 0.0562 -0.3775
vn -0.9857 -0.0156 -0.1675
vn -0.9959 -0.0889 -0.0146
vn -0.9245 0.0922 0.3698
vn -0.6493 -0.7603 -0.0219
vn 0.8160 -0.5712 -0.0894
vn 0.6079 -0.7928 -0.0433
vn 0.9268 -0.3663 0.0828
vn 0.9755 -0.2092 0.0684
vn -0.3072 -0.9064 -0.2898
vn 0.9503 -0.3110 -0.0137
vn 0.9408 -0.3302 -0.0773
vn 0.9186 -0.3154 -0.2382
vn -0.7794 0.5433 -0.3120
vn -0.9147 0.2226 -0.3374
vn -0.9939 -0.0465 -0.1003
vn -0.0000 0.9813 0.1924
vn -0.0000 -0.9903 -0.1388
vn -0.9419 0.3298 -0.0636
vn -0.9961 0.0554 -0.0688
vn -0.9993 0.0205 -0.0308
vn 0.9993 -0.0205 0.0308
vn 0.9961 -0.0554 0.0688
vn -0.0000 0.9914 -0.1310
vn 0.9834 0.0645 0.1697
vn 0.9932 -0.0465 -0.1072
vn 0.8431 0.5253 0.1152
vn 0.9039 0.4097 0.1229
vn 0.4649 -0.6885 -0.5566
vn 0.4838 -0.5878 -0.6484
vn 0.8636 -0.3854 -0.3250
vn 0.8660 -0.2943 -0.4042
vn 0.9184 -0.1354 0.3719
vn 0.8956 -0.1960 0.3994
vn 0.4480 -0.5223 0.7256
vn 0.8995 -0.3088 -0.3092
vn 0.1588 -0.5748 -0.8028
vn -0.3173 -0.7932 -0.5198
vn -0.5731 -0.8031 0.1629
vn 0.0428 -0.7220 0.6906
vn -0.5731 -0.8032 0.1628
vn 0.8412 -0.4084 0.3544
vn 0.9991 -0.0356 -0.0243
vn 0.9972 -0.0606 0.0440
vn 0.8202 0.0095 -0.5720
vn 0.8707 -0.2208 -0.4394
vn 0.5001 -0.2598 -0.8261
vn 0.8846 0.2224 -0.4098
vn 0.5641 0.0215 -0.8254
vn 0.9627 0.1678 -0.2122
vn 0.8937 0.4471 0.0370
vn 0.6084 0.6489 0.4569
vn 0.5698 0.7690 0.2898
vn 0.3208 -0.6494 0.6894
vn 0.4946 -0.6363 0.5920
vn 0.7317 0.1362 -0.6679
vn 0.9520 0.3054 0.0208
vn 0.6523 0.4532 0.6075
vn 0.8417 -0.3782 -0.3853
vn 0.7729 -0.0722 -0.6304
vn 0.9495 0.2919 0.1147
vn 0.9673 0.2535 0.0095
vn 0.7201 0.6301 0.2905
vn 0.7141 0.5202 0.4684
vn 0.3072 -0.9064 -0.2899
vn -0.1421 -0.9617 -0.2344
vn 0.6492 -0.7603 -0.0218
vn 0.8886 -0.3576 -0.2872
vn 0.9111 0.4122 -0.0027
vn 0.6453 0.7518 0.1354
vn 0.7794 0.5433 -0.3120
vn 0.9419 0.3298 -0.0636
vn 1.0000 -0.0000 -0.0000
vn 0.2225 -0.6642 -0.7137
vn 0.9003 -0.0043 -0.4352
vn 0.7596 -0.6339 -0.1457
vn 0.7566 -0.1695 -0.6315
vn 0.8913 0.0634 -0.4490
vn 0.8833 -0.1999 -0.4242
vn 0.7239 -0.4578 -0.5161
vn 0.9072 -0.0376 -0.4189
vn 0.8192 0.3042 -0.4862
vn 0.6886 0.3933 -0.6092
vn 0.9352 0.2200 -0.2775
vn 0.7683 -0.4664 -0.4383
vn -0.1839 -0.6521 -0.7355
vn 0.1999 -0.7554 -0.6241
vn -0.7863 -0.5967 0.1603
vn -0.7755 -0.6290 0.0551
vn -0.0355 -0.4531 0.8908
vn -0.0608 -0.4677 0.8818
vn -0.7755 -0.6290 0.0552
vn 0.8120 -0.3716 0.4500
vn 0.8154 -0.4824 0.3200
vn 0.6161 0.7869 0.0348
vn 0.7821 0.6216 -0.0439
vn 0.8576 0.5130 -0.0350
vn -0.7054 -0.3763 0.6008
vn -0.8853 -0.4499 -0.1179
vn -0.3567 -0.4587 0.8139
vn 0.9638 -0.1656 -0.2089
vn 0.5916 0.7954 0.1317
vn 0.9866 0.1111 0.1198
vn 0.9449 -0.0728 0.3192
vn 0.9669 0.1469 0.2088
vn 0.8833 -0.3117 0.3502
vn -0.0125 -0.5344 0.8452
vn 0.8853 0.4499 0.1179
vn 0.9857 -0.0156 -0.1675
vn 0.9243 0.0562 -0.3775
vn 0.7566 -0.1696 -0.6315
vn 0.9959 -0.0889 -0.0146
vn 0.6493 -0.7603 -0.0219
vn 0.9245 0.0922 0.3698
vn -0.8160 -0.5712 -0.0894
vn -0.9755 -0.2092 0.0684
vn -0.9268 -0.3663 0.0828
vn -0.6079 -0.7928 -0.0433
vn 0.3072 -0.9064 -0.2898
vn -0.9503 -0.3110 -0.0137
vn -0.9186 -0.3154 -0.2382
vn -0.9408 -0.3302 -0.0773
vn 0.9147 0.2226 -0.3374
vn 0.9939 -0.0465 -0.1003
vn 0.9961 0.0554 -0.0688
vn 0.9993 0.0205 -0.0308
vn -0.9993 -0.0205 0.0308
vn -0.9961 -0.0554 0.0688
vn 0.5914 -0.6147 0.5219
vn 0.1999 0.7554 0.6241
vn -0.4638 -0.4246 0.7775
vn -0.7755 0.6290 -0.0551
vn -0.8584 -0.5079 -0.0724
vn -0.0608 0.4677 -0.8818
vn -0.2058 -0.5868 -0.7832
vn -0.8584 -0.5079 -0.0725
vn -0.7755 0.6290 -0.0552
vn 0.8154 0.4824 -0.3200
vn 0.4793 -0.7530 -0.4508
vn -0.5914 -0.6147 0.5219
vn 0.4638 -0.4246 0.7775
vn -0.1999 0.7554 0.6241
vn 0.7755 0.6290 -0.0551
vn 0.8584 -0.5079 -0.0724
vn 0.0608 0.4677 -0.8818
vn 0.7755 0.6290 -0.0552
vn 0.8584 -0.5079 -0.0725
vn 0.2058 -0.5868 -0.7832
vn -0.8154 0.4824 -0.3200
vn -0.4793 -0.7530 -0.4508
vn -0.4639 -0.4246 0.7775
vn -0.0987 -0.9921 0.0780
vn 0.4793 -0.7530 -0.4507
vn 0.0987 -0.9921 0.0780
vn 0.4639 -0.4246 0.7775
vn -0.4793 -0.7530 -0.4507
vn 0.0019 -0.9901 -0.1400
vn -0.0060 -1.0000 -0.0019
vn -0.0007 -1.0000 -0.0028
vn 0.0067 -0.9901 -0.1405
vn -0.9104 0.4114 0.0429
vn -0.9001 0.4326 0.0511
vn -0.0469 0.9830 -0.1774
vn -0.0568 0.9809 -0.1860
vn -0.0142 -0.9535 -0.3011
vn -0.1624 0.3263 -0.9312
vn -0.1394 0.7074 -0.6929
vn -0.8851 0.3591 0.2960
vn -0.9742 -0.0901 0.2069
vn -0.9352 -0.1889 0.2994
vn -0.1663 0.2305 -0.9587
vn -0.0969 -0.9924 -0.0752
vn -0.1909 -0.9641 -0.1847
vn -0.0997 -0.9918 -0.0795
vn -0.7662 0.3854 0.5143
vn -0.7425 0.4303 0.5134
vn -0.1473 0.9810 -0.1261
vn -0.1124 0.9831 -0.1444
vn 0.6645 0.3970 -0.6331
vn -0.2020 0.9420 -0.2681
vn 0.6382 0.4122 -0.6502
vn -0.0097 -0.9998 0.0178
vn -0.0070 -1.0000 0.0052
vn 0.0112 -0.9996 -0.0265
vn 0.0087 -0.9996 -0.0284
vn 0.0064 -0.9999 -0.0120
vn -0.6630 0.3240 0.6749
vn -0.6629 0.7242 -0.1898
vn -0.7839 0.3794 0.4914
vn -0.7173 0.1244 0.6855
vn -0.3239 0.6492 -0.6882
vn -0.0924 0.7872 -0.6098
vn -0.0002 -1.0000 0.0001
vn 0.8717 0.4446 -0.2062
vn -0.0623 0.9342 -0.3512
vn 0.9899 0.0346 -0.1372
vn 0.9128 0.3748 -0.1622
vn 0.9891 -0.0435 -0.1405
vn 0.8510 0.4352 0.2939
vn 0.1109 0.9466 -0.3029
vn 0.0653 0.9896 -0.1279
vn 0.1385 0.9801 -0.1424
vn 0.8428 0.4376 0.3133
vn -0.7757 0.4749 -0.4158
vn -0.7229 0.5301 -0.4431
vn 0.0575 -0.9944 -0.0891
vn 0.0124 -0.9999 0.0078
vn 0.0067 -0.9999 0.0089
vn 0.0594 -0.9937 -0.0946
vn 0.9700 0.2396 0.0415
vn 0.9989 0.0341 0.0324
vn 0.9382 0.3225 0.1255
vn 0.5393 0.6695 -0.5108
vn 0.1522 0.6177 -0.7716
vn 0.1522 0.6176 -0.7716
vn 0.8621 0.4557 -0.2215
vn 0.2953 0.6994 0.6508
vn 0.1795 0.1989 0.9634
vn -0.6871 0.3154 0.6545
vn 0.2953 0.6995 0.6508
vn 0.2191 -0.3605 0.9067
vn 0.2659 -0.4338 0.8609
vn 0.2192 -0.3604 0.9067
vn 0.2659 -0.4339 0.8608
vn -0.8281 0.4383 0.3496
vn 0.0513 0.9891 0.1379
vn 0.0709 0.9666 0.2464
vn -0.7949 0.4459 0.4114
vn 0.1520 0.9301 0.3343
vn 0.0035 -1.0000 -0.0036
vn 0.0067 -0.9998 -0.0160
vn 0.0037 -1.0000 -0.0008
vn 0.0033 -1.0000 -0.0002
vn 0.8679 0.4499 -0.2106
vn 0.8700 0.4292 -0.2426
vn 0.0483 -0.9905 0.1285
vn 0.0501 -0.9900 0.1321
vn 0.1097 -0.9482 0.2980
vn 0.1164 -0.9707 -0.2103
vn 0.9548 0.2915 -0.0588
vn -0.6629 0.7242 -0.1899
vn 0.0087 -0.9996 -0.0282
vn 0.0014 -1.0000 -0.0002
vn 0.5367 0.6685 -0.5148
vn 0.0034 -1.0000 -0.0037
vn 0.0090 -0.9996 -0.0265
vn -0.0019 -0.9901 -0.1400
vn -0.0067 -0.9901 -0.1405
vn 0.0007 -1.0000 -0.0028
vn 0.0060 -1.0000 -0.0019
vn 0.9104 0.4114 0.0429
vn 0.0568 0.9809 -0.1860
vn 0.0469 0.9830 -0.1774
vn 0.9001 0.4326 0.0511
vn 0.0142 -0.9535 -0.3011
vn 0.1624 0.3263 -0.9312
vn 0.9742 -0.0901 0.2069
vn 0.8851 0.3591 0.2960
vn 0.1394 0.7074 -0.6929
vn 0.9352 -0.1889 0.2994
vn 0.1663 0.2305 -0.9587
vn 0.0969 -0.9924 -0.0752
vn 0.0997 -0.9918 -0.0795
vn 0.1909 -0.9641 -0.1847
vn 0.7662 0.3854 0.5143
vn 0.1124 0.9831 -0.1444
vn 0.1473 0.9810 -0.1261
vn 0.7425 0.4303 0.5134
vn -0.6645 0.3970 -0.6331
vn 0.2020 0.9420 -0.2681
vn -0.6382 0.4122 -0.6502
vn 0.0070 -1.0000 0.0052
vn 0.0097 -0.9998 0.0178
vn -0.0112 -0.9996 -0.0265
vn -0.0064 -0.9999 -0.0120
vn -0.0087 -0.9996 -0.0284
vn 0.6630 0.3240 0.6749
vn 0.7173 0.1244 0.6855
vn 0.7839 0.3794 0.4914
vn 0.6629 0.7242 -0.1898
vn 0.3239 0.6492 -0.6882
vn 0.0924 0.7872 -0.6098
vn 0.0002 -1.0000 0.0001
vn -0.8717 0.4446 -0.2062
vn 0.0623 0.9342 -0.3512
vn -0.9128 0.3748 -0.1622
vn -0.9899 0.0346 -0.1372
vn -0.9891 -0.0435 -0.1405
vn -0.8510 0.4352 0.2939
vn -0.0653 0.9896 -0.1279
vn -0.1109 0.9466 -0.3029
vn -0.8428 0.4376 0.3133
vn -0.1385 0.9801 -0.1424
vn 0.7757 0.4749 -0.4158
vn 0.7229 0.5301 -0.4431
vn -0.0575 -0.9944 -0.0891
vn -0.0594 -0.9937 -0.0946
vn -0.0067 -0.9999 0.0089
vn -0.0124 -0.9999 0.0078
vn -0.9700 0.2396 0.0415
vn -0.5393 0.6695 -0.5108
vn -0.9382 0.3225 0.1255
vn -0.9989 0.0341 0.0324
vn -0.1522 0.6177 -0.7716
vn -0.8621 0.4557 -0.2215
vn -0.1522 0.6176 -0.7716
vn -0.2953 0.6994 0.6508
vn -0.1795 0.1989 0.9634
vn -0.2953 0.6995 0.6508
vn 0.6871 0.3154 0.6545
vn -0.2191 -0.3605 0.9067
vn -0.2659 -0.4338 0.8609
vn -0.2192 -0.3604 0.9067
vn -0.2659 -0.4339 0.8608
vn -0.0513 0.9891 0.1379
vn 0.8281 0.4383 0.3496
vn -0.0709 0.9666 0.2464
vn -0.1520 0.9301 0.3343
vn 0.7949 0.4459 0.4114
vn -0.0035 -1.0000 -0.0036
vn -0.0033 -1.0000 -0.0002
vn -0.0037 -1.0000 -0.0008
vn -0.0067 -0.9998 -0.0160
vn -0.8700 0.4292 -0.2426
vn -0.8679 0.4499 -0.2106
vn -0.0483 -0.9905 0.1285
vn -0.1097 -0.9482 0.2980
vn -0.0501 -0.9900 0.1321
vn -0.1164 -0.9707 -0.2103
vn -0.9548 0.2915 -0.0588
vn 0.6629 0.7242 -0.1899
vn -0.0087 -0.9996 -0.0282
vn -0.0014 -1.0000 -0.0002
vn -0.0090 -0.9996 -0.0265
vn -0.0034 -1.0000 -0.0037
vt 0.421287 0.389166
vt 0.448822 0.444969
vt 0.333626 0.556054
vt 0.326579 0.417428
vt 0.214844 0.268129
vt 0.291267 0.302388
vt 0.231014 0.366609
vt 0.148322 0.383634
vt 0.460050 0.248177
vt 0.536755 0.183864
vt 0.537280 0.288892
vt 0.238071 0.206180
vt 0.325325 0.228276
vt 0.196120 0.148738
vt 0.138508 0.210294
vt 0.183973 0.085159
vt 0.169778 0.086054
vt 0.442335 0.111148
vt 0.422393 0.016975
vt 0.429835 0.004022
vt 0.555061 0.093940
vt 0.406399 0.192205
vt 0.390158 0.356557
vt 0.372117 0.287161
vt 0.182823 0.518063
vt 0.113799 0.505029
vt 0.199657 0.445138
vt 0.198661 0.608988
vt 0.119843 0.589772
vt 0.250183 0.517075
vt 0.264625 0.632167
vt 0.325924 0.668625
vt 0.379403 0.605814
vt 0.427877 0.674555
vt 0.373201 0.710923
vt 0.029653 0.498281
vt 0.056594 0.353809
vt 0.050517 0.592278
vt 0.631786 0.220977
vt 0.651788 0.163819
vt 0.737947 0.217841
vt 0.681643 0.285404
vt 0.158476 0.678915
vt 0.236318 0.701965
vt 0.290892 0.740910
vt 0.330567 0.779287
vt 0.077093 0.677397
vt 0.155055 0.755051
vt 0.145446 0.796423
vt 0.090541 0.782599
vt 0.096237 0.745677
vt 0.199644 0.831903
vt 0.216320 0.784981
vt 0.250351 0.821684
vt 0.219353 0.863300
vt 0.098537 0.804387
vt 0.067971 0.819209
vt 0.079426 0.827180
vt 0.098067 0.835135
vt 0.108868 0.810692
vt 0.166015 0.864995
vt 0.186958 0.902995
vt 0.240130 0.897970
vt 0.203236 0.922332
vt 0.061875 0.854990
vt 0.038136 0.874346
vt 0.019714 0.883990
vt 0.005511 0.879695
vt 0.021413 0.872145
vt 0.102316 0.852710
vt 0.072421 0.879027
vt 0.067015 0.857635
vt 0.060957 0.863558
vt 0.043734 0.882181
vt 0.048178 0.896221
vt 0.022685 0.901568
vt 0.074346 0.905978
vt 0.062394 0.916606
vt 0.085798 0.934862
vt 0.063538 0.927683
vt 0.244974 0.138253
vt 0.313690 0.166566
vt 0.290691 0.102241
vt 0.220236 0.080483
vt 0.254637 0.072415
vt 0.396959 0.097217
vt 0.389141 0.032853
vt 0.352486 0.074327
vt 0.354782 0.041296
vt 0.367140 0.144581
vt 0.326950 0.094813
vt 0.600409 0.486951
vt 0.701928 0.459534
vt 0.662510 0.565390
vt 0.805712 0.455502
vt 0.753250 0.552145
vt 0.842963 0.543173
vt 0.874472 0.335231
vt 0.928773 0.311976
vt 0.987198 0.333154
vt 0.889112 0.409123
vt 0.774540 0.326384
vt 0.840655 0.272882
vt 0.286036 0.373470
vt 0.483084 0.533439
vt 0.527607 0.621336
vt 0.558511 0.381841
vt 0.671617 0.342966
vt 0.756851 0.357289
vt 0.279238 0.861100
vt 0.715617 0.322040
vt 0.723331 0.316979
vt 0.867138 0.424943
vt 0.078303 0.181838
vt 0.047562 0.178538
vt 0.049053 0.159890
vt 0.060685 0.155783
vt 0.105098 0.156788
vt 0.120496 0.167084
vt 0.110065 0.179309
vt 0.092554 0.099956
vt 0.064115 0.102012
vt 0.050741 0.091813
vt 0.068417 0.079437
vt 0.122894 0.184227
vt 0.041397 0.174842
vt 0.112657 0.080989
vt 0.124538 0.085246
vt 0.125626 0.101975
vt 0.122444 0.912787
vt 0.114283 0.879520
vt 0.148369 0.826502
vt 0.180133 0.932225
vt 0.038859 0.855878
vt 0.188918 0.939460
vt 0.221573 0.978276
vt 0.142869 0.947398
vt 0.160619 0.996127
vt 0.099280 0.980571
vt 0.067231 0.950612
vt 0.051298 0.130953
vt 0.124468 0.128991
vt 0.050399 0.053896
vt 0.123452 0.056251
vt 0.885888 0.539139
vt 0.148817 0.383577
vt 0.555023 0.094028
vt 0.236304 0.701986
vt 0.216419 0.784990
vt 0.240099 0.897791
vt 0.004959 0.879581
vt 0.022743 0.901357
vt 0.805482 0.455535
vt 0.842843 0.543236
vt 0.874330 0.335666
vt 0.558422 0.381849
vt 0.756442 0.357289
vt 0.105373 0.156956
vt 0.067990 0.079565
vt 0.452466 0.190155
vt 0.448752 0.174376
vt 0.435224 0.182789
vt 0.439410 0.164419
vt 0.453309 0.160455
vt 0.463353 0.174063
vt 0.435053 0.182586
vt 0.448691 0.174352
vt 0.452196 0.190179
vt 0.463295 0.174232
vt 0.453431 0.160492
vt 0.439481 0.164273
vt 0.951049 0.057142
vt 0.959013 0.140418
vt 0.919335 0.144564
vt 0.920403 0.060665
vt 0.872409 0.145600
vt 0.888497 0.060993
vt 0.924629 0.007526
vt 0.624098 0.881483
vt 0.619983 0.742314
vt 0.688099 0.748280
vt 0.671636 0.879561
vt 0.681294 0.993277
vt 0.623451 0.993849
vt 0.822252 0.845344
vt 0.793329 0.802556
vt 0.842132 0.825211
vt 0.861513 0.905590
vt 0.828271 0.925606
vt 0.799626 0.861532
vt 0.767509 0.865084
vt 0.781765 0.812475
vt 0.785336 0.932813
vt 0.886927 0.880365
vt 0.752156 0.684410
vt 0.697250 0.625619
vt 0.733167 0.586012
vt 0.718639 0.730839
vt 0.661016 0.679034
vt 0.633626 0.658225
vt 0.616306 0.694754
vt 0.993400 0.222565
vt 0.896807 0.240572
vt 0.857395 0.047480
vt 0.900986 0.009754
vt 0.565692 0.885671
vt 0.546524 0.756975
vt 0.562712 0.995674
vt 0.736143 0.044488
vt 0.787686 0.020722
vt 0.753904 0.066320
vt 0.720993 0.107920
vt 0.693748 0.076052
vt 0.783385 0.076770
vt 0.759889 0.123348
vt 0.679328 0.048637
vt 0.725309 0.018930
vt 0.523403 0.738420
vt 0.482081 0.698431
vt 0.521675 0.649206
vt 0.565609 0.691877
vt 0.588833 0.665837
vt 0.849031 0.236512
vt 0.789195 0.204424
vt 0.829977 0.125902
vt 0.479734 0.778192
vt 0.519479 0.784016
vt 0.798096 0.721082
vt 0.776275 0.777213
vt 0.735998 0.782605
vt 0.715276 0.876867
vt 0.747796 0.984948
vt 0.529901 0.881942
vt 0.509779 0.990844
vt 0.934541 0.798606
vt 0.881694 0.797164
vt 0.888275 0.747501
vt 0.927886 0.747715
vt 0.921231 0.696824
vt 0.894855 0.697837
vt 0.913428 0.650940
vt 0.837337 0.786307
vt 0.853006 0.736431
vt 0.947647 0.687323
vt 0.966908 0.734038
vt 0.868675 0.686556
vt 0.901386 0.648135
vt 0.782458 0.013503
vt 0.453460 0.727928
vt 0.894060 0.950680
vt 0.850732 0.985438
vt 0.934105 0.917250
vt 0.659452 0.102064
vt 0.632609 0.061492
vt 0.691965 0.145899
vt 0.851746 0.697677
vt 0.850614 0.654542
vt 0.811977 0.569647
vt 0.858795 0.588120
vt 0.739862 0.167051
vt 0.820371 0.992779
vt 0.672120 0.880452
vt 0.687455 0.748524
vt 0.681360 0.993653
vt 0.545729 0.758192
vt 0.565905 0.885705
vt 0.562684 0.996123
vt 0.986170 0.780753
s 1
usemtl Material.001
f 1/1/1 2/2/2 3/3/3
f 3/3/3 4/4/4 1/1/1
f 5/5/5 6/6/6 7/7/7
f 7/7/7 8/8/8 5/5/5
f 9/9/9 10/10/10 11/11/11
f 5/5/5 12/12/12 13/13/13
f 13/13/13 6/6/6 5/5/5
f 14/14/14 12/12/12 5/5/5
f 5/5/5 15/15/15 14/14/14
f 16/16/16 14/14/14 15/15/15
f 15/15/15 17/17/17 16/16/16
f 18/18/18 19/19/19 20/20/17
f 20/20/17 21/21/20 18/18/18
f 21/21/20 10/10/10 18/18/18
f 10/10/10 9/9/9 22/22/21
f 22/22/21 18/18/18 10/10/10
f 9/9/9 23/23/22 24/24/23
f 25/25/24 26/26/25 8/8/8
f 8/8/8 27/27/26 25/25/24
f 28/28/27 29/29/28 26/26/25
f 26/26/25 25/25/24 28/28/27
f 30/30/29 3/3/3 31/31/30
f 32/32/31 31/31/30 3/3/3
f 3/3/3 33/33/32 32/32/31
f 34/34/33 35/35/34 32/32/31
f 32/32/31 33/33/32 34/34/33
f 26/26/25 36/36/35 37/37/36
f 37/37/36 8/8/8 26/26/25
f 26/26/25 29/29/28 38/38/37
f 38/38/37 36/36/35 26/26/25
f 39/39/38 40/40/39 41/41/40
f 41/41/40 42/42/41 39/39/38
f 29/29/28 28/28/27 43/43/42
f 28/28/27 31/31/30 44/44/43
f 44/44/43 43/43/42 28/28/27
f 32/32/31 45/45/44 44/44/43
f 44/44/43 31/31/30 32/32/31
f 35/35/34 46/46/45 45/45/44
f 45/45/44 32/32/31 35/35/34
f 29/29/28 43/43/42 47/47/46
f 47/47/46 38/38/37 29/29/28
f 48/48/47 49/49/48 50/50/49
f 50/50/49 51/51/50 48/48/47
f 52/52/51 49/49/48 48/48/47
f 48/48/47 53/53/52 52/52/51
f 53/53/52 54/54/53 55/55/54
f 55/55/54 52/52/51 53/53/52
f 50/50/49 56/56/55 57/57/56
f 56/56/55 58/58/57 57/57/56
f 49/49/48 59/59/58 60/60/59
f 61/61/60 52/52/51 55/55/54
f 55/55/54 62/62/61 61/61/60
f 63/63/62 64/64/63 62/62/61
f 62/62/61 55/55/54 63/63/62
f 58/58/57 65/65/64 57/57/56
f 66/66/65 67/67/66 68/68/67
f 68/68/67 69/69/68 66/66/65
f 59/59/58 70/70/69 71/71/70
f 71/71/70 72/72/71 59/59/58
f 72/72/71 71/71/70 73/73/72
f 66/66/65 74/74/73 67/67/66
f 71/71/70 75/75/74 74/74/73
f 74/74/73 75/75/74 76/76/75
f 76/76/75 67/67/66 74/74/73
f 71/71/70 77/77/76 75/75/74
f 78/78/77 77/77/76 79/79/78
f 79/79/78 80/80/79 78/78/77
f 76/76/75 75/75/74 77/77/76
f 77/77/76 78/78/77 76/76/75
f 67/67/66 76/76/75 68/68/67
f 12/12/12 81/81/80 82/82/81
f 82/82/81 13/13/13 12/12/12
f 82/82/81 81/81/80 83/83/82
f 12/12/12 14/14/14 81/81/80
f 84/84/83 81/81/80 14/14/14
f 14/14/14 16/16/16 84/84/83
f 85/85/84 83/83/82 81/81/80
f 81/81/80 84/84/83 85/85/84
f 86/86/85 87/87/83 19/19/19
f 19/19/19 18/18/18 86/86/85
f 88/88/86 89/89/87 87/87/83
f 87/87/83 86/86/85 88/88/86
f 22/22/21 90/90/88 86/86/85
f 86/86/85 18/18/18 22/22/21
f 91/91/89 88/88/86 86/86/85
f 86/86/85 90/90/88 91/91/89
f 13/13/13 82/82/81 90/90/88
f 90/90/88 22/22/21 13/13/13
f 82/82/81 83/83/82 91/91/89
f 91/91/89 90/90/88 82/82/81
f 92/92/90 93/93/91 94/94/92
f 93/93/91 95/95/93 96/96/94
f 96/96/94 94/94/92 93/93/91
f 96/96/94 95/95/93 97/97/95
f 98/98/96 99/99/97 100/100/98
f 100/100/98 101/101/99 98/98/96
f 102/102/100 103/103/101 98/98/96
f 4/4/4 3/3/3 30/30/29
f 104/104/102 6/6/6 24/24/23
f 24/24/23 23/23/22 104/104/102
f 104/104/102 7/7/7 6/6/6
f 2/2/2 105/105/103 33/33/32
f 28/28/27 25/25/24 30/30/29
f 30/30/29 25/25/24 27/27/26
f 104/104/102 4/4/4 30/30/29
f 30/30/29 27/27/26 104/104/102
f 4/4/4 104/104/102 23/23/22
f 6/6/6 13/13/13 24/24/23
f 24/24/23 13/13/13 22/22/21
f 22/22/21 9/9/9 24/24/23
f 92/92/90 94/94/92 106/106/104
f 106/106/104 105/105/103 92/92/90
f 105/105/103 106/106/104 34/34/33
f 34/34/33 33/33/32 105/105/103
f 8/8/8 37/37/36 15/15/15
f 15/15/15 5/5/5 8/8/8
f 2/2/2 1/1/1 11/11/11
f 11/11/11 23/23/22 9/9/9
f 11/11/11 10/10/10 39/39/38
f 10/10/10 21/21/20 40/40/39
f 40/40/39 39/39/38 10/10/10
f 107/107/105 2/2/2 11/11/11
f 108/108/106 109/109/107 95/95/93
f 95/95/93 93/93/91 108/108/106
f 107/107/105 108/108/106 93/93/91
f 93/93/91 92/92/90 107/107/105
f 107/107/105 11/11/11 108/108/106
f 110/110/108 63/63/62 55/55/54
f 55/55/54 54/54/53 110/110/108
f 33/33/32 3/3/3 2/2/2
f 31/31/30 28/28/27 30/30/29
f 4/4/4 23/23/22 1/1/1
f 1/1/1 23/23/22 11/11/11
f 104/104/102 27/27/26 7/7/7
f 7/7/7 27/27/26 8/8/8
f 44/44/43 53/53/52 48/48/47
f 48/48/47 43/43/42 44/44/43
f 45/45/44 54/54/53 53/53/52
f 53/53/52 44/44/43 45/45/44
f 46/46/45 110/110/108 54/54/53
f 54/54/53 45/45/44 46/46/45
f 43/43/42 48/48/47 51/51/50
f 51/51/50 47/47/46 43/43/42
f 107/107/105 92/92/90 105/105/103
f 105/105/103 2/2/2 107/107/105
f 108/108/106 111/111/109 109/109/107
f 112/112/110 42/42/41 41/41/40
f 41/41/40 103/103/101 112/112/110
f 95/95/93 109/109/107 113/113/111
f 114/114/58 115/115/112 116/116/113
f 116/116/113 117/117/114 114/114/58
f 114/114/58 117/117/114 118/118/115
f 114/114/58 118/118/115 119/119/116
f 119/119/116 120/120/117 114/114/58
f 121/121/118 122/122/119 123/123/120
f 123/123/120 124/124/121 121/121/118
f 125/125/122 120/120/117 119/119/116
f 126/126/64 116/116/113 115/115/112
f 121/121/118 124/124/121 127/127/123
f 121/121/118 127/127/123 128/128/124
f 128/128/124 129/129/125 121/121/118
f 65/65/64 72/72/71 73/73/72
f 61/61/60 62/62/61 130/130/126
f 130/130/126 131/131/127 61/61/60
f 131/131/127 130/130/126 77/77/76
f 77/77/76 71/71/70 131/131/127
f 71/71/70 70/70/69 131/131/127
f 131/131/127 70/70/69 132/132/128
f 132/132/128 61/61/60 131/131/127
f 52/52/51 61/61/60 132/132/128
f 132/132/128 49/49/48 52/52/51
f 62/62/61 64/64/63 133/133/129
f 74/74/73 66/66/65 73/73/72
f 73/73/72 71/71/70 74/74/73
f 66/66/65 69/69/68 134/134/130
f 134/134/130 73/73/72 66/66/65
f 134/134/130 57/57/56 65/65/64
f 65/65/64 73/73/72 134/134/130
f 59/59/58 49/49/48 132/132/128
f 132/132/128 70/70/69 59/59/58
f 135/135/79 136/136/79 137/137/131
f 137/137/131 136/136/79 138/138/79
f 138/138/79 139/139/79 137/137/131
f 79/79/78 77/77/76 130/130/126
f 130/130/126 137/137/131 79/79/78
f 133/133/129 135/135/79 137/137/131
f 137/137/131 139/139/79 79/79/78
f 79/79/78 139/139/79 140/140/79
f 79/79/78 140/140/79 80/80/79
f 111/111/109 108/108/106 42/42/41
f 42/42/41 108/108/106 11/11/11
f 11/11/11 39/39/38 42/42/41
f 116/116/113 141/141/132 117/117/114
f 141/141/132 142/142/133 118/118/115
f 118/118/115 117/117/114 141/141/132
f 118/118/115 142/142/133 119/119/116
f 123/123/120 143/143/134 124/124/121
f 124/124/121 143/143/134 144/144/135
f 144/144/135 127/127/123 124/124/121
f 127/127/123 144/144/135 128/128/124
f 95/95/93 113/113/111 145/145/136
f 145/145/136 97/97/95 95/95/93
f 98/98/96 103/103/101 99/99/97
f 146/1/137 147/4/138 148/3/139
f 148/3/139 149/2/140 146/1/137
f 150/5/141 151/146/142 152/7/143
f 152/7/143 153/6/144 150/5/141
f 154/9/145 155/11/146 156/10/147
f 157/13/148 158/12/149 150/5/141
f 150/5/141 153/6/144 157/13/148
f 159/14/150 15/15/15 150/5/141
f 150/5/141 158/12/149 159/14/150
f 160/16/151 17/17/17 15/15/15
f 15/15/15 159/14/150 160/16/151
f 161/18/152 162/147/20 20/20/17
f 20/20/17 163/19/153 161/18/152
f 162/147/20 161/18/152 156/10/147
f 156/10/147 161/18/152 164/22/154
f 164/22/154 154/9/145 156/10/147
f 154/9/145 165/24/155 166/23/156
f 167/25/157 168/27/158 151/146/142
f 151/146/142 169/26/159 167/25/157
f 170/28/160 167/25/157 169/26/159
f 169/26/159 171/29/161 170/28/160
f 172/30/162 173/31/163 148/3/139
f 174/32/164 175/33/165 148/3/139
f 148/3/139 173/31/163 174/32/164
f 174/32/164 35/35/34 34/34/33
f 34/34/33 175/33/165 174/32/164
f 169/26/159 151/146/142 37/37/36
f 37/37/36 36/36/35 169/26/159
f 38/38/37 171/29/161 169/26/159
f 169/26/159 36/36/35 38/38/37
f 176/39/166 177/42/167 41/41/40
f 41/41/40 40/40/39 176/39/166
f 171/29/161 178/43/168 170/28/160
f 179/148/169 173/31/163 170/28/160
f 170/28/160 178/43/168 179/148/169
f 174/32/164 173/31/163 179/148/169
f 179/148/169 180/45/170 174/32/164
f 35/35/34 174/32/164 180/45/170
f 180/45/170 46/46/45 35/35/34
f 171/29/161 38/38/37 47/47/46
f 47/47/46 178/43/168 171/29/161
f 181/50/49 182/49/171 183/48/172
f 183/48/172 51/51/50 181/50/49
f 184/52/173 185/149/174 183/48/172
f 183/48/172 182/49/171 184/52/173
f 185/149/174 184/52/173 186/55/175
f 186/55/175 187/54/176 185/149/174
f 181/50/49 57/57/56 188/56/177
f 188/56/177 57/57/56 189/58/178
f 182/49/171 190/60/179 191/59/180
f 186/55/175 184/52/173 192/61/181
f 192/61/181 193/62/182 186/55/175
f 193/62/182 64/64/63 194/150/62
f 194/150/62 186/55/175 193/62/182
f 193/62/182 195/130/183 196/137/184
f 196/137/184 197/135/185 133/133/129
f 193/62/182 196/137/184 133/133/129
f 189/58/178 57/57/56 198/65/186
f 199/151/67 200/67/187 201/66/188
f 201/66/188 69/69/68 199/151/67
f 191/59/180 202/72/189 203/71/190
f 203/71/190 204/70/191 191/59/180
f 202/72/189 205/73/192 203/71/190
f 201/66/188 200/67/187 206/74/193
f 203/71/190 206/74/193 207/75/194
f 206/74/193 200/67/187 208/152/75
f 208/152/75 207/75/194 206/74/193
f 203/71/190 207/75/194 209/77/195
f 210/79/196 196/137/184 195/130/183
f 195/130/183 209/77/195 210/79/196
f 208/152/75 78/78/77 209/77/195
f 209/77/195 207/75/194 208/152/75
f 200/67/187 199/151/67 208/152/75
f 158/12/149 157/13/148 211/82/197
f 211/82/197 212/81/198 158/12/149
f 211/82/197 213/83/199 212/81/198
f 158/12/149 212/81/198 159/14/150
f 214/84/200 160/16/151 159/14/150
f 159/14/150 212/81/198 214/84/200
f 215/85/201 214/84/200 212/81/198
f 212/81/198 213/83/199 215/85/201
f 216/86/202 161/18/152 163/19/153
f 163/19/153 217/87/200 216/86/202
f 218/88/203 216/86/202 217/87/200
f 217/87/200 219/89/204 218/88/203
f 164/22/154 161/18/152 216/86/202
f 216/86/202 220/90/205 164/22/154
f 221/91/206 220/90/205 216/86/202
f 216/86/202 218/88/203 221/91/206
f 157/13/148 164/22/154 220/90/205
f 220/90/205 211/82/197 157/13/148
f 221/91/206 213/83/199 211/82/197
f 211/82/197 220/90/205 221/91/206
f 222/92/207 94/94/92 223/93/208
f 96/96/94 224/153/209 223/93/208
f 223/93/208 94/94/92 96/96/94
f 96/96/94 225/154/95 224/153/209
f 100/100/98 99/99/97 226/155/210
f 226/155/210 227/101/211 100/100/98
f 228/102/212 227/101/211 226/155/210
f 147/4/138 172/30/162 148/3/139
f 229/104/213 166/23/156 165/24/155
f 165/24/155 153/6/144 229/104/213
f 229/104/213 153/6/144 152/7/143
f 149/2/140 175/33/165 230/105/214
f 170/28/160 172/30/162 167/25/157
f 172/30/162 168/27/158 167/25/157
f 229/104/213 168/27/158 172/30/162
f 172/30/162 147/4/138 229/104/213
f 147/4/138 166/23/156 229/104/213
f 153/6/144 165/24/155 157/13/148
f 165/24/155 154/9/145 164/22/154
f 164/22/154 157/13/148 165/24/155
f 222/92/207 230/105/214 106/106/104
f 106/106/104 94/94/92 222/92/207
f 34/34/33 106/106/104 230/105/214
f 230/105/214 175/33/165 34/34/33
f 151/146/142 150/5/141 15/15/15
f 15/15/15 37/37/36 151/146/142
f 149/2/140 155/11/146 146/1/137
f 155/11/146 154/9/145 166/23/156
f 155/11/146 176/39/166 156/10/147
f 156/10/147 176/39/166 40/40/39
f 40/40/39 162/147/20 156/10/147
f 231/156/215 155/11/146 149/2/140
f 232/108/216 223/93/208 224/153/209
f 224/153/209 233/157/217 232/108/216
f 231/156/215 222/92/207 223/93/208
f 223/93/208 232/108/216 231/156/215
f 231/156/215 232/108/216 155/11/146
f 110/110/108 187/54/176 186/55/175
f 186/55/175 194/150/62 110/110/108
f 175/33/165 149/2/140 148/3/139
f 173/31/163 172/30/162 170/28/160
f 146/1/137 166/23/156 147/4/138
f 146/1/137 155/11/146 166/23/156
f 229/104/213 152/7/143 168/27/158
f 152/7/143 151/146/142 168/27/158
f 179/148/169 178/43/168 183/48/172
f 183/48/172 185/149/174 179/148/169
f 180/45/170 179/148/169 185/149/174
f 185/149/174 187/54/176 180/45/170
f 46/46/45 180/45/170 187/54/176
f 187/54/176 110/110/108 46/46/45
f 178/43/168 47/47/46 51/51/50
f 51/51/50 183/48/172 178/43/168
f 230/105/214 222/92/207 231/156/215
f 231/156/215 149/2/140 230/105/214
f 232/108/216 233/157/217 234/111/218
f 228/102/212 103/103/101 235/112/219
f 224/153/209 236/113/220 233/157/217
f 237/114/180 238/117/221 239/116/222
f 239/116/222 240/115/223 237/114/180
f 237/114/180 241/158/224 238/117/221
f 237/114/180 242/120/225 243/119/226
f 243/119/226 241/158/224 237/114/180
f 244/121/227 245/159/228 246/123/229
f 246/123/229 247/122/230 244/121/227
f 248/125/231 243/119/226 242/120/225
f 249/126/186 240/115/223 239/116/222
f 244/121/227 250/127/232 245/159/228
f 244/121/227 251/129/233 252/128/234
f 252/128/234 250/127/232 244/121/227
f 198/65/186 205/73/192 202/72/189
f 192/61/181 253/131/235 195/130/183
f 195/130/183 193/62/182 192/61/181
f 253/131/235 203/71/190 209/77/195
f 209/77/195 195/130/183 253/131/235
f 253/131/235 204/70/191 203/71/190
f 253/131/235 192/61/181 254/132/236
f 254/132/236 204/70/191 253/131/235
f 254/132/236 192/61/181 184/52/173
f 184/52/173 182/49/171 254/132/236
f 193/62/182 133/133/129 64/64/63
f 206/74/193 203/71/190 205/73/192
f 205/73/192 201/66/188 206/74/193
f 201/66/188 205/73/192 134/134/130
f 134/134/130 69/69/68 201/66/188
f 134/134/130 205/73/192 198/65/186
f 198/65/186 57/57/56 134/134/130
f 191/59/180 204/70/191 254/132/236
f 254/132/236 182/49/171 191/59/180
f 197/135/185 196/137/184 255/136/185
f 196/137/184 256/138/185 255/136/185
f 256/138/185 196/137/184 257/139/185
f 196/137/184 210/79/196 257/139/185
f 210/79/196 258/140/185 257/139/185
f 210/79/196 259/80/185 258/140/185
f 234/111/218 177/42/167 232/108/216
f 155/11/146 232/108/216 177/42/167
f 177/42/167 176/39/166 155/11/146
f 239/116/222 238/117/221 260/141/237
f 260/141/237 238/117/221 241/158/224
f 241/158/224 261/142/238 260/141/237
f 241/158/224 243/119/226 261/142/238
f 246/123/229 245/159/228 262/143/239
f 245/159/228 250/127/232 263/144/240
f 263/144/240 262/143/239 245/159/228
f 250/127/232 252/128/234 263/144/240
f 224/153/209 225/154/95 145/145/136
f 145/145/136 236/113/220 224/153/209
f 99/99/97 103/103/101 226/155/210
f 78/78/77 259/80/185 210/79/196
f 210/79/196 209/77/195 78/78/77
f 264/82/241 265/83/242 266/81/243
f 267/85/244 268/84/245 266/81/243
f 266/81/243 265/83/242 267/85/244
f 269/88/246 270/86/247 271/87/248
f 271/87/248 272/89/249 269/88/246
f 273/91/250 274/90/251 270/86/247
f 270/86/247 269/88/246 273/91/250
f 273/91/250 265/83/242 264/82/241
f 264/82/241 274/90/251 273/91/250
f 275/82/252 276/81/253 277/83/254
f 278/85/255 277/83/254 276/81/253
f 276/81/253 279/84/256 278/85/255
f 280/88/257 281/89/258 282/87/259
f 282/87/259 283/86/260 280/88/257
f 284/91/261 280/88/257 283/86/260
f 283/86/260 285/90/262 284/91/261
f 275/82/252 277/83/254 284/91/261
f 284/91/261 285/90/262 275/82/252
f 286/160/263 287/161/264 288/162/241
f 288/162/241 287/161/264 289/163/265
f 289/163/265 287/161/264 290/164/247
f 290/164/247 287/161/264 291/165/245
f 291/165/245 287/161/264 286/160/263
f 292/166/252 293/167/266 294/168/267
f 294/168/267 293/167/266 295/169/256
f 295/169/256 293/167/266 296/170/260
f 296/170/260 293/167/266 297/171/268
f 297/171/268 293/167/266 292/166/252
f 298/172/269 299/173/270 300/174/271
f 300/174/271 301/175/272 298/172/269
f 302/175/273 303/174/274 304/176/275
f 304/176/275 305/177/276 302/175/273
f 301/175/272 306/178/277 298/172/269
f 307/179/278 308/180/279 309/181/280
f 309/181/280 310/182/281 307/179/278
f 311/183/282 312/184/283 307/179/278
f 307/179/278 310/182/281 311/183/282
f 313/185/284 314/186/285 315/187/286
f 316/185/287 317/188/288 318/189/289
f 318/189/289 319/190/290 316/185/287
f 320/191/291 321/192/292 319/190/290
f 319/190/290 318/189/289 322/193/293
f 322/193/293 320/191/291 319/190/290
f 315/187/286 323/194/294 324/188/295
f 324/188/295 313/185/284 315/187/286
f 325/195/296 326/196/297 327/197/298
f 328/198/299 329/199/300 330/196/301
f 330/196/301 331/195/302 328/198/299
f 332/200/303 329/199/300 333/201/304
f 300/174/271 299/173/270 334/202/305
f 334/202/305 335/203/298 300/174/271
f 309/181/280 308/180/279 333/201/304
f 333/201/304 329/199/300 309/181/280
f 336/204/306 337/205/307 305/177/276
f 307/179/278 338/206/308 339/207/309
f 339/207/309 308/180/279 307/179/278
f 307/179/278 312/184/283 340/208/310
f 340/208/310 338/206/308 307/179/278
f 341/209/311 342/210/312 343/211/313
f 341/209/311 343/211/313 344/212/314
f 344/212/314 345/213/315 341/209/311
f 346/214/316 347/215/317 344/212/314
f 344/212/314 343/211/313 346/214/316
f 348/209/318 349/213/319 350/216/320
f 350/216/320 351/217/321 348/209/318
f 352/218/322 353/219/323 354/220/324
f 354/220/324 355/221/325 352/218/322
f 333/201/304 355/221/325 356/222/326
f 304/176/275 357/223/304 358/224/327
f 358/224/327 359/225/328 304/176/275
f 339/207/309 355/221/325 333/201/304
f 333/201/304 308/180/279 339/207/309
f 339/207/309 352/218/322 355/221/325
f 360/226/329 352/218/322 339/207/309
f 339/207/309 361/227/330 360/226/329
f 328/198/299 331/195/302 362/228/331
f 362/228/331 363/229/332 328/198/299
f 310/182/281 309/181/280 364/230/330
f 364/230/330 365/231/333 310/182/281
f 365/231/333 366/232/334 311/183/282
f 311/183/282 310/182/281 365/231/333
f 338/206/308 367/233/335 361/227/330
f 361/227/330 339/207/309 338/206/308
f 340/208/310 368/234/336 367/233/335
f 367/233/335 338/206/308 340/208/310
f 363/229/332 364/230/330 309/181/280
f 309/181/280 328/198/299 363/229/332
f 305/177/276 304/176/275 359/225/328
f 359/225/328 336/204/306 305/177/276
f 369/235/329 370/236/331 371/237/337
f 371/237/337 372/238/338 369/235/329
f 373/239/339 374/240/340 375/241/341
f 376/236/342 377/242/343 378/243/344
f 378/243/344 379/237/345 376/236/342
f 380/244/346 381/245/347 372/238/338
f 372/238/338 373/239/339 380/244/346
f 373/239/339 375/241/341 380/244/346
f 382/240/348 383/246/349 384/247/350
f 348/209/318 351/217/321 385/248/351
f 346/214/316 343/211/313 342/210/312
f 302/175/273 305/177/276 337/205/307
f 316/185/287 319/190/290 321/192/292
f 352/218/322 360/226/329 386/249/352
f 386/249/352 353/219/323 352/218/322
f 328/198/299 309/181/280 329/199/300
f 318/189/289 317/188/288 387/250/301
f 387/250/301 388/251/353 318/189/289
f 324/188/295 323/194/294 389/252/298
f 389/252/298 390/250/354 324/188/295
f 350/216/320 349/213/319 391/253/355
f 391/253/355 392/254/305 350/216/320
f 393/253/324 345/213/315 344/212/314
f 344/212/314 394/255/356 393/253/324
f 395/256/343 396/228/357 325/195/296
f 325/195/296 397/257/358 395/256/343
f 327/197/298 398/258/305 397/257/358
f 397/257/358 325/195/296 327/197/298
f 398/258/305 399/259/355 397/257/358
f 344/212/314 347/215/317 400/260/327
f 400/260/327 394/255/356 344/212/314
f 304/176/275 303/174/274 401/203/303
f 401/203/303 357/223/304 304/176/275
f 402/261/303 322/193/293 318/189/289
f 318/189/289 388/251/353 402/261/303
f 403/172/359 404/175/360 405/174/361
f 405/174/361 406/173/362 403/172/359
f 407/175/363 408/177/364 409/176/365
f 409/176/365 410/174/366 407/175/363
f 404/175/360 403/172/359 411/178/367
f 412/179/368 413/262/369 414/263/370
f 414/263/370 415/180/371 412/179/368
f 416/264/372 413/262/369 412/179/368
f 412/179/368 417/184/373 416/264/372
f 418/185/374 419/187/375 420/186/376
f 421/185/377 422/190/378 423/189/379
f 423/189/379 424/188/380 421/185/377
f 425/191/381 422/190/378 426/192/382
f 422/190/378 425/191/381 427/193/383
f 427/193/383 423/189/379 422/190/378
f 419/187/375 418/185/374 428/188/384
f 428/188/384 429/194/385 419/187/375
f 430/195/386 431/197/387 432/196/388
f 433/198/389 434/195/390 435/196/391
f 435/196/391 436/199/392 433/198/389
f 437/200/393 438/201/394 436/199/392
f 405/174/361 439/203/387 440/202/395
f 440/202/395 406/173/362 405/174/361
f 414/263/370 436/199/392 438/201/394
f 438/201/394 415/180/371 414/263/370
f 441/204/396 408/177/364 442/205/397
f 412/179/368 415/180/371 443/265/398
f 443/265/398 444/266/399 412/179/368
f 412/179/368 444/266/399 445/267/400
f 445/267/400 417/184/373 412/179/368
f 446/209/401 447/211/402 448/210/403
f 446/209/401 449/213/404 450/212/405
f 450/212/405 447/211/402 446/209/401
f 451/214/406 447/211/402 450/212/405
f 450/212/405 452/215/407 451/214/406
f 453/209/408 454/217/409 455/216/410
f 455/216/410 456/213/411 453/209/408
f 457/218/412 458/221/413 459/220/414
f 459/220/414 460/219/415 457/218/412
f 438/201/394 461/222/416 458/221/413
f 409/176/365 462/225/417 463/224/418
f 463/224/418 464/223/394 409/176/365
f 443/265/398 415/180/371 438/201/394
f 438/201/394 458/221/413 443/265/398
f 458/221/413 457/218/412 443/265/398
f 465/226/419 466/227/420 443/265/398
f 443/265/398 457/218/412 465/226/419
f 433/198/389 467/229/421 468/228/422
f 468/228/422 434/195/390 433/198/389
f 413/262/369 469/231/423 470/230/420
f 470/230/420 414/263/370 413/262/369
f 469/231/423 413/262/369 416/264/372
f 416/264/372 471/232/424 469/231/423
f 444/266/399 443/265/398 466/227/420
f 466/227/420 472/233/425 444/266/399
f 445/267/400 444/266/399 472/233/425
f 472/233/425 473/234/426 445/267/400
f 467/229/421 433/198/389 414/263/370
f 414/263/370 470/230/420 467/229/421
f 408/177/364 441/204/396 462/225/417
f 462/225/417 409/176/365 408/177/364
f 474/235/421 475/238/427 476/237/428
f 476/237/428 477/236/422 474/235/421
f 478/239/429 479/241/430 480/240/431
f 481/236/432 482/237/433 483/243/434
f 483/243/434 484/242/435 481/236/432
f 475/238/427 485/245/436 486/244/437
f 486/244/437 478/239/429 475/238/427
f 478/239/429 486/244/437 479/241/430
f 487/240/438 488/247/439 489/246/440
f 453/209/408 490/248/441 454/217/409
f 451/214/406 448/210/403 447/211/402
f 407/175/363 442/205/397 408/177/364
f 421/185/377 426/192/382 422/190/378
f 457/218/412 460/219/415 491/249/442
f 491/249/442 465/226/419 457/218/412
f 433/198/389 436/199/392 414/263/370
f 423/189/379 492/251/443 493/250/391
f 493/250/391 424/188/380 423/189/379
f 428/188/384 494/250/444 495/252/387
f 495/252/387 429/194/385 428/188/384
f 455/216/410 496/254/395 497/253/445
f 497/253/445 456/213/411 455/216/410
f 498/253/414 499/255/413 450/212/405
f 450/212/405 449/213/404 498/253/414
f 500/256/435 501/257/446 430/195/386
f 430/195/386 502/228/447 500/256/435
f 431/197/387 430/195/386 501/257/446
f 501/257/446 503/258/395 431/197/387
f 503/258/395 501/257/446 504/259/445
f 450/212/405 499/255/413 505/260/418
f 505/260/418 452/215/407 450/212/405
f 409/176/365 464/223/394 506/203/393
f 506/203/393 410/174/366 409/176/365
f 507/261/393 492/251/443 423/189/379
f 423/189/379 427/193/383 507/261/393
f 137/137/131 130/130/126 62/62/61
f 62/62/61 133/133/129 137/137/131
f 374/240/340 373/239/339 372/238/338
f 372/238/338 371/237/337 374/240/340
f 383/246/349 382/240/348 379/237/345
f 379/237/345 378/243/344 383/246/349
f 381/245/347 508/268/352 369/235/329
f 369/235/329 372/238/338 381/245/347
f 475/238/427 478/239/429 480/240/431
f 480/240/431 476/237/428 475/238/427
f 482/237/433 487/240/438 489/246/440
f 489/246/440 483/243/434 482/237/433
f 474/235/421 509/268/442 485/245/436
f 485/245/436 475/238/427 474/235/421
f 226/155/210 103/103/101 228/102/212
f 98/98/96 101/101/99 102/102/100
f 103/103/101 102/102/100 112/112/110
f 41/41/40 177/42/167 235/112/219
f 235/112/219 103/103/101 41/41/40
f 190/60/179 182/49/171 181/50/49
f 181/50/49 188/56/177 190/60/179
f 50/50/49 49/49/48 60/60/59
f 60/60/59 56/56/55 50/50/49
