# Blender 3.6.23
# www.blender.org
mtllib Duncecap.mtl
o DunceCap
v 0.088272 -0.120396 0.072310
v 0.111737 -0.119742 0.051861
v 0.100479 -0.120156 0.062342
v -0.065952 -0.040928 0.010677
v -0.052598 -0.014587 -0.012565
v -0.059633 -0.009820 0.006296
v -0.068882 -0.045355 0.016000
v -0.049962 0.025638 -0.000956
v -0.059633 -0.009820 0.006296
v -0.052598 -0.014587 -0.012565
v -0.041688 0.025110 -0.018341
v -0.025796 0.191978 -0.003549
v -0.021048 0.171247 -0.008231
v -0.010693 0.124168 -0.013642
v -0.019129 0.160469 -0.005208
v -0.025796 0.191978 -0.003549
v -0.024305 0.175321 -0.006861
v -0.021048 0.171247 -0.008231
v -0.026535 0.149419 -0.008754
v -0.020831 0.150357 -0.011554
v -0.022864 0.122432 -0.016365
v -0.030618 0.118892 -0.010184
v -0.025683 0.090681 -0.017759
v -0.022864 0.122432 -0.016365
v -0.037044 0.086810 -0.008731
v -0.035435 0.059210 -0.017853
v -0.041739 0.058879 -0.006278
v -0.083685 -0.113628 0.027180
v -0.084671 -0.118411 0.031573
v -0.089966 -0.121907 -0.021775
v -0.082439 -0.116835 -0.027480
v -0.048705 -0.123033 -0.072566
v -0.045899 -0.115605 -0.070578
v 0.013703 -0.120597 -0.088193
v 0.020761 -0.113950 -0.083170
v 0.078436 -0.117099 -0.069091
v 0.081230 -0.111655 -0.061234
v -0.089966 -0.121907 -0.021775
v -0.084671 -0.118411 0.031573
v -0.077247 -0.081548 0.025239
v -0.078107 -0.084369 -0.021658
v -0.048705 -0.123033 -0.072566
v -0.077247 -0.081548 0.025239
v -0.068882 -0.045355 0.016000
v -0.038970 -0.085601 -0.067614
v 0.013703 -0.120597 -0.088193
v -0.062549 -0.048504 -0.022910
v -0.059633 -0.009820 0.006296
v 0.018461 -0.085230 -0.077977
v 0.078436 -0.117099 -0.069091
v -0.029047 -0.049198 -0.057769
v -0.052940 -0.012539 -0.023816
v -0.049962 0.025638 -0.000956
v 0.019554 -0.050183 -0.062474
v -0.043607 0.021988 -0.024234
v -0.041739 0.058879 -0.006278
v -0.020572 -0.013024 -0.051376
v 0.019554 -0.050183 -0.062474
v 0.020712 -0.012665 -0.051376
v -0.015430 0.021279 -0.044565
v -0.035699 0.054294 -0.023699
v -0.031539 0.085302 -0.021781
v -0.037044 0.086810 -0.008731
v -0.030618 0.118892 -0.010184
v -0.011777 0.052878 -0.037779
v 0.020742 0.021088 -0.042731
v 0.017865 0.052397 -0.035121
v 0.055834 -0.011671 -0.038338
v -0.009477 0.085221 -0.031027
v 0.014293 0.085322 -0.027534
v 0.049246 0.021313 -0.028869
v -0.026189 0.117582 -0.018376
v -0.026535 0.149419 -0.008754
v -0.010169 0.117618 -0.023369
v -0.013310 0.147485 -0.015759
v -0.023615 0.148386 -0.014053
v 0.006504 0.117037 -0.019065
v -0.023222 0.175618 -0.008302
v -0.024305 0.175321 -0.006861
v -0.018018 0.174166 -0.008660
v -0.013310 0.147485 -0.015759
v -0.024483 0.193722 -0.003526
v -0.025796 0.191978 -0.003549
v -0.019129 0.160469 -0.005208
v -0.016199 0.162910 -0.005149
v -0.022259 0.192321 -0.003467
v -0.016199 0.162910 -0.005149
v -0.012611 0.160761 -0.005543
v -0.019654 0.190353 -0.002908
v -0.008766 0.157573 -0.003973
v -0.012491 0.172158 -0.006079
v -0.018110 0.188083 -0.001885
v -0.005489 0.153992 -0.002415
v -0.003221 0.146128 -0.012095
v 0.003251 0.144443 -0.005097
v 0.017011 0.116100 -0.009043
v -0.009464 0.170112 -0.003067
v 0.003251 0.144443 -0.005097
v -0.008369 0.168422 0.000385
v -0.016957 0.186382 -0.000874
v -0.004133 0.150764 -0.000903
v 0.004768 0.142675 0.000808
v -0.008803 0.166516 0.003802
v -0.017268 0.184950 0.001079
v -0.003683 0.148199 0.002049
v 0.003784 0.140870 0.007142
v -0.010186 0.164784 0.006707
v 0.020075 0.115040 -0.000174
v -0.017088 0.183428 0.002555
v -0.003683 0.148199 0.002049
v -0.004194 0.145811 0.004978
v -0.017867 0.182081 0.004008
v -0.005173 0.143508 0.007407
v -0.012517 0.163226 0.009101
v -0.018635 0.180733 0.004972
v -0.006217 0.140721 0.008860
v -0.014913 0.161184 0.010518
v -0.020340 0.179557 0.004937
v -0.009639 0.138371 0.009277
v -0.022122 0.177898 0.004414
v -0.012457 0.136407 0.008242
v -0.019107 0.159969 0.010424
v -0.020340 0.179557 0.004937
v -0.023780 0.176714 0.002426
v -0.015306 0.133951 0.004766
v -0.022406 0.158093 0.009377
v -0.025558 0.156686 0.005890
v -0.024544 0.174868 -0.000515
v -0.016365 0.130174 -0.000615
v -0.021682 0.130655 0.017329
v -0.027845 0.128808 0.011818
v -0.023387 0.172670 -0.003408
v -0.014389 0.126833 -0.004949
v -0.027301 0.154524 -0.000003
v -0.021048 0.171247 -0.008231
v -0.010693 0.124168 -0.013642
v -0.025038 0.152619 -0.005314
v -0.020831 0.150357 -0.011554
v -0.031527 0.126506 0.002949
v -0.029160 0.124582 -0.006755
v -0.022864 0.122432 -0.016365
v -0.025683 0.090681 -0.017759
v -0.033466 0.093103 -0.006231
v -0.035435 0.059210 -0.017853
v -0.041739 0.058879 -0.006278
v -0.036633 0.096664 0.007842
v -0.038009 0.065640 0.013806
v -0.049962 0.025638 -0.000956
v -0.029406 0.099804 0.020210
v -0.027630 0.070187 0.029661
v -0.041688 0.025110 -0.018341
v -0.052598 -0.014587 -0.012565
v -0.057019 -0.004343 0.001450
v -0.040679 0.033365 0.022675
v -0.027630 0.070187 0.029661
v -0.065952 -0.040928 0.010677
v -0.052598 -0.014587 -0.012565
v -0.046073 0.000100 0.033925
v -0.049253 -0.034563 0.045723
v -0.075255 -0.076950 0.018917
v -0.049531 -0.069761 0.056615
v -0.083685 -0.113628 0.027180
v -0.021153 0.005451 0.050122
v -0.049253 -0.034563 0.045723
v -0.023806 0.038208 0.039171
v -0.015546 -0.028345 0.054309
v 0.001302 0.009269 0.054056
v -0.013858 0.073118 0.036813
v -0.006942 0.041564 0.044929
v -0.019172 0.102392 0.027280
v -0.021682 0.130655 0.017329
v -0.002402 0.075978 0.036583
v -0.015906 0.132572 0.018922
v -0.010328 0.104739 0.028456
v 0.000484 0.106724 0.027726
v -0.009135 0.134307 0.019075
v -0.003647 0.136774 0.016264
v 0.011992 0.078298 0.033984
v 0.000815 0.138933 0.012453
v 0.007546 0.109399 0.022998
v 0.014948 0.111018 0.016817
v 0.018531 0.113338 0.009565
v 0.021110 0.081091 0.027350
v 0.030490 0.082347 0.018775
v 0.035380 0.084427 -0.003097
v 0.034523 0.084088 0.009094
v 0.036234 0.050015 0.028332
v 0.045660 0.051262 0.017804
v 0.049651 0.052515 0.006171
v 0.030342 0.085353 -0.013478
v 0.017865 0.052397 -0.035121
v 0.048435 0.052242 -0.007044
v 0.040320 0.052243 -0.020424
v 0.020742 0.021088 -0.042731
v 0.060863 0.021661 -0.013943
v 0.064422 0.021503 0.001772
v 0.070988 -0.010979 -0.023329
v 0.078049 -0.010787 -0.006068
v 0.060818 0.020179 0.017322
v 0.076285 -0.012449 0.012946
v 0.051750 0.018370 0.029325
v 0.067623 -0.013836 0.031795
v 0.086972 -0.046682 0.029466
v 0.093672 -0.045430 0.008617
v 0.107435 -0.078739 0.028137
v 0.092840 -0.044781 -0.013385
v 0.111739 -0.077544 0.003324
v 0.081075 -0.046591 -0.033192
v 0.107086 -0.079171 -0.021689
v 0.122945 -0.116340 0.025249
v 0.126346 -0.114979 -0.002028
v 0.111737 -0.119742 0.051861
v 0.121851 -0.116139 -0.029970
v 0.100311 -0.117643 -0.053918
v 0.092302 -0.082413 0.050750
v 0.088272 -0.120396 0.072310
v 0.086972 -0.046682 0.029466
v 0.091338 -0.081243 -0.043055
v 0.071475 -0.050289 0.047186
v 0.065931 -0.085511 0.070164
v 0.055343 -0.127750 0.084261
v 0.054115 -0.017809 0.046634
v 0.047654 -0.053856 0.060313
v 0.037218 -0.091655 0.081233
v 0.017728 -0.134244 0.091213
v 0.032658 -0.020817 0.048581
v 0.001693 -0.098036 0.084815
v 0.023258 -0.058310 0.070012
v -0.050579 -0.143043 0.076934
v 0.011476 -0.024373 0.055421
v -0.050522 -0.105820 0.069936
v -0.088144 -0.148057 0.032108
v -0.007447 -0.063095 0.071259
v -0.087828 -0.148611 -0.025516
v -0.082439 -0.116835 -0.027480
v -0.050501 -0.143554 -0.072031
v -0.045899 -0.115605 -0.070578
v 0.018212 -0.136319 -0.086064
v 0.020761 -0.113950 -0.083170
v 0.083746 -0.128004 -0.063545
v 0.081230 -0.111655 -0.061234
v 0.019872 0.012312 0.048622
v 0.032658 -0.020817 0.048581
v 0.008097 0.044759 0.042829
v 0.024658 0.047674 0.037348
v 0.038979 0.015255 0.040759
v -0.077247 -0.081548 0.025239
v -0.084671 -0.118411 0.031573
v -0.083685 -0.113628 0.027180
v -0.075255 -0.076950 0.018917
v -0.068882 -0.045355 0.016000
v -0.065952 -0.040928 0.010677
v -0.019129 0.160469 -0.005208
v -0.010693 0.124168 -0.013642
v -0.014389 0.126833 -0.004949
v -0.016365 0.130174 -0.000615
v -0.015306 0.133951 0.004766
v -0.012457 0.136407 0.008242
v -0.006217 0.140721 0.008860
v -0.009639 0.138371 0.009277
v -0.016199 0.162910 -0.005149
v -0.008766 0.157573 -0.003973
v -0.012611 0.160761 -0.005543
v -0.005173 0.143508 0.007407
v -0.004194 0.145811 0.004978
v -0.004133 0.150764 -0.000903
v -0.005489 0.153992 -0.002415
v -0.003683 0.148199 0.002049
v 0.069144 -0.082626 -0.059693
v 0.091338 -0.081243 -0.043055
v 0.012438 0.042968 -0.005903
v 0.107086 -0.079171 -0.021689
v 0.012438 0.042968 -0.005903
v 0.100311 -0.117643 -0.053918
v 0.078436 -0.117099 -0.069091
v 0.121851 -0.116139 -0.029970
v 0.126346 -0.114979 -0.002028
v 0.018461 -0.085230 -0.077977
v 0.013703 -0.120597 -0.088193
v 0.012438 0.042968 -0.005903
v 0.111739 -0.077544 0.003324
v 0.012438 0.042968 -0.005903
v 0.122945 -0.116340 0.025249
v 0.107435 -0.078739 0.028137
v 0.012438 0.042968 -0.005903
v 0.111737 -0.119742 0.051861
v 0.092302 -0.082413 0.050750
v 0.012438 0.042968 -0.005903
v 0.088272 -0.120396 0.072310
v 0.065931 -0.085511 0.070164
v 0.012438 0.042968 -0.005903
v 0.055343 -0.127750 0.084261
v 0.037218 -0.091655 0.081233
v 0.012438 0.042968 -0.005903
v 0.017728 -0.134244 0.091213
v 0.001693 -0.098036 0.084815
v 0.012438 0.042968 -0.005903
v -0.050579 -0.143043 0.076934
v 0.020761 -0.113950 -0.083170
v 0.081230 -0.111655 -0.061234
v 0.083746 -0.128004 -0.063545
v 0.018212 -0.136319 -0.086064
v -0.050534 -0.105817 0.070424
v 0.012438 0.042968 -0.005903
v -0.088144 -0.148057 0.032108
v -0.045899 -0.115605 -0.070578
v -0.083685 -0.113628 0.027180
v -0.050501 -0.143554 -0.072031
v -0.087828 -0.148611 -0.025516
v -0.082439 -0.116835 -0.027480
v 0.012438 0.042968 -0.005903
v 0.069144 -0.082626 -0.059693
v 0.061838 -0.048022 -0.049271
v 0.088272 -0.120396 0.072310
v 0.111737 -0.119742 0.051861
v 0.100479 -0.120156 0.062342
v -0.065952 -0.040928 0.010677
v -0.052598 -0.014587 -0.012565
v -0.059633 -0.009820 0.006296
v -0.068882 -0.045355 0.016000
v -0.049962 0.025638 -0.000956
v -0.059633 -0.009820 0.006296
v -0.052598 -0.014587 -0.012565
v -0.041688 0.025110 -0.018341
v -0.025796 0.191978 -0.003549
v -0.021048 0.171247 -0.008231
v -0.010693 0.124168 -0.013642
v -0.019129 0.160469 -0.005208
v -0.025796 0.191978 -0.003549
v -0.024305 0.175321 -0.006861
v -0.021048 0.171247 -0.008231
v -0.026535 0.149419 -0.008754
v -0.020831 0.150357 -0.011554
v -0.022864 0.122432 -0.016365
v -0.030618 0.118892 -0.010184
v -0.025683 0.090681 -0.017759
v -0.022864 0.122432 -0.016365
v -0.037044 0.086810 -0.008731
v -0.035435 0.059210 -0.017853
v -0.041739 0.058879 -0.006278
v -0.083685 -0.113628 0.027180
v -0.084671 -0.118411 0.031573
v -0.089966 -0.121907 -0.021775
v -0.082439 -0.116835 -0.027480
v -0.048705 -0.123033 -0.072566
v -0.045899 -0.115605 -0.070578
v 0.013703 -0.120597 -0.088193
v 0.020761 -0.113950 -0.083170
v 0.078436 -0.117099 -0.069091
v 0.081230 -0.111655 -0.061234
v -0.089966 -0.121907 -0.021775
v -0.084671 -0.118411 0.031573
v -0.077247 -0.081548 0.025239
v -0.078107 -0.084369 -0.021658
v -0.048705 -0.123033 -0.072566
v -0.077247 -0.081548 0.025239
v -0.068882 -0.045355 0.016000
v -0.038970 -0.085601 -0.067614
v 0.013703 -0.120597 -0.088193
v -0.062549 -0.048504 -0.022910
v -0.059633 -0.009820 0.006296
v 0.018461 -0.085230 -0.077977
v 0.078436 -0.117099 -0.069091
v -0.029047 -0.049198 -0.057769
v -0.052940 -0.012539 -0.023816
v -0.049962 0.025638 -0.000956
v 0.019554 -0.050183 -0.062474
v -0.043607 0.021988 -0.024234
v -0.041739 0.058879 -0.006278
v -0.020572 -0.013024 -0.051376
v 0.019554 -0.050183 -0.062474
v 0.020712 -0.012665 -0.051376
v -0.015430 0.021279 -0.044565
v -0.035699 0.054294 -0.023699
v -0.031539 0.085302 -0.021781
v -0.037044 0.086810 -0.008731
v -0.030618 0.118892 -0.010184
v -0.011777 0.052878 -0.037779
v 0.020742 0.021088 -0.042731
v 0.017865 0.052397 -0.035121
v 0.055834 -0.011671 -0.038338
v -0.009477 0.085221 -0.031027
v 0.014293 0.085322 -0.027534
v 0.049246 0.021313 -0.028869
v -0.026189 0.117582 -0.018376
v -0.026535 0.149419 -0.008754
v -0.010169 0.117618 -0.023369
v -0.013310 0.147485 -0.015759
v -0.023615 0.148386 -0.014053
v 0.006504 0.117037 -0.019065
v -0.023222 0.175618 -0.008302
v -0.024305 0.175321 -0.006861
v -0.018018 0.174166 -0.008660
v -0.013310 0.147485 -0.015759
v -0.024483 0.193722 -0.003526
v -0.025796 0.191978 -0.003549
v -0.019129 0.160469 -0.005208
v -0.016199 0.162910 -0.005149
v -0.022259 0.192321 -0.003467
v -0.016199 0.162910 -0.005149
v -0.012611 0.160761 -0.005543
v -0.019654 0.190353 -0.002908
v -0.008766 0.157573 -0.003973
v -0.012491 0.172158 -0.006079
v -0.018110 0.188083 -0.001885
v -0.005489 0.153992 -0.002415
v -0.003221 0.146128 -0.012095
v 0.003251 0.144443 -0.005097
v 0.017011 0.116100 -0.009043
v -0.009464 0.170112 -0.003067
v 0.003251 0.144443 -0.005097
v -0.008369 0.168422 0.000385
v -0.016957 0.186382 -0.000874
v -0.004133 0.150764 -0.000903
v 0.004768 0.142675 0.000808
v -0.008803 0.166516 0.003802
v -0.017268 0.184950 0.001079
v -0.003683 0.148199 0.002049
v 0.003784 0.140870 0.007142
v -0.010186 0.164784 0.006707
v 0.020075 0.115040 -0.000174
v -0.017088 0.183428 0.002555
v -0.003683 0.148199 0.002049
v -0.004194 0.145811 0.004978
v -0.017867 0.182081 0.004008
v -0.005173 0.143508 0.007407
v -0.012517 0.163226 0.009101
v -0.018635 0.180733 0.004972
v -0.006217 0.140721 0.008860
v -0.014913 0.161184 0.010518
v -0.020340 0.179557 0.004937
v -0.009639 0.138371 0.009277
v -0.022122 0.177898 0.004414
v -0.012457 0.136407 0.008242
v -0.019107 0.159969 0.010424
v -0.020340 0.179557 0.004937
v -0.023780 0.176714 0.002426
v -0.015306 0.133951 0.004766
v -0.022406 0.158093 0.009377
v -0.025558 0.156686 0.005890
v -0.024544 0.174868 -0.000515
v -0.016365 0.130174 -0.000615
v -0.021682 0.130655 0.017329
v -0.027845 0.128808 0.011818
v -0.023387 0.172670 -0.003408
v -0.014389 0.126833 -0.004949
v -0.027301 0.154524 -0.000003
v -0.021048 0.171247 -0.008231
v -0.010693 0.124168 -0.013642
v -0.025038 0.152619 -0.005314
v -0.020831 0.150357 -0.011554
v -0.031527 0.126506 0.002949
v -0.029160 0.124582 -0.006755
v -0.022864 0.122432 -0.016365
v -0.025683 0.090681 -0.017759
v -0.033466 0.093103 -0.006231
v -0.035435 0.059210 -0.017853
v -0.041739 0.058879 -0.006278
v -0.036633 0.096664 0.007842
v -0.038009 0.065640 0.013806
v -0.049962 0.025638 -0.000956
v -0.029406 0.099804 0.020210
v -0.027630 0.070187 0.029661
v -0.041688 0.025110 -0.018341
v -0.052598 -0.014587 -0.012565
v -0.057019 -0.004343 0.001450
v -0.040679 0.033365 0.022675
v -0.027630 0.070187 0.029661
v -0.065952 -0.040928 0.010677
v -0.052598 -0.014587 -0.012565
v -0.046073 0.000100 0.033925
v -0.049253 -0.034563 0.045723
v -0.075255 -0.076950 0.018917
v -0.049531 -0.069761 0.056615
v -0.083685 -0.113628 0.027180
v -0.021153 0.005451 0.050122
v -0.049253 -0.034563 0.045723
v -0.023806 0.038208 0.039171
v -0.015546 -0.028345 0.054309
v 0.001302 0.009269 0.054056
v -0.013858 0.073118 0.036813
v -0.006942 0.041564 0.044929
v -0.019172 0.102392 0.027280
v -0.021682 0.130655 0.017329
v -0.002402 0.075978 0.036583
v -0.015906 0.132572 0.018922
v -0.010328 0.104739 0.028456
v 0.000484 0.106724 0.027726
v -0.009135 0.134307 0.019075
v -0.003647 0.136774 0.016264
v 0.011992 0.078298 0.033984
v 0.000815 0.138933 0.012453
v 0.007546 0.109399 0.022998
v 0.014948 0.111018 0.016817
v 0.018531 0.113338 0.009565
v 0.021110 0.081091 0.027350
v 0.030490 0.082347 0.018775
v 0.035380 0.084427 -0.003097
v 0.034523 0.084088 0.009094
v 0.036234 0.050015 0.028332
v 0.045660 0.051262 0.017804
v 0.049651 0.052515 0.006171
v 0.030342 0.085353 -0.013478
v 0.017865 0.052397 -0.035121
v 0.048435 0.052242 -0.007044
v 0.040320 0.052243 -0.020424
v 0.020742 0.021088 -0.042731
v 0.060863 0.021661 -0.013943
v 0.064422 0.021503 0.001772
v 0.070988 -0.010979 -0.023329
v 0.078049 -0.010787 -0.006068
v 0.060818 0.020179 0.017322
v 0.076285 -0.012449 0.012946
v 0.051750 0.018370 0.029325
v 0.067623 -0.013836 0.031795
v 0.086972 -0.046682 0.029466
v 0.093672 -0.045430 0.008617
v 0.107435 -0.078739 0.028137
v 0.092840 -0.044781 -0.013385
v 0.111739 -0.077544 0.003324
v 0.081075 -0.046591 -0.033192
v 0.107086 -0.079171 -0.021689
v 0.122945 -0.116340 0.025249
v 0.126346 -0.114979 -0.002028
v 0.111737 -0.119742 0.051861
v 0.121851 -0.116139 -0.029970
v 0.100311 -0.117643 -0.053918
v 0.092302 -0.082413 0.050750
v 0.088272 -0.120396 0.072310
v 0.086972 -0.046682 0.029466
v 0.091338 -0.081243 -0.043055
v 0.071475 -0.050289 0.047186
v 0.065931 -0.085511 0.070164
v 0.055343 -0.127750 0.084261
v 0.054115 -0.017809 0.046634
v 0.047654 -0.053856 0.060313
v 0.037218 -0.091655 0.081233
v 0.017728 -0.134244 0.091213
v 0.032658 -0.020817 0.048581
v 0.001693 -0.098036 0.084815
v 0.023258 -0.058310 0.070012
v -0.050579 -0.143043 0.076934
v 0.011476 -0.024373 0.055421
v -0.050522 -0.105820 0.069936
v -0.088144 -0.148057 0.032108
v -0.007447 -0.063095 0.071259
v -0.087828 -0.148611 -0.025516
v -0.082439 -0.116835 -0.027480
v -0.050501 -0.143554 -0.072031
v -0.045899 -0.115605 -0.070578
v 0.018212 -0.136319 -0.086064
v 0.020761 -0.113950 -0.083170
v 0.083746 -0.128004 -0.063545
v 0.081230 -0.111655 -0.061234
v 0.019872 0.012312 0.048622
v 0.032658 -0.020817 0.048581
v 0.008097 0.044759 0.042829
v 0.024658 0.047674 0.037348
v 0.038979 0.015255 0.040759
v -0.077247 -0.081548 0.025239
v -0.084671 -0.118411 0.031573
v -0.083685 -0.113628 0.027180
v -0.075255 -0.076950 0.018917
v -0.068882 -0.045355 0.016000
v -0.065952 -0.040928 0.010677
v -0.019129 0.160469 -0.005208
v -0.010693 0.124168 -0.013642
v -0.014389 0.126833 -0.004949
v -0.016365 0.130174 -0.000615
v -0.015306 0.133951 0.004766
v -0.012457 0.136407 0.008242
v -0.006217 0.140721 0.008860
v -0.009639 0.138371 0.009277
v -0.016199 0.162910 -0.005149
v -0.008766 0.157573 -0.003973
v -0.012611 0.160761 -0.005543
v -0.005173 0.143508 0.007407
v -0.004194 0.145811 0.004978
v -0.004133 0.150764 -0.000903
v -0.005489 0.153992 -0.002415
v -0.003683 0.148199 0.002049
v 0.069144 -0.082626 -0.059693
v 0.091338 -0.081243 -0.043055
v 0.012438 0.042968 -0.005903
v 0.107086 -0.079171 -0.021689
v 0.012438 0.042968 -0.005903
v 0.100311 -0.117643 -0.053918
v 0.078436 -0.117099 -0.069091
v 0.121851 -0.116139 -0.029970
v 0.126346 -0.114979 -0.002028
v 0.018461 -0.085230 -0.077977
v 0.013703 -0.120597 -0.088193
v 0.012438 0.042968 -0.005903
v 0.111739 -0.077544 0.003324
v 0.012438 0.042968 -0.005903
v 0.122945 -0.116340 0.025249
v 0.107435 -0.078739 0.028137
v 0.012438 0.042968 -0.005903
v 0.111737 -0.119742 0.051861
v 0.092302 -0.082413 0.050750
v 0.012438 0.042968 -0.005903
v 0.088272 -0.120396 0.072310
v 0.065931 -0.085511 0.070164
v 0.012438 0.042968 -0.005903
v 0.055343 -0.127750 0.084261
v 0.037218 -0.091655 0.081233
v 0.012438 0.042968 -0.005903
v 0.017728 -0.134244 0.091213
v 0.001693 -0.098036 0.084815
v 0.012438 0.042968 -0.005903
v -0.050579 -0.143043 0.076934
v 0.020761 -0.113950 -0.083170
v 0.081230 -0.111655 -0.061234
v 0.083746 -0.128004 -0.063545
v 0.018212 -0.136319 -0.086064
v -0.050534 -0.105817 0.070424
v 0.012438 0.042968 -0.005903
v -0.088144 -0.148057 0.032108
v -0.045899 -0.115605 -0.070578
v -0.083685 -0.113628 0.027180
v -0.050501 -0.143554 -0.072031
v -0.087828 -0.148611 -0.025516
v -0.082439 -0.116835 -0.027480
v 0.012438 0.042968 -0.005903
v 0.069144 -0.082626 -0.059693
v 0.061838 -0.048022 -0.049271
v 0.088272 -0.120396 0.072310
v 0.111737 -0.119742 0.051861
v 0.100479 -0.120156 0.062342
v -0.065952 -0.040928 0.010677
v -0.052598 -0.014587 -0.012565
v -0.059633 -0.009820 0.006296
v -0.068882 -0.045355 0.016000
v -0.049962 0.025638 -0.000956
v -0.059633 -0.009820 0.006296
v -0.052598 -0.014587 -0.012565
v -0.041688 0.025110 -0.018341
v -0.025796 0.191978 -0.003549
v -0.021048 0.171247 -0.008231
v -0.010693 0.124168 -0.013642
v -0.019129 0.160469 -0.005208
v -0.025796 0.191978 -0.003549
v -0.024305 0.175321 -0.006861
v -0.021048 0.171247 -0.008231
v -0.026535 0.149419 -0.008754
v -0.020831 0.150357 -0.011554
v -0.022864 0.122432 -0.016365
v -0.030618 0.118892 -0.010184
v -0.025683 0.090681 -0.017759
v -0.022864 0.122432 -0.016365
v -0.037044 0.086810 -0.008731
v -0.035435 0.059210 -0.017853
v -0.041739 0.058879 -0.006278
v -0.083685 -0.113628 0.027180
v -0.084671 -0.118411 0.031573
v -0.089966 -0.121907 -0.021775
v -0.082439 -0.116835 -0.027480
v -0.048705 -0.123033 -0.072566
v -0.045899 -0.115605 -0.070578
v 0.013703 -0.120597 -0.088193
v 0.020761 -0.113950 -0.083170
v 0.078436 -0.117099 -0.069091
v 0.081230 -0.111655 -0.061234
v -0.089966 -0.121907 -0.021775
v -0.084671 -0.118411 0.031573
v -0.077247 -0.081548 0.025239
v -0.078107 -0.084369 -0.021658
v -0.048705 -0.123033 -0.072566
v -0.077247 -0.081548 0.025239
v -0.068882 -0.045355 0.016000
v -0.038970 -0.085601 -0.067614
v 0.013703 -0.120597 -0.088193
v -0.062549 -0.048504 -0.022910
v -0.059633 -0.009820 0.006296
v 0.018461 -0.085230 -0.077977
v 0.078436 -0.117099 -0.069091
v -0.029047 -0.049198 -0.057769
v -0.052940 -0.012539 -0.023816
v -0.049962 0.025638 -0.000956
v 0.019554 -0.050183 -0.062474
v -0.043607 0.021988 -0.024234
v -0.041739 0.058879 -0.006278
v -0.020572 -0.013024 -0.051376
v 0.019554 -0.050183 -0.062474
v 0.020712 -0.012665 -0.051376
v -0.015430 0.021279 -0.044565
v -0.035699 0.054294 -0.023699
v -0.031539 0.085302 -0.021781
v -0.037044 0.086810 -0.008731
v -0.030618 0.118892 -0.010184
v -0.011777 0.052878 -0.037779
v 0.020742 0.021088 -0.042731
v 0.017865 0.052397 -0.035121
v 0.055834 -0.011671 -0.038338
v -0.009477 0.085221 -0.031027
v 0.014293 0.085322 -0.027534
v 0.049246 0.021313 -0.028869
v -0.026189 0.117582 -0.018376
v -0.026535 0.149419 -0.008754
v -0.010169 0.117618 -0.023369
v -0.013310 0.147485 -0.015759
v -0.023615 0.148386 -0.014053
v 0.006504 0.117037 -0.019065
v -0.023222 0.175618 -0.008302
v -0.024305 0.175321 -0.006861
v -0.018018 0.174166 -0.008660
v -0.013310 0.147485 -0.015759
v -0.024483 0.193722 -0.003526
v -0.025796 0.191978 -0.003549
v -0.019129 0.160469 -0.005208
v -0.016199 0.162910 -0.005149
v -0.022259 0.192321 -0.003467
v -0.016199 0.162910 -0.005149
v -0.012611 0.160761 -0.005543
v -0.019654 0.190353 -0.002908
v -0.008766 0.157573 -0.003973
v -0.012491 0.172158 -0.006079
v -0.018110 0.188083 -0.001885
v -0.005489 0.153992 -0.002415
v -0.003221 0.146128 -0.012095
v 0.003251 0.144443 -0.005097
v 0.017011 0.116100 -0.009043
v -0.009464 0.170112 -0.003067
v 0.003251 0.144443 -0.005097
v -0.008369 0.168422 0.000385
v -0.016957 0.186382 -0.000874
v -0.004133 0.150764 -0.000903
v 0.004768 0.142675 0.000808
v -0.008803 0.166516 0.003802
v -0.017268 0.184950 0.001079
v -0.003683 0.148199 0.002049
v 0.003784 0.140870 0.007142
v -0.010186 0.164784 0.006707
v 0.020075 0.115040 -0.000174
v -0.017088 0.183428 0.002555
v -0.003683 0.148199 0.002049
v -0.004194 0.145811 0.004978
v -0.017867 0.182081 0.004008
v -0.005173 0.143508 0.007407
v -0.012517 0.163226 0.009101
v -0.018635 0.180733 0.004972
v -0.006217 0.140721 0.008860
v -0.014913 0.161184 0.010518
v -0.020340 0.179557 0.004937
v -0.009639 0.138371 0.009277
v -0.022122 0.177898 0.004414
v -0.012457 0.136407 0.008242
v -0.019107 0.159969 0.010424
v -0.020340 0.179557 0.004937
v -0.023780 0.176714 0.002426
v -0.015306 0.133951 0.004766
v -0.022406 0.158093 0.009377
v -0.025558 0.156686 0.005890
v -0.024544 0.174868 -0.000515
v -0.016365 0.130174 -0.000615
v -0.021682 0.130655 0.017329
v -0.027845 0.128808 0.011818
v -0.023387 0.172670 -0.003408
v -0.014389 0.126833 -0.004949
v -0.027301 0.154524 -0.000003
v -0.021048 0.171247 -0.008231
v -0.010693 0.124168 -0.013642
v -0.025038 0.152619 -0.005314
v -0.020831 0.150357 -0.011554
v -0.031527 0.126506 0.002949
v -0.029160 0.124582 -0.006755
v -0.022864 0.122432 -0.016365
v -0.025683 0.090681 -0.017759
v -0.033466 0.093103 -0.006231
v -0.035435 0.059210 -0.017853
v -0.041739 0.058879 -0.006278
v -0.036633 0.096664 0.007842
v -0.038009 0.065640 0.013806
v -0.049962 0.025638 -0.000956
v -0.029406 0.099804 0.020210
v -0.027630 0.070187 0.029661
v -0.041688 0.025110 -0.018341
v -0.052598 -0.014587 -0.012565
v -0.057019 -0.004343 0.001450
v -0.040679 0.033365 0.022675
v -0.027630 0.070187 0.029661
v -0.065952 -0.040928 0.010677
v -0.052598 -0.014587 -0.012565
v -0.046073 0.000100 0.033925
v -0.049253 -0.034563 0.045723
v -0.075255 -0.076950 0.018917
v -0.049531 -0.069761 0.056615
v -0.083685 -0.113628 0.027180
v -0.021153 0.005451 0.050122
v -0.049253 -0.034563 0.045723
v -0.023806 0.038208 0.039171
v -0.015546 -0.028345 0.054309
v 0.001302 0.009269 0.054056
v -0.013858 0.073118 0.036813
v -0.006942 0.041564 0.044929
v -0.019172 0.102392 0.027280
v -0.021682 0.130655 0.017329
v -0.002402 0.075978 0.036583
v -0.015906 0.132572 0.018922
v -0.010328 0.104739 0.028456
v 0.000484 0.106724 0.027726
v -0.009135 0.134307 0.019075
v -0.003647 0.136774 0.016264
v 0.011992 0.078298 0.033984
v 0.000815 0.138933 0.012453
v 0.007546 0.109399 0.022998
v 0.014948 0.111018 0.016817
v 0.018531 0.113338 0.009565
v 0.021110 0.081091 0.027350
v 0.030490 0.082347 0.018775
v 0.035380 0.084427 -0.003097
v 0.034523 0.084088 0.009094
v 0.036234 0.050015 0.028332
v 0.045660 0.051262 0.017804
v 0.049651 0.052515 0.006171
v 0.030342 0.085353 -0.013478
v 0.017865 0.052397 -0.035121
v 0.048435 0.052242 -0.007044
v 0.040320 0.052243 -0.020424
v 0.020742 0.021088 -0.042731
v 0.060863 0.021661 -0.013943
v 0.064422 0.021503 0.001772
v 0.070988 -0.010979 -0.023329
v 0.078049 -0.010787 -0.006068
v 0.060818 0.020179 0.017322
v 0.076285 -0.012449 0.012946
v 0.051750 0.018370 0.029325
v 0.067623 -0.013836 0.031795
v 0.086972 -0.046682 0.029466
v 0.093672 -0.045430 0.008617
v 0.107435 -0.078739 0.028137
v 0.092840 -0.044781 -0.013385
v 0.111739 -0.077544 0.003324
v 0.081075 -0.046591 -0.033192
v 0.107086 -0.079171 -0.021689
v 0.122945 -0.116340 0.025249
v 0.126346 -0.114979 -0.002028
v 0.111737 -0.119742 0.051861
v 0.121851 -0.116139 -0.029970
v 0.100311 -0.117643 -0.053918
v 0.092302 -0.082413 0.050750
v 0.088272 -0.120396 0.072310
v 0.086972 -0.046682 0.029466
v 0.091338 -0.081243 -0.043055
v 0.071475 -0.050289 0.047186
v 0.065931 -0.085511 0.070164
v 0.055343 -0.127750 0.084261
v 0.054115 -0.017809 0.046634
v 0.047654 -0.053856 0.060313
v 0.037218 -0.091655 0.081233
v 0.017728 -0.134244 0.091213
v 0.032658 -0.020817 0.048581
v 0.001693 -0.098036 0.084815
v 0.023258 -0.058310 0.070012
v -0.050579 -0.143043 0.076934
v 0.011476 -0.024373 0.055421
v -0.050522 -0.105820 0.069936
v -0.088144 -0.148057 0.032108
v -0.007447 -0.063095 0.071259
v -0.087828 -0.148611 -0.025516
v -0.082439 -0.116835 -0.027480
v -0.050501 -0.143554 -0.072031
v -0.045899 -0.115605 -0.070578
v 0.018212 -0.136319 -0.086064
v 0.020761 -0.113950 -0.083170
v 0.083746 -0.128004 -0.063545
v 0.081230 -0.111655 -0.061234
v 0.019872 0.012312 0.048622
v 0.032658 -0.020817 0.048581
v 0.008097 0.044759 0.042829
v 0.024658 0.047674 0.037348
v 0.038979 0.015255 0.040759
v -0.077247 -0.081548 0.025239
v -0.084671 -0.118411 0.031573
v -0.083685 -0.113628 0.027180
v -0.075255 -0.076950 0.018917
v -0.068882 -0.045355 0.016000
v -0.065952 -0.040928 0.010677
v -0.019129 0.160469 -0.005208
v -0.010693 0.124168 -0.013642
v -0.014389 0.126833 -0.004949
v -0.016365 0.130174 -0.000615
v -0.015306 0.133951 0.004766
v -0.012457 0.136407 0.008242
v -0.006217 0.140721 0.008860
v -0.009639 0.138371 0.009277
v -0.016199 0.162910 -0.005149
v -0.008766 0.157573 -0.003973
v -0.012611 0.160761 -0.005543
v -0.005173 0.143508 0.007407
v -0.004194 0.145811 0.004978
v -0.004133 0.150764 -0.000903
v -0.005489 0.153992 -0.002415
v -0.003683 0.148199 0.002049
v 0.069144 -0.082626 -0.059693
v 0.091338 -0.081243 -0.043055
v 0.012438 0.042968 -0.005903
v 0.107086 -0.079171 -0.021689
v 0.012438 0.042968 -0.005903
v 0.100311 -0.117643 -0.053918
v 0.078436 -0.117099 -0.069091
v 0.121851 -0.116139 -0.029970
v 0.126346 -0.114979 -0.002028
v 0.018461 -0.085230 -0.077977
v 0.013703 -0.120597 -0.088193
v 0.012438 0.042968 -0.005903
v 0.111739 -0.077544 0.003324
v 0.012438 0.042968 -0.005903
v 0.122945 -0.116340 0.025249
v 0.107435 -0.078739 0.028137
v 0.012438 0.042968 -0.005903
v 0.111737 -0.119742 0.051861
v 0.092302 -0.082413 0.050750
v 0.012438 0.042968 -0.005903
v 0.088272 -0.120396 0.072310
v 0.065931 -0.085511 0.070164
v 0.012438 0.042968 -0.005903
v 0.055343 -0.127750 0.084261
v 0.037218 -0.091655 0.081233
v 0.012438 0.042968 -0.005903
v 0.017728 -0.134244 0.091213
v 0.001693 -0.098036 0.084815
v 0.012438 0.042968 -0.005903
v -0.050579 -0.143043 0.076934
v 0.020761 -0.113950 -0.083170
v 0.081230 -0.111655 -0.061234
v 0.083746 -0.128004 -0.063545
v 0.018212 -0.136319 -0.086064
v -0.050534 -0.105817 0.070424
v 0.012438 0.042968 -0.005903
v -0.088144 -0.148057 0.032108
v -0.045899 -0.115605 -0.070578
v -0.083685 -0.113628 0.027180
v -0.050501 -0.143554 -0.072031
v -0.087828 -0.148611 -0.025516
v -0.082439 -0.116835 -0.027480
v 0.012438 0.042968 -0.005903
v 0.069144 -0.082626 -0.059693
v 0.061838 -0.048022 -0.049271
vn -0.1012 -0.9839 -0.1475
vn 0.9116 -0.1302 0.3900
vn 0.9171 -0.1334 0.3758
vn 0.9165 -0.1330 0.3772
vn 0.9102 -0.1295 0.3934
vn 0.8925 -0.1781 0.4145
vn 0.9085 -0.1697 0.3818
vn 0.9020 -0.1732 0.3954
vn 0.8858 -0.1813 0.4271
vn -0.9744 -0.2024 -0.0984
vn -0.9754 -0.2053 -0.0802
vn -0.9740 -0.2016 -0.1031
vn -0.9733 -0.2000 -0.1125
vn 0.1873 -0.1754 0.9665
vn 0.2098 -0.1569 0.9651
vn 0.2868 -0.1107 0.9516
vn 0.4702 -0.1545 0.8689
vn 0.4559 -0.1578 0.8759
vn 0.6304 -0.1301 0.7653
vn 0.6471 -0.1023 0.7555
vn 0.6449 -0.1337 0.7525
vn 0.6457 -0.0906 0.7582
vn 0.6855 -0.1517 0.7121
vn 0.8248 -0.1335 0.5495
vn 0.8746 -0.1054 0.4733
vn 0.9458 -0.3175 -0.0677
vn 0.9599 -0.2692 -0.0776
vn 0.6607 -0.7297 0.1762
vn 0.7083 -0.5363 0.4591
vn 0.5175 -0.3972 0.7579
vn 0.4600 -0.4051 0.7901
vn 0.0635 -0.6266 0.7767
vn -0.1303 -0.5208 0.8437
vn -0.1933 -0.7587 0.6221
vn -0.1897 -0.7742 0.6039
vn -0.9161 0.2672 -0.2991
vn -0.9741 0.2104 0.0829
vn -0.9677 0.2471 0.0497
vn -0.8889 0.3026 -0.3441
vn -0.5399 0.2394 -0.8070
vn -0.9741 0.2262 0.0042
vn -0.9587 0.2585 -0.1191
vn -0.4732 0.2927 -0.8309
vn 0.0056 0.2541 -0.9672
vn -0.8477 0.2898 -0.4443
vn -0.9519 0.2188 -0.2143
vn 0.0783 0.3286 -0.9412
vn 0.4273 0.3284 -0.8423
vn -0.4134 0.3001 -0.8597
vn -0.8332 0.2232 -0.5059
vn -0.9384 0.2102 -0.2744
vn 0.1626 0.3528 -0.9215
vn -0.7931 0.2107 -0.5715
vn -0.9191 0.1732 -0.3539
vn -0.3303 0.2391 -0.9131
vn -0.0436 0.2424 -0.9692
vn 0.1659 0.2619 -0.9507
vn -0.2670 0.2253 -0.9370
vn -0.7437 0.1842 -0.6426
vn -0.7010 0.1675 -0.6932
vn -0.9064 0.1400 -0.3985
vn -0.8635 0.1607 -0.4780
vn -0.1982 0.2141 -0.9565
vn 0.1728 0.2540 -0.9516
vn 0.1001 0.2291 -0.9682
vn 0.5035 0.3255 -0.8003
vn -0.1071 0.2283 -0.9677
vn 0.4106 0.2910 -0.8641
vn 0.5896 0.3481 -0.7288
vn -0.6088 0.1948 -0.7691
vn -0.8574 0.1277 -0.4986
vn -0.0082 0.2472 -0.9689
vn -0.1913 0.1670 -0.9672
vn -0.5399 0.1799 -0.8223
vn 0.4674 0.3365 -0.8175
vn -0.4379 0.2016 -0.8762
vn -0.7958 0.1076 -0.5960
vn 0.2496 0.2905 -0.9238
vn 0.2316 0.2884 -0.9291
vn -0.1871 0.9768 0.1045
vn -0.7984 0.6014 -0.0295
vn 0.0204 -0.0472 0.9987
vn 0.0194 -0.0474 0.9987
vn 0.5107 0.8340 0.2090
vn 0.0819 -0.0401 0.9958
vn -0.3792 -0.1644 0.9106
vn 0.5292 0.7356 0.4229
vn -0.5997 -0.2326 0.7657
vn 0.6423 0.3679 -0.6724
vn 0.2487 0.5359 0.8068
vn -0.9150 -0.3326 0.2283
vn 0.5516 0.3567 -0.7540
vn 0.7060 0.3863 -0.5936
vn 0.7743 0.4294 -0.4648
vn 0.8527 0.4295 -0.2975
vn 0.8656 0.4474 -0.2249
vn 0.8841 0.4450 0.1428
vn 0.0580 0.7771 0.6267
vn -0.9303 -0.3458 -0.1222
vn 0.8833 0.4615 0.0830
vn 0.7755 0.4256 0.4664
vn -0.5520 0.6118 0.5666
vn -0.9245 -0.3460 -0.1597
vn 0.7912 0.4494 0.4148
vn 0.6213 0.3995 0.6741
vn 0.8838 0.4678 -0.0066
vn -0.4016 0.7685 0.4982
vn -0.8559 -0.3198 -0.4064
vn -0.7859 -0.3065 -0.5371
vn -0.6370 0.6968 0.3296
vn -0.5862 -0.2590 -0.7676
vn 0.3967 0.3566 0.8459
vn -0.4517 0.8776 0.1607
vn -0.1753 -0.1533 -0.9725
vn 0.0833 0.3037 0.9491
vn 0.1536 -0.0569 -0.9865
vn 0.1979 -0.0500 -0.9789
vn -0.4804 0.8528 -0.2049
vn 0.5937 0.0643 -0.8021
vn -0.2610 0.2498 0.9325
vn -0.2797 0.2452 0.9283
vn -0.3149 0.8880 -0.3351
vn 0.8781 0.1511 -0.4540
vn -0.6027 0.2002 0.7725
vn -0.8846 0.1539 0.4402
vn -0.2136 0.8306 -0.5142
vn 0.9772 0.1809 0.1114
vn -0.6947 0.2002 0.6909
vn -0.8199 0.1996 0.5366
vn 0.1303 0.8767 -0.4630
vn 0.9290 0.1673 0.3300
vn -0.9866 0.1280 -0.1011
vn 0.2020 0.9327 -0.2988
vn 0.9249 0.1640 0.3430
vn -0.8634 0.1110 -0.4921
vn -0.8035 0.1250 -0.5820
vn -0.9845 0.1732 0.0274
vn -0.8961 0.1357 -0.4225
vn -0.8174 0.1226 -0.5629
vn -0.8133 0.1583 -0.5600
vn -0.9146 0.1271 -0.3839
vn -0.8500 0.2648 -0.4554
vn -0.9618 0.2558 -0.0974
vn -0.9865 0.1174 0.1140
vn -0.9349 0.1850 0.3028
vn -0.9750 0.2206 0.0265
vn -0.7422 0.1871 0.6435
vn -0.8459 0.1154 0.5207
vn -0.8858 0.1813 -0.4271
vn -0.8908 0.1789 -0.4177
vn -0.9709 0.2242 -0.0839
vn -0.8405 0.2082 0.5003
vn -0.6062 0.2066 0.7680
vn -0.9265 0.2708 0.2614
vn -0.9155 0.1273 -0.3818
vn -0.7764 0.3011 0.5536
vn -0.8756 0.2247 0.4275
vn -0.8364 0.2742 0.4747
vn -0.6060 0.2836 0.7432
vn -0.9036 0.2046 0.3765
vn -0.3700 0.2210 0.9024
vn -0.3429 0.2421 0.9076
vn -0.5406 0.1752 0.8228
vn -0.2031 0.2184 0.9545
vn 0.0154 0.1773 0.9840
vn -0.2745 0.2313 0.9333
vn -0.1466 0.2171 0.9651
vn -0.4172 0.2404 0.8765
vn -0.4684 0.2465 0.8484
vn 0.0459 0.2510 0.9669
vn -0.2099 0.2774 0.9375
vn -0.0885 0.2891 0.9532
vn 0.2159 0.3347 0.9173
vn 0.0933 0.3252 0.9410
vn 0.3989 0.3705 0.8388
vn 0.3235 0.2896 0.9009
vn 0.6084 0.4078 0.6808
vn 0.4813 0.3773 0.7912
vn 0.6470 0.4190 0.6370
vn 0.8151 0.4540 0.3597
vn 0.5488 0.3373 0.7649
vn 0.7232 0.3827 0.5749
vn 0.8895 0.4325 -0.1476
vn 0.8653 0.4367 0.2461
vn 0.6159 0.3209 0.7195
vn 0.7823 0.3711 0.5004
vn 0.9016 0.4127 0.1297
vn 0.7387 0.3662 -0.5659
vn 0.5164 0.3017 -0.8015
vn 0.8670 0.4069 -0.2877
vn 0.6643 0.3668 -0.6512
vn 0.4218 0.2506 -0.8714
vn 0.8260 0.4040 -0.3932
vn 0.9119 0.4098 0.0241
vn 0.7610 0.3803 -0.5255
vn 0.9012 0.4158 -0.1221
vn 0.8231 0.3836 0.4188
vn 0.8745 0.4061 0.2651
vn 0.6517 0.3601 0.6675
vn 0.7309 0.3813 0.5660
vn 0.8297 0.4613 0.3143
vn 0.8767 0.4603 0.1396
vn 0.8325 0.4185 0.3631
vn 0.8601 0.4333 -0.2691
vn 0.9100 0.4147 0.0015
vn 0.6862 0.3765 -0.6224
vn 0.8290 0.4026 -0.3881
vn 0.9005 0.3405 0.2704
vn 0.9269 0.3738 -0.0321
vn 0.7358 0.3516 0.5788
vn 0.8073 0.4162 -0.4184
vn 0.6198 0.3738 -0.6900
vn 0.6266 0.4077 0.6643
vn 0.4679 0.3154 0.8256
vn 0.6620 0.4116 0.6264
vn 0.6488 0.3649 -0.6678
vn 0.5444 0.3893 0.7431
vn 0.3785 0.3634 0.8513
vn 0.2348 0.2039 0.9504
vn 0.3902 0.3299 0.8596
vn 0.3008 0.3958 0.8677
vn 0.1757 0.2893 0.9410
vn -0.0238 0.1386 0.9901
vn 0.1454 0.4023 0.9039
vn -0.1240 0.2301 0.9652
vn 0.1242 0.3959 0.9098
vn -0.5429 0.1351 0.8289
vn 0.0974 0.2620 0.9601
vn -0.5667 0.2226 0.7933
vn -0.9346 0.1523 0.3216
vn -0.1899 0.3524 0.9164
vn -0.9426 0.1326 -0.3064
vn -0.9209 0.1443 -0.3620
vn -0.5524 0.1213 -0.8247
vn -0.4834 0.1317 -0.8654
vn 0.0242 0.1167 -0.9929
vn 0.0907 0.1254 -0.9879
vn 0.3263 0.1620 -0.9313
vn 0.3292 0.1817 -0.9266
vn 0.2943 0.1883 0.9370
vn 0.2144 0.1519 0.9649
vn 0.1777 0.2471 0.9526
vn 0.4143 0.2751 0.8675
vn 0.4412 0.2789 0.8530
vn 0.9689 -0.1833 0.1664
vn 0.9805 -0.1964 0.0063
vn 0.9805 -0.1958 0.0163
vn 0.9666 -0.1790 0.1832
vn 0.9180 -0.1513 0.3666
vn 0.9134 -0.1493 0.3787
vn -0.6051 0.3080 0.7342
vn -0.9261 -0.1332 -0.3530
vn -0.9297 -0.1336 -0.3433
vn -0.9850 -0.1100 -0.1331
vn -0.9179 0.0168 0.3964
vn -0.6372 0.2952 0.7119
vn -0.3105 0.5345 0.7861
vn -0.5675 0.8232 -0.0170
vn -0.0627 0.5349 0.8426
vn 0.2686 0.5553 0.7871
vn 0.5093 0.7863 0.3497
vn -0.9471 0.3081 -0.0898
vn -0.5813 0.6339 0.5102
vn 0.2786 0.6197 0.7337
vn 0.0596 0.4437 0.8942
vn 0.1237 0.7584 0.6400
vn -0.4121 -0.4242 0.8064
vn -0.6190 -0.4515 0.6426
vn -0.4910 -0.5208 0.6983
vn -0.7856 -0.4943 0.3721
vn -0.6385 -0.5626 0.5251
vn -0.6198 -0.3738 0.6900
vn -0.4273 -0.3284 0.8423
vn -0.8073 -0.4162 0.4184
vn -0.9269 -0.3738 0.0321
vn 0.2814 -0.3825 0.8801
vn -0.1154 -0.2613 0.9583
vn -0.1413 -0.4902 0.8601
vn -0.8619 -0.5070 0.0027
vn -0.7656 -0.6169 0.1825
vn -0.9005 -0.3405 -0.2704
vn -0.7869 -0.5050 -0.3547
vn -0.7555 -0.6349 -0.1616
vn -0.7358 -0.3516 -0.5788
vn -0.5906 -0.4904 -0.6408
vn -0.6060 -0.6143 -0.5053
vn -0.4679 -0.3154 -0.8256
vn -0.3554 -0.4406 -0.8244
vn -0.4347 -0.5859 -0.6839
vn -0.2348 -0.2039 -0.9504
vn -0.1414 -0.3783 -0.9148
vn -0.1919 -0.5579 -0.8074
vn 0.0238 -0.1386 -0.9901
vn 0.1438 -0.3426 -0.9284
vn -0.3231 -0.8576 0.4001
vn 0.5416 -0.1271 -0.8310
vn -0.0754 -0.2804 0.9569
vn -0.3154 -0.2987 0.9007
vn -0.3263 -0.1620 0.9313
vn -0.0242 -0.1167 0.9929
vn 0.5640 -0.3511 -0.7474
vn 0.6069 -0.7918 -0.0693
vn 0.9353 -0.1506 -0.3202
vn 0.4848 -0.2980 0.8223
vn 0.9026 -0.3463 -0.2555
vn 0.5524 -0.1213 0.8247
vn 0.9426 -0.1326 0.3064
vn 0.8831 -0.3198 0.3434
vn 0.7942 -0.5151 0.3223
vn 0.4217 0.3484 -0.8371
vn 0.4351 0.3323 -0.8368
vt 0.400162 0.013199
vt 0.455780 0.013199
vt 0.427963 0.013199
vt 0.041000 0.378876
vt 0.082123 0.378250
vt 0.010406 0.445023
vt 0.010406 0.350998
vt 0.010406 0.542847
vt 0.082123 0.574539
vt 0.010406 0.993088
vt 0.082123 0.926941
vt 0.010406 0.948425
vt 0.010406 0.899979
vt 0.082123 0.882294
vt 0.082123 0.833832
vt 0.010406 0.828735
vt 0.082123 0.762589
vt 0.010406 0.742310
vt 0.082123 0.676163
vt 0.010406 0.640686
vt 0.041000 0.194626
vt 0.010406 0.155334
vt 0.050171 0.155334
vt 0.067123 0.194626
vt 0.089920 0.155334
vt 0.093246 0.194626
vt 0.129684 0.155334
vt 0.119370 0.194626
vt 0.169434 0.155334
vt 0.145493 0.194626
vt 0.927078 0.013199
vt 0.987579 0.013199
vt 0.987579 0.135696
vt 0.927078 0.135696
vt 0.860413 0.013199
vt 0.987579 0.240524
vt 0.860413 0.135696
vt 0.793732 0.013199
vt 0.927078 0.240524
vt 0.987579 0.349777
vt 0.793732 0.135696
vt 0.727066 0.013199
vt 0.860413 0.240524
vt 0.927078 0.349777
vt 0.987579 0.463440
vt 0.793732 0.240524
vt 0.927078 0.463440
vt 0.987579 0.577103
vt 0.860413 0.349777
vt 0.793732 0.349777
vt 0.860413 0.463440
vt 0.927078 0.577103
vt 0.927078 0.695190
vt 0.987579 0.695190
vt 0.987579 0.795609
vt 0.860413 0.577103
vt 0.793732 0.463440
vt 0.793732 0.577103
vt 0.727066 0.349777
vt 0.860413 0.695190
vt 0.793732 0.695190
vt 0.727066 0.463440
vt 0.927078 0.795609
vt 0.987579 0.878387
vt 0.860413 0.795609
vt 0.860413 0.878387
vt 0.927078 0.878387
vt 0.793732 0.795609
vt 0.927078 0.934677
vt 0.987579 0.934677
vt 0.860413 0.934677
vt 0.927078 0.986557
vt 0.987579 0.986557
vt 0.860413 0.986557
vt 0.793732 0.986557
vt 0.793732 0.934677
vt 0.727066 0.986557
vt 0.793732 0.878387
vt 0.727066 0.878387
vt 0.727066 0.795609
vt 0.727066 0.934677
vt 0.676010 0.934677
vt 0.676010 0.986557
vt 0.676010 0.878387
vt 0.624954 0.934677
vt 0.624954 0.986557
vt 0.624954 0.878387
vt 0.569321 0.934677
vt 0.676010 0.795609
vt 0.569321 0.986557
vt 0.513702 0.986557
vt 0.513702 0.934677
vt 0.455780 0.986557
vt 0.455780 0.934677
vt 0.400162 0.986557
vt 0.360535 0.986557
vt 0.400162 0.934677
vt 0.320908 0.986557
vt 0.360535 0.934677
vt 0.320908 0.934677
vt 0.251953 0.986557
vt 0.360535 0.878387
vt 0.320908 0.878387
vt 0.182999 0.986557
vt 0.251953 0.934677
vt 0.114029 0.986557
vt 0.182999 0.934677
vt 0.114029 0.934677
vt 0.251953 0.878387
vt 0.182999 0.878387
vt 0.114029 0.878387
vt 0.114029 0.795609
vt 0.182999 0.795609
vt 0.114029 0.695190
vt 0.182999 0.695190
vt 0.251953 0.795609
vt 0.251953 0.695190
vt 0.182999 0.577103
vt 0.320908 0.795609
vt 0.320908 0.695190
vt 0.114029 0.577103
vt 0.114029 0.349060
vt 0.182999 0.463440
vt 0.251953 0.577103
vt 0.182999 0.349777
vt 0.251953 0.463440
vt 0.251953 0.349777
vt 0.182999 0.240524
vt 0.251953 0.240524
vt 0.182999 0.135696
vt 0.320908 0.463440
vt 0.320908 0.577103
vt 0.320908 0.349777
vt 0.360535 0.463440
vt 0.360535 0.695190
vt 0.360535 0.577103
vt 0.360535 0.795609
vt 0.400162 0.695190
vt 0.400162 0.878387
vt 0.400162 0.795609
vt 0.455780 0.795609
vt 0.455780 0.878387
vt 0.513702 0.878387
vt 0.455780 0.695190
vt 0.569321 0.878387
vt 0.513702 0.795609
vt 0.569321 0.795609
vt 0.624954 0.795609
vt 0.513702 0.695190
vt 0.569321 0.695190
vt 0.676010 0.695190
vt 0.624954 0.695190
vt 0.513702 0.577103
vt 0.569321 0.577103
vt 0.624954 0.577103
vt 0.727066 0.695190
vt 0.676010 0.577103
vt 0.727066 0.577103
vt 0.676010 0.463440
vt 0.624954 0.463440
vt 0.676010 0.349777
vt 0.624954 0.349777
vt 0.569321 0.463440
vt 0.569321 0.349777
vt 0.513702 0.463440
vt 0.513702 0.349777
vt 0.513702 0.240524
vt 0.569321 0.240524
vt 0.513702 0.135696
vt 0.624954 0.240524
vt 0.569321 0.135696
vt 0.676010 0.240524
vt 0.624954 0.135696
vt 0.513702 0.013199
vt 0.569321 0.013199
vt 0.624954 0.013199
vt 0.676010 0.013199
vt 0.455780 0.135696
vt 0.676010 0.135696
vt 0.455780 0.240524
vt 0.400162 0.135696
vt 0.360535 0.013199
vt 0.455780 0.349777
vt 0.400162 0.240524
vt 0.360535 0.135696
vt 0.320908 0.013199
vt 0.400162 0.349777
vt 0.320908 0.135696
vt 0.360535 0.240524
vt 0.251953 0.015411
vt 0.360535 0.349777
vt 0.251953 0.135696
vt 0.182999 0.024673
vt 0.320908 0.240524
vt 0.139175 0.035110
vt 0.139175 0.135696
vt 0.095367 0.047073
vt 0.095367 0.135696
vt 0.051559 0.062988
vt 0.051559 0.135696
vt 0.007751 0.081909
vt 0.007751 0.135696
vt 0.400162 0.463440
vt 0.400162 0.577103
vt 0.455780 0.577103
vt 0.455780 0.463440
vt 0.010406 0.260757
vt 0.041000 0.284851
vt 0.727066 0.135696
vt 0.409683 0.128494
vt 0.727066 0.240524
s 1
usemtl Material.001
f 1/1/1 2/2/1 3/3/1
f 4/4/2 5/5/3 6/6/4
f 6/6/4 7/7/5 4/4/2
f 8/8/6 9/6/7 10/5/8
f 10/5/8 11/9/9 8/8/6
f 12/10/10 13/11/11 14/11/12
f 14/11/12 15/10/13 12/10/10
f 16/10/14 17/12/15 18/11/16
f 18/11/16 17/12/15 19/13/17
f 19/13/17 20/14/18 18/11/16
f 21/15/19 20/14/18 19/13/17
f 19/13/17 22/16/20 21/15/19
f 23/17/21 24/15/22 22/16/20
f 22/16/20 25/18/23 23/17/21
f 26/19/24 23/17/21 25/18/23
f 25/18/23 27/20/25 26/19/24
f 28/21/26 29/22/27 30/23/28
f 30/23/28 31/24/29 28/21/26
f 31/24/29 30/23/28 32/25/30
f 32/25/30 33/26/31 31/24/29
f 33/26/31 32/25/30 34/27/32
f 34/27/32 35/28/33 33/26/31
f 35/28/33 34/27/32 36/29/34
f 36/29/34 37/30/35 35/28/33
f 38/31/36 39/32/37 40/33/38
f 40/33/38 41/34/39 38/31/36
f 42/35/40 38/31/36 41/34/39
f 41/34/39 43/33/41 44/36/42
f 41/34/39 45/37/43 42/35/40
f 46/38/44 42/35/40 45/37/43
f 44/36/42 47/39/45 41/34/39
f 45/37/43 41/34/39 47/39/45
f 47/39/45 44/36/42 48/40/46
f 45/37/43 49/41/47 46/38/44
f 50/42/48 46/38/44 49/41/47
f 47/39/45 51/43/49 45/37/43
f 49/41/47 45/37/43 51/43/49
f 48/40/46 52/44/50 47/39/45
f 51/43/49 47/39/45 52/44/50
f 52/44/50 48/40/46 53/45/51
f 51/43/49 54/46/52 49/41/47
f 53/45/51 55/47/53 52/44/50
f 55/47/53 53/45/51 56/48/54
f 52/44/50 57/49/55 51/43/49
f 57/49/55 52/44/50 55/47/53
f 58/46/56 51/43/49 57/49/55
f 57/49/55 59/50/57 58/46/56
f 55/47/53 60/51/58 57/49/55
f 59/50/57 57/49/55 60/51/58
f 56/48/54 61/52/59 55/47/53
f 60/51/58 55/47/53 61/52/59
f 62/53/60 61/52/59 56/48/54
f 56/48/54 63/54/61 62/53/60
f 62/53/60 63/54/61 64/55/62
f 61/52/59 65/56/63 60/51/58
f 65/56/63 61/52/59 62/53/60
f 66/57/64 60/51/58 65/56/63
f 60/51/58 66/57/64 59/50/57
f 65/56/63 67/58/65 66/57/64
f 68/59/66 59/50/57 66/57/64
f 67/58/65 65/56/63 69/60/67
f 62/53/60 69/60/67 65/56/63
f 69/60/67 70/61/68 67/58/65
f 66/57/64 71/62/69 68/59/66
f 64/55/62 72/63/70 62/53/60
f 69/60/67 62/53/60 72/63/70
f 72/63/70 64/55/62 73/64/71
f 72/63/70 74/65/72 69/60/67
f 75/66/73 74/65/72 72/63/70
f 72/63/70 76/67/74 75/66/73
f 73/64/71 76/67/74 72/63/70
f 69/60/67 74/65/72 77/68/75
f 77/68/75 70/61/68 69/60/67
f 78/69/76 76/67/74 73/64/71
f 73/64/71 79/70/77 78/69/76
f 76/67/74 78/69/76 80/71/78
f 80/71/78 81/66/79 76/67/74
f 82/72/80 78/69/76 79/70/77
f 79/70/77 83/73/81 82/72/80
f 82/72/80 83/73/81 84/73/82
f 84/73/82 85/72/83 82/72/80
f 78/69/76 82/72/80 86/74/84
f 86/74/84 80/71/78 78/69/76
f 86/74/84 82/72/80 87/72/85
f 87/72/85 88/74/86 86/74/84
f 89/75/87 86/74/84 88/74/86
f 80/71/78 86/74/84 89/75/87
f 88/74/86 90/75/88 89/75/87
f 89/75/87 91/76/89 80/71/78
f 81/66/79 80/71/78 91/76/89
f 92/77/90 89/75/87 90/75/88
f 91/76/89 89/75/87 92/77/90
f 90/75/88 93/77/91 92/77/90
f 91/76/89 94/78/92 81/66/79
f 74/65/72 81/66/79 94/78/92
f 94/78/92 77/68/75 74/65/72
f 77/68/75 94/78/92 95/79/93
f 95/79/93 96/80/94 77/68/75
f 70/61/68 77/68/75 96/80/94
f 94/78/92 91/76/89 97/81/95
f 92/77/90 97/81/95 91/76/89
f 97/81/95 98/79/96 94/78/92
f 99/82/97 97/81/95 92/77/90
f 98/79/96 97/81/95 99/82/97
f 100/83/98 92/77/90 93/77/91
f 92/77/90 100/83/98 99/82/97
f 93/77/91 101/83/99 100/83/98
f 99/82/97 102/84/100 98/79/96
f 96/80/94 98/79/96 102/84/100
f 103/85/101 99/82/97 100/83/98
f 102/84/100 99/82/97 103/85/101
f 104/86/102 100/83/98 101/83/99
f 101/83/99 105/86/103 104/86/102
f 100/83/98 104/86/102 103/85/101
f 103/85/101 106/87/104 102/84/100
f 107/88/105 103/85/101 104/86/102
f 106/87/104 103/85/101 107/88/105
f 108/89/106 102/84/100 106/87/104
f 102/84/100 108/89/106 96/80/94
f 104/86/102 109/90/107 107/88/105
f 109/90/107 104/86/102 110/86/108
f 110/86/108 111/90/109 109/90/107
f 112/91/110 109/90/107 111/90/109
f 111/90/109 113/91/111 112/91/110
f 114/92/112 107/88/105 109/90/107
f 109/90/107 112/91/110 114/92/112
f 115/93/113 112/91/110 113/91/111
f 113/91/111 116/93/114 115/93/113
f 117/94/115 114/92/112 112/91/110
f 112/91/110 115/93/113 117/94/115
f 118/95/116 115/93/113 116/93/114
f 116/93/114 119/95/117 118/95/116
f 120/96/118 118/95/116 119/95/117
f 119/95/117 121/96/119 120/96/118
f 122/97/120 117/94/115 115/93/113
f 115/93/113 123/95/121 122/97/120
f 124/98/122 120/96/118 121/96/119
f 121/96/119 125/98/123 124/98/122
f 123/95/121 120/96/118 126/99/124
f 126/99/124 122/97/120 123/95/121
f 120/96/118 124/98/122 127/100/125
f 127/100/125 126/99/124 120/96/118
f 128/101/126 124/98/122 125/98/123
f 127/100/125 124/98/122 128/101/126
f 125/98/123 129/101/127 128/101/126
f 130/102/128 126/99/124 127/100/125
f 127/100/125 131/103/129 130/102/128
f 132/104/130 128/101/126 129/101/127
f 129/101/127 133/104/131 132/104/130
f 128/101/126 134/105/132 127/100/125
f 134/105/132 128/101/126 132/104/130
f 131/103/129 127/100/125 134/105/132
f 135/106/133 132/104/130 133/104/131
f 133/104/131 136/106/134 135/106/133
f 137/107/135 132/104/130 135/106/133
f 132/104/130 137/107/135 134/105/132
f 135/106/133 138/108/136 137/107/135
f 139/109/137 134/105/132 137/107/135
f 134/105/132 139/109/137 131/103/129
f 140/110/138 137/107/135 138/108/136
f 137/107/135 140/110/138 139/109/137
f 138/108/136 141/111/139 140/110/138
f 140/110/138 141/111/139 142/112/140
f 139/109/137 140/110/138 143/113/141
f 142/112/140 143/113/141 140/110/138
f 142/112/140 144/114/142 145/115/143
f 145/115/143 143/113/141 142/112/140
f 143/113/141 146/116/144 139/109/137
f 131/103/129 139/109/137 146/116/144
f 143/113/141 145/115/143 147/117/145
f 147/117/145 146/116/144 143/113/141
f 147/117/145 145/115/143 148/118/146
f 146/116/144 149/119/147 131/103/129
f 149/119/147 146/116/144 147/117/145
f 147/117/145 150/120/148 149/119/147
f 148/118/146 151/121/149 152/122/150
f 152/122/150 153/123/151 148/118/146
f 148/118/146 154/124/152 147/117/145
f 154/124/152 148/118/146 153/123/151
f 155/120/153 147/117/145 154/124/152
f 156/125/154 153/123/151 157/122/155
f 153/123/151 158/126/156 154/124/152
f 158/126/156 153/123/151 156/125/154
f 156/125/154 159/127/157 158/126/156
f 159/127/157 156/125/154 160/128/158
f 160/128/158 161/129/159 159/127/157
f 161/129/159 160/128/158 162/130/160
f 154/124/152 158/126/156 163/131/161
f 163/131/161 158/126/156 164/127/162
f 163/131/161 165/132/163 154/124/152
f 154/124/152 165/132/163 155/120/153
f 164/127/162 166/133/164 163/131/161
f 166/133/164 164/127/162 161/129/159
f 165/132/163 163/131/161 167/134/165
f 167/134/165 163/131/161 166/133/164
f 168/135/166 155/120/153 165/132/163
f 149/119/147 155/120/153 168/135/166
f 167/134/165 169/136/167 165/132/163
f 165/132/163 169/136/167 168/135/166
f 168/135/166 170/137/168 149/119/147
f 131/103/129 149/119/147 170/137/168
f 170/137/168 171/102/169 131/103/129
f 172/138/170 168/135/166 169/136/167
f 173/139/171 171/102/169 170/137/168
f 126/99/124 171/102/169 173/139/171
f 174/140/172 170/137/168 168/135/166
f 170/137/168 174/140/172 173/139/171
f 168/135/166 172/138/170 174/140/172
f 173/139/171 122/97/120 126/99/124
f 175/141/173 174/140/172 172/138/170
f 173/139/171 174/140/172 175/141/173
f 122/97/120 173/139/171 176/142/174
f 175/141/173 176/142/174 173/139/171
f 176/142/174 117/94/115 122/97/120
f 117/94/115 176/142/174 177/143/175
f 177/143/175 176/142/174 175/141/173
f 177/143/175 114/92/112 117/94/115
f 172/138/170 178/144/176 175/141/173
f 114/92/112 177/143/175 179/145/177
f 179/145/177 107/88/105 114/92/112
f 107/88/105 179/145/177 106/87/104
f 175/141/173 180/146/178 177/143/175
f 180/146/178 175/141/173 178/144/176
f 181/147/179 179/145/177 177/143/175
f 177/143/175 180/146/178 181/147/179
f 182/148/180 106/87/104 179/145/177
f 179/145/177 181/147/179 182/148/180
f 106/87/104 182/148/180 108/89/106
f 181/147/179 180/146/178 183/149/181
f 178/144/176 183/149/181 180/146/178
f 182/148/180 181/147/179 184/150/182
f 183/149/181 184/150/182 181/147/179
f 185/151/183 108/89/106 182/148/180
f 96/80/94 108/89/106 185/151/183
f 184/150/182 186/152/184 182/148/180
f 182/148/180 186/152/184 185/151/183
f 184/150/182 183/149/181 187/153/185
f 186/152/184 184/150/182 188/154/186
f 187/153/185 188/154/186 184/150/182
f 185/151/183 186/152/184 189/155/187
f 188/154/186 189/155/187 186/152/184
f 185/151/183 190/156/188 96/80/94
f 96/80/94 190/156/188 70/61/68
f 191/58/189 70/61/68 190/156/188
f 190/156/188 185/151/183 192/157/190
f 189/155/187 192/157/190 185/151/183
f 190/156/188 193/158/191 191/58/189
f 192/157/190 193/158/191 190/156/188
f 71/62/69 194/57/192 191/58/189
f 191/58/189 193/158/191 71/62/69
f 193/158/191 192/157/190 195/159/193
f 195/159/193 71/62/69 193/158/191
f 192/157/190 189/155/187 196/160/194
f 196/160/194 195/159/193 192/157/190
f 71/62/69 195/159/193 197/161/195
f 197/161/195 68/59/66 71/62/69
f 195/159/193 196/160/194 198/162/196
f 198/162/196 197/161/195 195/159/193
f 199/163/197 196/160/194 189/155/187
f 189/155/187 188/154/186 199/163/197
f 200/164/198 198/162/196 196/160/194
f 196/160/194 199/163/197 200/164/198
f 201/165/199 199/163/197 188/154/186
f 188/154/186 187/153/185 201/165/199
f 202/166/200 200/164/198 199/163/197
f 199/163/197 201/165/199 202/166/200
f 200/164/198 202/166/200 203/167/201
f 203/167/201 204/168/202 200/164/198
f 198/162/196 200/164/198 204/168/202
f 204/168/202 203/167/201 205/169/203
f 204/168/202 206/170/204 198/162/196
f 197/161/195 198/162/196 206/170/204
f 205/169/203 207/171/205 204/168/202
f 206/170/204 204/168/202 207/171/205
f 206/170/204 208/172/206 197/161/195
f 68/59/66 197/161/195 208/172/206
f 207/171/205 209/173/207 206/170/204
f 208/172/206 206/170/204 209/173/207
f 207/171/205 205/169/203 210/174/208
f 210/174/208 211/175/209 207/171/205
f 209/173/207 207/171/205 211/175/209
f 212/2/210 210/174/208 205/169/203
f 211/175/209 213/176/211 209/173/207
f 209/173/207 213/176/211 214/177/212
f 205/169/203 215/178/213 212/2/210
f 216/1/214 212/2/210 215/178/213
f 215/178/213 205/169/203 217/167/215
f 214/177/212 218/179/216 209/173/207
f 209/173/207 218/179/216 208/172/206
f 217/167/215 219/180/217 215/178/213
f 219/180/217 217/167/215 202/166/200
f 215/178/213 220/181/218 216/1/214
f 220/181/218 215/178/213 219/180/217
f 221/182/219 216/1/214 220/181/218
f 202/166/200 222/183/220 219/180/217
f 222/183/220 202/166/200 201/165/199
f 219/180/217 223/184/221 220/181/218
f 223/184/221 219/180/217 222/183/220
f 220/181/218 224/185/222 221/182/219
f 224/185/222 220/181/218 223/184/221
f 225/186/223 221/182/219 224/185/222
f 222/183/220 226/187/224 223/184/221
f 224/185/222 227/188/225 225/186/223
f 228/189/226 223/184/221 226/187/224
f 223/184/221 228/189/226 224/185/222
f 227/188/225 224/185/222 228/189/226
f 229/190/227 225/186/223 227/188/225
f 226/187/224 230/191/228 228/189/226
f 227/188/225 231/192/229 229/190/227
f 232/193/230 229/190/227 231/192/229
f 228/189/226 233/194/231 227/188/225
f 231/192/229 227/188/225 233/194/231
f 233/194/231 228/189/226 230/191/228
f 231/192/229 162/130/160 232/193/230
f 234/195/232 232/193/230 162/130/160
f 162/130/160 231/192/229 161/129/159
f 233/194/231 161/129/159 231/192/229
f 162/130/160 235/196/233 234/195/232
f 161/129/159 233/194/231 166/133/164
f 230/191/228 166/133/164 233/194/231
f 236/197/234 234/195/232 235/196/233
f 235/196/233 237/198/235 236/197/234
f 238/199/236 236/197/234 237/198/235
f 237/198/235 239/200/237 238/199/236
f 240/201/238 238/199/236 239/200/237
f 239/200/237 241/202/239 240/201/238
f 166/133/164 230/191/228 167/134/165
f 242/203/240 167/134/165 230/191/228
f 230/191/228 243/187/241 242/203/240
f 167/134/165 242/203/240 244/204/242
f 244/204/242 169/136/167 167/134/165
f 169/136/167 244/204/242 172/138/170
f 178/144/176 172/138/170 244/204/242
f 244/204/242 245/205/243 178/144/176
f 245/205/243 244/204/242 242/203/240
f 183/149/181 178/144/176 245/205/243
f 245/205/243 187/153/185 183/149/181
f 242/203/240 246/206/244 245/205/243
f 187/153/185 245/205/243 246/206/244
f 246/206/244 242/203/240 243/187/241
f 246/206/244 201/165/199 187/153/185
f 243/187/241 222/183/220 246/206/244
f 201/165/199 246/206/244 222/183/220
f 247/207/245 248/22/246 249/21/247
f 249/21/247 250/208/248 247/207/245
f 251/7/249 247/207/245 250/208/248
f 250/208/248 252/4/250 251/7/249
f 253/73/251 254/11/252 255/104/253
f 253/73/251 255/104/253 256/101/254
f 253/73/251 256/101/254 257/98/255
f 253/73/251 257/98/255 258/96/256
f 253/73/251 258/96/256 259/93/257
f 258/96/256 260/95/258 259/93/257
f 253/73/251 259/93/257 261/72/259
f 262/75/260 263/74/261 261/72/259
f 259/93/257 264/91/262 265/90/263
f 266/83/264 262/75/260 261/72/259
f 259/93/257 266/83/264 261/72/259
f 259/93/257 265/90/263 266/83/264
f 266/83/264 267/77/265 262/75/260
f 265/90/263 268/86/266 266/83/264
f 269/209/267 270/179/268 271/210/269
f 270/179/268 272/173/270 273/210/271
f 274/177/272 270/179/268 269/209/267
f 272/173/270 270/179/268 274/177/272
f 269/209/267 275/42/273 274/177/272
f 274/177/272 276/176/274 272/173/270
f 272/173/270 276/176/274 277/175/275
f 275/42/273 269/209/267 278/41/276
f 278/41/276 279/38/277 275/42/273
f 278/41/276 269/209/267 280/210/278
f 279/38/277 278/41/276 280/210/278
f 277/175/275 281/171/279 272/173/270
f 272/173/270 281/171/279 282/210/280
f 281/171/279 277/175/275 283/174/281
f 283/174/281 284/169/282 281/171/279
f 281/171/279 284/169/282 285/210/283
f 284/169/282 283/174/281 286/2/284
f 286/2/284 287/178/285 284/169/282
f 284/169/282 287/178/285 288/210/286
f 287/178/285 286/2/284 289/1/287
f 289/1/287 290/181/288 287/178/285
f 287/178/285 290/181/288 291/210/289
f 290/181/288 289/1/287 292/182/290
f 292/182/290 293/185/291 290/181/288
f 290/181/288 293/185/291 294/210/292
f 293/185/291 292/182/290 295/186/293
f 295/186/293 296/188/294 293/185/291
f 293/185/291 296/188/294 297/210/295
f 296/188/294 295/186/293 298/190/296
f 299/200/297 300/202/298 297/210/295
f 301/201/299 300/202/298 299/200/297
f 299/200/297 302/199/300 301/201/299
f 298/190/296 303/192/301 296/188/294
f 296/188/294 303/192/301 304/210/302
f 303/192/301 298/190/296 305/193/303
f 306/198/304 299/200/297 304/210/302
f 302/199/300 299/200/297 306/198/304
f 303/192/301 307/130/305 304/210/302
f 305/193/303 307/130/305 303/192/301
f 306/198/304 308/197/306 302/199/300
f 307/130/305 305/193/303 309/195/307
f 308/197/306 306/198/304 310/196/308
f 310/196/308 309/195/307 308/197/306
f 309/195/307 310/196/308 307/130/305
f 310/196/308 306/198/304 311/210/309
f 307/130/305 310/196/308 311/210/309
f 49/41/47 312/209/310 50/42/48
f 214/177/212 50/42/48 312/209/310
f 312/209/310 49/41/47 54/46/52
f 312/209/310 218/179/216 214/177/212
f 54/46/52 313/211/311 312/209/310
f 218/179/216 312/209/310 313/211/311
f 313/211/311 54/46/52 59/50/57
f 313/211/311 208/172/206 218/179/216
f 59/50/57 68/59/66 313/211/311
f 208/172/206 313/211/311 68/59/66
f 314/1/1 315/2/1 316/3/1
f 317/4/2 318/5/3 319/6/4
f 319/6/4 320/7/5 317/4/2
f 321/8/6 322/6/7 323/5/8
f 323/5/8 324/9/9 321/8/6
f 325/10/10 326/11/11 327/11/12
f 327/11/12 328/10/13 325/10/10
f 329/10/14 330/12/15 331/11/16
f 331/11/16 330/12/15 332/13/17
f 332/13/17 333/14/18 331/11/16
f 334/15/19 333/14/18 332/13/17
f 332/13/17 335/16/20 334/15/19
f 336/17/21 337/15/22 335/16/20
f 335/16/20 338/18/23 336/17/21
f 339/19/24 336/17/21 338/18/23
f 338/18/23 340/20/25 339/19/24
f 341/21/26 342/22/27 343/23/28
f 343/23/28 344/24/29 341/21/26
f 344/24/29 343/23/28 345/25/30
f 345/25/30 346/26/31 344/24/29
f 346/26/31 345/25/30 347/27/32
f 347/27/32 348/28/33 346/26/31
f 348/28/33 347/27/32 349/29/34
f 349/29/34 350/30/35 348/28/33
f 351/31/36 352/32/37 353/33/38
f 353/33/38 354/34/39 351/31/36
f 355/35/40 351/31/36 354/34/39
f 354/34/39 356/33/41 357/36/42
f 354/34/39 358/37/43 355/35/40
f 359/38/44 355/35/40 358/37/43
f 357/36/42 360/39/45 354/34/39
f 358/37/43 354/34/39 360/39/45
f 360/39/45 357/36/42 361/40/46
f 358/37/43 362/41/47 359/38/44
f 363/42/48 359/38/44 362/41/47
f 360/39/45 364/43/49 358/37/43
f 362/41/47 358/37/43 364/43/49
f 361/40/46 365/44/50 360/39/45
f 364/43/49 360/39/45 365/44/50
f 365/44/50 361/40/46 366/45/51
f 364/43/49 367/46/52 362/41/47
f 366/45/51 368/47/53 365/44/50
f 368/47/53 366/45/51 369/48/54
f 365/44/50 370/49/55 364/43/49
f 370/49/55 365/44/50 368/47/53
f 371/46/56 364/43/49 370/49/55
f 370/49/55 372/50/57 371/46/56
f 368/47/53 373/51/58 370/49/55
f 372/50/57 370/49/55 373/51/58
f 369/48/54 374/52/59 368/47/53
f 373/51/58 368/47/53 374/52/59
f 375/53/60 374/52/59 369/48/54
f 369/48/54 376/54/61 375/53/60
f 375/53/60 376/54/61 377/55/62
f 374/52/59 378/56/63 373/51/58
f 378/56/63 374/52/59 375/53/60
f 379/57/64 373/51/58 378/56/63
f 373/51/58 379/57/64 372/50/57
f 378/56/63 380/58/65 379/57/64
f 381/59/66 372/50/57 379/57/64
f 380/58/65 378/56/63 382/60/67
f 375/53/60 382/60/67 378/56/63
f 382/60/67 383/61/68 380/58/65
f 379/57/64 384/62/69 381/59/66
f 377/55/62 385/63/70 375/53/60
f 382/60/67 375/53/60 385/63/70
f 385/63/70 377/55/62 386/64/71
f 385/63/70 387/65/72 382/60/67
f 388/66/73 387/65/72 385/63/70
f 385/63/70 389/67/74 388/66/73
f 386/64/71 389/67/74 385/63/70
f 382/60/67 387/65/72 390/68/75
f 390/68/75 383/61/68 382/60/67
f 391/69/76 389/67/74 386/64/71
f 386/64/71 392/70/77 391/69/76
f 389/67/74 391/69/76 393/71/78
f 393/71/78 394/66/79 389/67/74
f 395/72/80 391/69/76 392/70/77
f 392/70/77 396/73/81 395/72/80
f 395/72/80 396/73/81 397/73/82
f 397/73/82 398/72/83 395/72/80
f 391/69/76 395/72/80 399/74/84
f 399/74/84 393/71/78 391/69/76
f 399/74/84 395/72/80 400/72/85
f 400/72/85 401/74/86 399/74/84
f 402/75/87 399/74/84 401/74/86
f 393/71/78 399/74/84 402/75/87
f 401/74/86 403/75/88 402/75/87
f 402/75/87 404/76/89 393/71/78
f 394/66/79 393/71/78 404/76/89
f 405/77/90 402/75/87 403/75/88
f 404/76/89 402/75/87 405/77/90
f 403/75/88 406/77/91 405/77/90
f 404/76/89 407/78/92 394/66/79
f 387/65/72 394/66/79 407/78/92
f 407/78/92 390/68/75 387/65/72
f 390/68/75 407/78/92 408/79/93
f 408/79/93 409/80/94 390/68/75
f 383/61/68 390/68/75 409/80/94
f 407/78/92 404/76/89 410/81/95
f 405/77/90 410/81/95 404/76/89
f 410/81/95 411/79/96 407/78/92
f 412/82/97 410/81/95 405/77/90
f 411/79/96 410/81/95 412/82/97
f 413/83/98 405/77/90 406/77/91
f 405/77/90 413/83/98 412/82/97
f 406/77/91 414/83/99 413/83/98
f 412/82/97 415/84/100 411/79/96
f 409/80/94 411/79/96 415/84/100
f 416/85/101 412/82/97 413/83/98
f 415/84/100 412/82/97 416/85/101
f 417/86/102 413/83/98 414/83/99
f 414/83/99 418/86/103 417/86/102
f 413/83/98 417/86/102 416/85/101
f 416/85/101 419/87/104 415/84/100
f 420/88/105 416/85/101 417/86/102
f 419/87/104 416/85/101 420/88/105
f 421/89/106 415/84/100 419/87/104
f 415/84/100 421/89/106 409/80/94
f 417/86/102 422/90/107 420/88/105
f 422/90/107 417/86/102 423/86/108
f 423/86/108 424/90/109 422/90/107
f 425/91/110 422/90/107 424/90/109
f 424/90/109 426/91/111 425/91/110
f 427/92/112 420/88/105 422/90/107
f 422/90/107 425/91/110 427/92/112
f 428/93/113 425/91/110 426/91/111
f 426/91/111 429/93/114 428/93/113
f 430/94/115 427/92/112 425/91/110
f 425/91/110 428/93/113 430/94/115
f 431/95/116 428/93/113 429/93/114
f 429/93/114 432/95/117 431/95/116
f 433/96/118 431/95/116 432/95/117
f 432/95/117 434/96/119 433/96/118
f 435/97/120 430/94/115 428/93/113
f 428/93/113 436/95/121 435/97/120
f 437/98/122 433/96/118 434/96/119
f 434/96/119 438/98/123 437/98/122
f 436/95/121 433/96/118 439/99/124
f 439/99/124 435/97/120 436/95/121
f 433/96/118 437/98/122 440/100/125
f 440/100/125 439/99/124 433/96/118
f 441/101/126 437/98/122 438/98/123
f 440/100/125 437/98/122 441/101/126
f 438/98/123 442/101/127 441/101/126
f 443/102/128 439/99/124 440/100/125
f 440/100/125 444/103/129 443/102/128
f 445/104/130 441/101/126 442/101/127
f 442/101/127 446/104/131 445/104/130
f 441/101/126 447/105/132 440/100/125
f 447/105/132 441/101/126 445/104/130
f 444/103/129 440/100/125 447/105/132
f 448/106/133 445/104/130 446/104/131
f 446/104/131 449/106/134 448/106/133
f 450/107/135 445/104/130 448/106/133
f 445/104/130 450/107/135 447/105/132
f 448/106/133 451/108/136 450/107/135
f 452/109/137 447/105/132 450/107/135
f 447/105/132 452/109/137 444/103/129
f 453/110/138 450/107/135 451/108/136
f 450/107/135 453/110/138 452/109/137
f 451/108/136 454/111/139 453/110/138
f 453/110/138 454/111/139 455/112/140
f 452/109/137 453/110/138 456/113/141
f 455/112/140 456/113/141 453/110/138
f 455/112/140 457/114/142 458/115/143
f 458/115/143 456/113/141 455/112/140
f 456/113/141 459/116/144 452/109/137
f 444/103/129 452/109/137 459/116/144
f 456/113/141 458/115/143 460/117/145
f 460/117/145 459/116/144 456/113/141
f 460/117/145 458/115/143 461/118/146
f 459/116/144 462/119/147 444/103/129
f 462/119/147 459/116/144 460/117/145
f 460/117/145 463/120/148 462/119/147
f 461/118/146 464/121/149 465/122/150
f 465/122/150 466/123/151 461/118/146
f 461/118/146 467/124/152 460/117/145
f 467/124/152 461/118/146 466/123/151
f 468/120/153 460/117/145 467/124/152
f 469/125/154 466/123/151 470/122/155
f 466/123/151 471/126/156 467/124/152
f 471/126/156 466/123/151 469/125/154
f 469/125/154 472/127/157 471/126/156
f 472/127/157 469/125/154 473/128/158
f 473/128/158 474/129/159 472/127/157
f 474/129/159 473/128/158 475/130/160
f 467/124/152 471/126/156 476/131/161
f 476/131/161 471/126/156 477/127/162
f 476/131/161 478/132/163 467/124/152
f 467/124/152 478/132/163 468/120/153
f 477/127/162 479/133/164 476/131/161
f 479/133/164 477/127/162 474/129/159
f 478/132/163 476/131/161 480/134/165
f 480/134/165 476/131/161 479/133/164
f 481/135/166 468/120/153 478/132/163
f 462/119/147 468/120/153 481/135/166
f 480/134/165 482/136/167 478/132/163
f 478/132/163 482/136/167 481/135/166
f 481/135/166 483/137/168 462/119/147
f 444/103/129 462/119/147 483/137/168
f 483/137/168 484/102/169 444/103/129
f 485/138/170 481/135/166 482/136/167
f 486/139/171 484/102/169 483/137/168
f 439/99/124 484/102/169 486/139/171
f 487/140/172 483/137/168 481/135/166
f 483/137/168 487/140/172 486/139/171
f 481/135/166 485/138/170 487/140/172
f 486/139/171 435/97/120 439/99/124
f 488/141/173 487/140/172 485/138/170
f 486/139/171 487/140/172 488/141/173
f 435/97/120 486/139/171 489/142/174
f 488/141/173 489/142/174 486/139/171
f 489/142/174 430/94/115 435/97/120
f 430/94/115 489/142/174 490/143/175
f 490/143/175 489/142/174 488/141/173
f 490/143/175 427/92/112 430/94/115
f 485/138/170 491/144/176 488/141/173
f 427/92/112 490/143/175 492/145/177
f 492/145/177 420/88/105 427/92/112
f 420/88/105 492/145/177 419/87/104
f 488/141/173 493/146/178 490/143/175
f 493/146/178 488/141/173 491/144/176
f 494/147/179 492/145/177 490/143/175
f 490/143/175 493/146/178 494/147/179
f 495/148/180 419/87/104 492/145/177
f 492/145/177 494/147/179 495/148/180
f 419/87/104 495/148/180 421/89/106
f 494/147/179 493/146/178 496/149/181
f 491/144/176 496/149/181 493/146/178
f 495/148/180 494/147/179 497/150/182
f 496/149/181 497/150/182 494/147/179
f 498/151/183 421/89/106 495/148/180
f 409/80/94 421/89/106 498/151/183
f 497/150/182 499/152/184 495/148/180
f 495/148/180 499/152/184 498/151/183
f 497/150/182 496/149/181 500/153/185
f 499/152/184 497/150/182 501/154/186
f 500/153/185 501/154/186 497/150/182
f 498/151/183 499/152/184 502/155/187
f 501/154/186 502/155/187 499/152/184
f 498/151/183 503/156/188 409/80/94
f 409/80/94 503/156/188 383/61/68
f 504/58/189 383/61/68 503/156/188
f 503/156/188 498/151/183 505/157/190
f 502/155/187 505/157/190 498/151/183
f 503/156/188 506/158/191 504/58/189
f 505/157/190 506/158/191 503/156/188
f 384/62/69 507/57/192 504/58/189
f 504/58/189 506/158/191 384/62/69
f 506/158/191 505/157/190 508/159/193
f 508/159/193 384/62/69 506/158/191
f 505/157/190 502/155/187 509/160/194
f 509/160/194 508/159/193 505/157/190
f 384/62/69 508/159/193 510/161/195
f 510/161/195 381/59/66 384/62/69
f 508/159/193 509/160/194 511/162/196
f 511/162/196 510/161/195 508/159/193
f 512/163/197 509/160/194 502/155/187
f 502/155/187 501/154/186 512/163/197
f 513/164/198 511/162/196 509/160/194
f 509/160/194 512/163/197 513/164/198
f 514/165/199 512/163/197 501/154/186
f 501/154/186 500/153/185 514/165/199
f 515/166/200 513/164/198 512/163/197
f 512/163/197 514/165/199 515/166/200
f 513/164/198 515/166/200 516/167/201
f 516/167/201 517/168/202 513/164/198
f 511/162/196 513/164/198 517/168/202
f 517/168/202 516/167/201 518/169/203
f 517/168/202 519/170/204 511/162/196
f 510/161/195 511/162/196 519/170/204
f 518/169/203 520/171/205 517/168/202
f 519/170/204 517/168/202 520/171/205
f 519/170/204 521/172/206 510/161/195
f 381/59/66 510/161/195 521/172/206
f 520/171/205 522/173/207 519/170/204
f 521/172/206 519/170/204 522/173/207
f 520/171/205 518/169/203 523/174/208
f 523/174/208 524/175/209 520/171/205
f 522/173/207 520/171/205 524/175/209
f 525/2/210 523/174/208 518/169/203
f 524/175/209 526/176/211 522/173/207
f 522/173/207 526/176/211 527/177/212
f 518/169/203 528/178/213 525/2/210
f 529/1/214 525/2/210 528/178/213
f 528/178/213 518/169/203 530/167/215
f 527/177/212 531/179/216 522/173/207
f 522/173/207 531/179/216 521/172/206
f 530/167/215 532/180/217 528/178/213
f 532/180/217 530/167/215 515/166/200
f 528/178/213 533/181/218 529/1/214
f 533/181/218 528/178/213 532/180/217
f 534/182/219 529/1/214 533/181/218
f 515/166/200 535/183/220 532/180/217
f 535/183/220 515/166/200 514/165/199
f 532/180/217 536/184/221 533/181/218
f 536/184/221 532/180/217 535/183/220
f 533/181/218 537/185/222 534/182/219
f 537/185/222 533/181/218 536/184/221
f 538/186/223 534/182/219 537/185/222
f 535/183/220 539/187/224 536/184/221
f 537/185/222 540/188/225 538/186/223
f 541/189/226 536/184/221 539/187/224
f 536/184/221 541/189/226 537/185/222
f 540/188/225 537/185/222 541/189/226
f 542/190/227 538/186/223 540/188/225
f 539/187/224 543/191/228 541/189/226
f 540/188/225 544/192/229 542/190/227
f 545/193/230 542/190/227 544/192/229
f 541/189/226 546/194/231 540/188/225
f 544/192/229 540/188/225 546/194/231
f 546/194/231 541/189/226 543/191/228
f 544/192/229 475/130/160 545/193/230
f 547/195/232 545/193/230 475/130/160
f 475/130/160 544/192/229 474/129/159
f 546/194/231 474/129/159 544/192/229
f 475/130/160 548/196/233 547/195/232
f 474/129/159 546/194/231 479/133/164
f 543/191/228 479/133/164 546/194/231
f 549/197/234 547/195/232 548/196/233
f 548/196/233 550/198/235 549/197/234
f 551/199/236 549/197/234 550/198/235
f 550/198/235 552/200/237 551/199/236
f 553/201/238 551/199/236 552/200/237
f 552/200/237 554/202/239 553/201/238
f 479/133/164 543/191/228 480/134/165
f 555/203/240 480/134/165 543/191/228
f 543/191/228 556/187/241 555/203/240
f 480/134/165 555/203/240 557/204/242
f 557/204/242 482/136/167 480/134/165
f 482/136/167 557/204/242 485/138/170
f 491/144/176 485/138/170 557/204/242
f 557/204/242 558/205/243 491/144/176
f 558/205/243 557/204/242 555/203/240
f 496/149/181 491/144/176 558/205/243
f 558/205/243 500/153/185 496/149/181
f 555/203/240 559/206/244 558/205/243
f 500/153/185 558/205/243 559/206/244
f 559/206/244 555/203/240 556/187/241
f 559/206/244 514/165/199 500/153/185
f 556/187/241 535/183/220 559/206/244
f 514/165/199 559/206/244 535/183/220
f 560/207/245 561/22/246 562/21/247
f 562/21/247 563/208/248 560/207/245
f 564/7/249 560/207/245 563/208/248
f 563/208/248 565/4/250 564/7/249
f 566/73/251 567/11/252 568/104/253
f 566/73/251 568/104/253 569/101/254
f 566/73/251 569/101/254 570/98/255
f 566/73/251 570/98/255 571/96/256
f 566/73/251 571/96/256 572/93/257
f 571/96/256 573/95/258 572/93/257
f 566/73/251 572/93/257 574/72/259
f 575/75/260 576/74/261 574/72/259
f 572/93/257 577/91/262 578/90/263
f 579/83/264 575/75/260 574/72/259
f 572/93/257 579/83/264 574/72/259
f 572/93/257 578/90/263 579/83/264
f 579/83/264 580/77/265 575/75/260
f 578/90/263 581/86/266 579/83/264
f 582/209/267 583/179/268 584/210/269
f 583/179/268 585/173/270 586/210/271
f 587/177/272 583/179/268 582/209/267
f 585/173/270 583/179/268 587/177/272
f 582/209/267 588/42/273 587/177/272
f 587/177/272 589/176/274 585/173/270
f 585/173/270 589/176/274 590/175/275
f 588/42/273 582/209/267 591/41/276
f 591/41/276 592/38/277 588/42/273
f 591/41/276 582/209/267 593/210/278
f 592/38/277 591/41/276 593/210/278
f 590/175/275 594/171/279 585/173/270
f 585/173/270 594/171/279 595/210/280
f 594/171/279 590/175/275 596/174/281
f 596/174/281 597/169/282 594/171/279
f 594/171/279 597/169/282 598/210/283
f 597/169/282 596/174/281 599/2/284
f 599/2/284 600/178/285 597/169/282
f 597/169/282 600/178/285 601/210/286
f 600/178/285 599/2/284 602/1/287
f 602/1/287 603/181/288 600/178/285
f 600/178/285 603/181/288 604/210/289
f 603/181/288 602/1/287 605/182/290
f 605/182/290 606/185/291 603/181/288
f 603/181/288 606/185/291 607/210/292
f 606/185/291 605/182/290 608/186/293
f 608/186/293 609/188/294 606/185/291
f 606/185/291 609/188/294 610/210/295
f 609/188/294 608/186/293 611/190/296
f 612/200/297 613/202/298 610/210/295
f 614/201/299 613/202/298 612/200/297
f 612/200/297 615/199/300 614/201/299
f 611/190/296 616/192/301 609/188/294
f 609/188/294 616/192/301 617/210/302
f 616/192/301 611/190/296 618/193/303
f 619/198/304 612/200/297 617/210/302
f 615/199/300 612/200/297 619/198/304
f 616/192/301 620/130/305 617/210/302
f 618/193/303 620/130/305 616/192/301
f 619/198/304 621/197/306 615/199/300
f 620/130/305 618/193/303 622/195/307
f 621/197/306 619/198/304 623/196/308
f 623/196/308 622/195/307 621/197/306
f 622/195/307 623/196/308 620/130/305
f 623/196/308 619/198/304 624/210/309
f 620/130/305 623/196/308 624/210/309
f 362/41/47 625/209/310 363/42/48
f 527/177/212 363/42/48 625/209/310
f 625/209/310 362/41/47 367/46/52
f 625/209/310 531/179/216 527/177/212
f 367/46/52 626/211/311 625/209/310
f 531/179/216 625/209/310 626/211/311
f 626/211/311 367/46/52 372/50/57
f 626/211/311 521/172/206 531/179/216
f 372/50/57 381/59/66 626/211/311
f 521/172/206 626/211/311 381/59/66
f 627/1/1 628/2/1 629/3/1
f 630/4/2 631/5/3 632/6/4
f 632/6/4 633/7/5 630/4/2
f 634/8/6 635/6/7 636/5/8
f 636/5/8 637/9/9 634/8/6
f 638/10/10 639/11/11 640/11/12
f 640/11/12 641/10/13 638/10/10
f 642/10/14 643/12/15 644/11/16
f 644/11/16 643/12/15 645/13/17
f 645/13/17 646/14/18 644/11/16
f 647/15/19 646/14/18 645/13/17
f 645/13/17 648/16/20 647/15/19
f 649/17/21 650/15/22 648/16/20
f 648/16/20 651/18/23 649/17/21
f 652/19/24 649/17/21 651/18/23
f 651/18/23 653/20/25 652/19/24
f 654/21/26 655/22/27 656/23/28
f 656/23/28 657/24/29 654/21/26
f 657/24/29 656/23/28 658/25/30
f 658/25/30 659/26/31 657/24/29
f 659/26/31 658/25/30 660/27/32
f 660/27/32 661/28/33 659/26/31
f 661/28/33 660/27/32 662/29/34
f 662/29/34 663/30/35 661/28/33
f 664/31/36 665/32/37 666/33/38
f 666/33/38 667/34/39 664/31/36
f 668/35/40 664/31/36 667/34/39
f 667/34/39 669/33/41 670/36/42
f 667/34/39 671/37/43 668/35/40
f 672/38/44 668/35/40 671/37/43
f 670/36/42 673/39/45 667/34/39
f 671/37/43 667/34/39 673/39/45
f 673/39/45 670/36/42 674/40/46
f 671/37/43 675/41/47 672/38/44
f 676/42/48 672/38/44 675/41/47
f 673/39/45 677/43/49 671/37/43
f 675/41/47 671/37/43 677/43/49
f 674/40/46 678/44/50 673/39/45
f 677/43/49 673/39/45 678/44/50
f 678/44/50 674/40/46 679/45/51
f 677/43/49 680/46/52 675/41/47
f 679/45/51 681/47/53 678/44/50
f 681/47/53 679/45/51 682/48/54
f 678/44/50 683/49/55 677/43/49
f 683/49/55 678/44/50 681/47/53
f 684/46/56 677/43/49 683/49/55
f 683/49/55 685/50/57 684/46/56
f 681/47/53 686/51/58 683/49/55
f 685/50/57 683/49/55 686/51/58
f 682/48/54 687/52/59 681/47/53
f 686/51/58 681/47/53 687/52/59
f 688/53/60 687/52/59 682/48/54
f 682/48/54 689/54/61 688/53/60
f 688/53/60 689/54/61 690/55/62
f 687/52/59 691/56/63 686/51/58
f 691/56/63 687/52/59 688/53/60
f 692/57/64 686/51/58 691/56/63
f 686/51/58 692/57/64 685/50/57
f 691/56/63 693/58/65 692/57/64
f 694/59/66 685/50/57 692/57/64
f 693/58/65 691/56/63 695/60/67
f 688/53/60 695/60/67 691/56/63
f 695/60/67 696/61/68 693/58/65
f 692/57/64 697/62/69 694/59/66
f 690/55/62 698/63/70 688/53/60
f 695/60/67 688/53/60 698/63/70
f 698/63/70 690/55/62 699/64/71
f 698/63/70 700/65/72 695/60/67
f 701/66/73 700/65/72 698/63/70
f 698/63/70 702/67/74 701/66/73
f 699/64/71 702/67/74 698/63/70
f 695/60/67 700/65/72 703/68/75
f 703/68/75 696/61/68 695/60/67
f 704/69/76 702/67/74 699/64/71
f 699/64/71 705/70/77 704/69/76
f 702/67/74 704/69/76 706/71/78
f 706/71/78 707/66/79 702/67/74
f 708/72/80 704/69/76 705/70/77
f 705/70/77 709/73/81 708/72/80
f 708/72/80 709/73/81 710/73/82
f 710/73/82 711/72/83 708/72/80
f 704/69/76 708/72/80 712/74/84
f 712/74/84 706/71/78 704/69/76
f 712/74/84 708/72/80 713/72/85
f 713/72/85 714/74/86 712/74/84
f 715/75/87 712/74/84 714/74/86
f 706/71/78 712/74/84 715/75/87
f 714/74/86 716/75/88 715/75/87
f 715/75/87 717/76/89 706/71/78
f 707/66/79 706/71/78 717/76/89
f 718/77/90 715/75/87 716/75/88
f 717/76/89 715/75/87 718/77/90
f 716/75/88 719/77/91 718/77/90
f 717/76/89 720/78/92 707/66/79
f 700/65/72 707/66/79 720/78/92
f 720/78/92 703/68/75 700/65/72
f 703/68/75 720/78/92 721/79/93
f 721/79/93 722/80/94 703/68/75
f 696/61/68 703/68/75 722/80/94
f 720/78/92 717/76/89 723/81/95
f 718/77/90 723/81/95 717/76/89
f 723/81/95 724/79/96 720/78/92
f 725/82/97 723/81/95 718/77/90
f 724/79/96 723/81/95 725/82/97
f 726/83/98 718/77/90 719/77/91
f 718/77/90 726/83/98 725/82/97
f 719/77/91 727/83/99 726/83/98
f 725/82/97 728/84/100 724/79/96
f 722/80/94 724/79/96 728/84/100
f 729/85/101 725/82/97 726/83/98
f 728/84/100 725/82/97 729/85/101
f 730/86/102 726/83/98 727/83/99
f 727/83/99 731/86/103 730/86/102
f 726/83/98 730/86/102 729/85/101
f 729/85/101 732/87/104 728/84/100
f 733/88/105 729/85/101 730/86/102
f 732/87/104 729/85/101 733/88/105
f 734/89/106 728/84/100 732/87/104
f 728/84/100 734/89/106 722/80/94
f 730/86/102 735/90/107 733/88/105
f 735/90/107 730/86/102 736/86/108
f 736/86/108 737/90/109 735/90/107
f 738/91/110 735/90/107 737/90/109
f 737/90/109 739/91/111 738/91/110
f 740/92/112 733/88/105 735/90/107
f 735/90/107 738/91/110 740/92/112
f 741/93/113 738/91/110 739/91/111
f 739/91/111 742/93/114 741/93/113
f 743/94/115 740/92/112 738/91/110
f 738/91/110 741/93/113 743/94/115
f 744/95/116 741/93/113 742/93/114
f 742/93/114 745/95/117 744/95/116
f 746/96/118 744/95/116 745/95/117
f 745/95/117 747/96/119 746/96/118
f 748/97/120 743/94/115 741/93/113
f 741/93/113 749/95/121 748/97/120
f 750/98/122 746/96/118 747/96/119
f 747/96/119 751/98/123 750/98/122
f 749/95/121 746/96/118 752/99/124
f 752/99/124 748/97/120 749/95/121
f 746/96/118 750/98/122 753/100/125
f 753/100/125 752/99/124 746/96/118
f 754/101/126 750/98/122 751/98/123
f 753/100/125 750/98/122 754/101/126
f 751/98/123 755/101/127 754/101/126
f 756/102/128 752/99/124 753/100/125
f 753/100/125 757/103/129 756/102/128
f 758/104/130 754/101/126 755/101/127
f 755/101/127 759/104/131 758/104/130
f 754/101/126 760/105/132 753/100/125
f 760/105/132 754/101/126 758/104/130
f 757/103/129 753/100/125 760/105/132
f 761/106/133 758/104/130 759/104/131
f 759/104/131 762/106/134 761/106/133
f 763/107/135 758/104/130 761/106/133
f 758/104/130 763/107/135 760/105/132
f 761/106/133 764/108/136 763/107/135
f 765/109/137 760/105/132 763/107/135
f 760/105/132 765/109/137 757/103/129
f 766/110/138 763/107/135 764/108/136
f 763/107/135 766/110/138 765/109/137
f 764/108/136 767/111/139 766/110/138
f 766/110/138 767/111/139 768/112/140
f 765/109/137 766/110/138 769/113/141
f 768/112/140 769/113/141 766/110/138
f 768/112/140 770/114/142 771/115/143
f 771/115/143 769/113/141 768/112/140
f 769/113/141 772/116/144 765/109/137
f 757/103/129 765/109/137 772/116/144
f 769/113/141 771/115/143 773/117/145
f 773/117/145 772/116/144 769/113/141
f 773/117/145 771/115/143 774/118/146
f 772/116/144 775/119/147 757/103/129
f 775/119/147 772/116/144 773/117/145
f 773/117/145 776/120/148 775/119/147
f 774/118/146 777/121/149 778/122/150
f 778/122/150 779/123/151 774/118/146
f 774/118/146 780/124/152 773/117/145
f 780/124/152 774/118/146 779/123/151
f 781/120/153 773/117/145 780/124/152
f 782/125/154 779/123/151 783/122/155
f 779/123/151 784/126/156 780/124/152
f 784/126/156 779/123/151 782/125/154
f 782/125/154 785/127/157 784/126/156
f 785/127/157 782/125/154 786/128/158
f 786/128/158 787/129/159 785/127/157
f 787/129/159 786/128/158 788/130/160
f 780/124/152 784/126/156 789/131/161
f 789/131/161 784/126/156 790/127/162
f 789/131/161 791/132/163 780/124/152
f 780/124/152 791/132/163 781/120/153
f 790/127/162 792/133/164 789/131/161
f 792/133/164 790/127/162 787/129/159
f 791/132/163 789/131/161 793/134/165
f 793/134/165 789/131/161 792/133/164
f 794/135/166 781/120/153 791/132/163
f 775/119/147 781/120/153 794/135/166
f 793/134/165 795/136/167 791/132/163
f 791/132/163 795/136/167 794/135/166
f 794/135/166 796/137/168 775/119/147
f 757/103/129 775/119/147 796/137/168
f 796/137/168 797/102/169 757/103/129
f 798/138/170 794/135/166 795/136/167
f 799/139/171 797/102/169 796/137/168
f 752/99/124 797/102/169 799/139/171
f 800/140/172 796/137/168 794/135/166
f 796/137/168 800/140/172 799/139/171
f 794/135/166 798/138/170 800/140/172
f 799/139/171 748/97/120 752/99/124
f 801/141/173 800/140/172 798/138/170
f 799/139/171 800/140/172 801/141/173
f 748/97/120 799/139/171 802/142/174
f 801/141/173 802/142/174 799/139/171
f 802/142/174 743/94/115 748/97/120
f 743/94/115 802/142/174 803/143/175
f 803/143/175 802/142/174 801/141/173
f 803/143/175 740/92/112 743/94/115
f 798/138/170 804/144/176 801/141/173
f 740/92/112 803/143/175 805/145/177
f 805/145/177 733/88/105 740/92/112
f 733/88/105 805/145/177 732/87/104
f 801/141/173 806/146/178 803/143/175
f 806/146/178 801/141/173 804/144/176
f 807/147/179 805/145/177 803/143/175
f 803/143/175 806/146/178 807/147/179
f 808/148/180 732/87/104 805/145/177
f 805/145/177 807/147/179 808/148/180
f 732/87/104 808/148/180 734/89/106
f 807/147/179 806/146/178 809/149/181
f 804/144/176 809/149/181 806/146/178
f 808/148/180 807/147/179 810/150/182
f 809/149/181 810/150/182 807/147/179
f 811/151/183 734/89/106 808/148/180
f 722/80/94 734/89/106 811/151/183
f 810/150/182 812/152/184 808/148/180
f 808/148/180 812/152/184 811/151/183
f 810/150/182 809/149/181 813/153/185
f 812/152/184 810/150/182 814/154/186
f 813/153/185 814/154/186 810/150/182
f 811/151/183 812/152/184 815/155/187
f 814/154/186 815/155/187 812/152/184
f 811/151/183 816/156/188 722/80/94
f 722/80/94 816/156/188 696/61/68
f 817/58/189 696/61/68 816/156/188
f 816/156/188 811/151/183 818/157/190
f 815/155/187 818/157/190 811/151/183
f 816/156/188 819/158/191 817/58/189
f 818/157/190 819/158/191 816/156/188
f 697/62/69 820/57/192 817/58/189
f 817/58/189 819/158/191 697/62/69
f 819/158/191 818/157/190 821/159/193
f 821/159/193 697/62/69 819/158/191
f 818/157/190 815/155/187 822/160/194
f 822/160/194 821/159/193 818/157/190
f 697/62/69 821/159/193 823/161/195
f 823/161/195 694/59/66 697/62/69
f 821/159/193 822/160/194 824/162/196
f 824/162/196 823/161/195 821/159/193
f 825/163/197 822/160/194 815/155/187
f 815/155/187 814/154/186 825/163/197
f 826/164/198 824/162/196 822/160/194
f 822/160/194 825/163/197 826/164/198
f 827/165/199 825/163/197 814/154/186
f 814/154/186 813/153/185 827/165/199
f 828/166/200 826/164/198 825/163/197
f 825/163/197 827/165/199 828/166/200
f 826/164/198 828/166/200 829/167/201
f 829/167/201 830/168/202 826/164/198
f 824/162/196 826/164/198 830/168/202
f 830/168/202 829/167/201 831/169/203
f 830/168/202 832/170/204 824/162/196
f 823/161/195 824/162/196 832/170/204
f 831/169/203 833/171/205 830/168/202
f 832/170/204 830/168/202 833/171/205
f 832/170/204 834/172/206 823/161/195
f 694/59/66 823/161/195 834/172/206
f 833/171/205 835/173/207 832/170/204
f 834/172/206 832/170/204 835/173/207
f 833/171/205 831/169/203 836/174/208
f 836/174/208 837/175/209 833/171/205
f 835/173/207 833/171/205 837/175/209
f 838/2/210 836/174/208 831/169/203
f 837/175/209 839/176/211 835/173/207
f 835/173/207 839/176/211 840/177/212
f 831/169/203 841/178/213 838/2/210
f 842/1/214 838/2/210 841/178/213
f 841/178/213 831/169/203 843/167/215
f 840/177/212 844/179/216 835/173/207
f 835/173/207 844/179/216 834/172/206
f 843/167/215 845/180/217 841/178/213
f 845/180/217 843/167/215 828/166/200
f 841/178/213 846/181/218 842/1/214
f 846/181/218 841/178/213 845/180/217
f 847/182/219 842/1/214 846/181/218
f 828/166/200 848/183/220 845/180/217
f 848/183/220 828/166/200 827/165/199
f 845/180/217 849/184/221 846/181/218
f 849/184/221 845/180/217 848/183/220
f 846/181/218 850/185/222 847/182/219
f 850/185/222 846/181/218 849/184/221
f 851/186/223 847/182/219 850/185/222
f 848/183/220 852/187/224 849/184/221
f 850/185/222 853/188/225 851/186/223
f 854/189/226 849/184/221 852/187/224
f 849/184/221 854/189/226 850/185/222
f 853/188/225 850/185/222 854/189/226
f 855/190/227 851/186/223 853/188/225
f 852/187/224 856/191/228 854/189/226
f 853/188/225 857/192/229 855/190/227
f 858/193/230 855/190/227 857/192/229
f 854/189/226 859/194/231 853/188/225
f 857/192/229 853/188/225 859/194/231
f 859/194/231 854/189/226 856/191/228
f 857/192/229 788/130/160 858/193/230
f 860/195/232 858/193/230 788/130/160
f 788/130/160 857/192/229 787/129/159
f 859/194/231 787/129/159 857/192/229
f 788/130/160 861/196/233 860/195/232
f 787/129/159 859/194/231 792/133/164
f 856/191/228 792/133/164 859/194/231
f 862/197/234 860/195/232 861/196/233
f 861/196/233 863/198/235 862/197/234
f 864/199/236 862/197/234 863/198/235
f 863/198/235 865/200/237 864/199/236
f 866/201/238 864/199/236 865/200/237
f 865/200/237 867/202/239 866/201/238
f 792/133/164 856/191/228 793/134/165
f 868/203/240 793/134/165 856/191/228
f 856/191/228 869/187/241 868/203/240
f 793/134/165 868/203/240 870/204/242
f 870/204/242 795/136/167 793/134/165
f 795/136/167 870/204/242 798/138/170
f 804/144/176 798/138/170 870/204/242
f 870/204/242 871/205/243 804/144/176
f 871/205/243 870/204/242 868/203/240
f 809/149/181 804/144/176 871/205/243
f 871/205/243 813/153/185 809/149/181
f 868/203/240 872/206/244 871/205/243
f 813/153/185 871/205/243 872/206/244
f 872/206/244 868/203/240 869/187/241
f 872/206/244 827/165/199 813/153/185
f 869/187/241 848/183/220 872/206/244
f 827/165/199 872/206/244 848/183/220
f 873/207/245 874/22/246 875/21/247
f 875/21/247 876/208/248 873/207/245
f 877/7/249 873/207/245 876/208/248
f 876/208/248 878/4/250 877/7/249
f 879/73/251 880/11/252 881/104/253
f 879/73/251 881/104/253 882/101/254
f 879/73/251 882/101/254 883/98/255
f 879/73/251 883/98/255 884/96/256
f 879/73/251 884/96/256 885/93/257
f 884/96/256 886/95/258 885/93/257
f 879/73/251 885/93/257 887/72/259
f 888/75/260 889/74/261 887/72/259
f 885/93/257 890/91/262 891/90/263
f 892/83/264 888/75/260 887/72/259
f 885/93/257 892/83/264 887/72/259
f 885/93/257 891/90/263 892/83/264
f 892/83/264 893/77/265 888/75/260
f 891/90/263 894/86/266 892/83/264
f 895/209/267 896/179/268 897/210/269
f 896/179/268 898/173/270 899/210/271
f 900/177/272 896/179/268 895/209/267
f 898/173/270 896/179/268 900/177/272
f 895/209/267 901/42/273 900/177/272
f 900/177/272 902/176/274 898/173/270
f 898/173/270 902/176/274 903/175/275
f 901/42/273 895/209/267 904/41/276
f 904/41/276 905/38/277 901/42/273
f 904/41/276 895/209/267 906/210/278
f 905/38/277 904/41/276 906/210/278
f 903/175/275 907/171/279 898/173/270
f 898/173/270 907/171/279 908/210/280
f 907/171/279 903/175/275 909/174/281
f 909/174/281 910/169/282 907/171/279
f 907/171/279 910/169/282 911/210/283
f 910/169/282 909/174/281 912/2/284
f 912/2/284 913/178/285 910/169/282
f 910/169/282 913/178/285 914/210/286
f 913/178/285 912/2/284 915/1/287
f 915/1/287 916/181/288 913/178/285
f 913/178/285 916/181/288 917/210/289
f 916/181/288 915/1/287 918/182/290
f 918/182/290 919/185/291 916/181/288
f 916/181/288 919/185/291 920/210/292
f 919/185/291 918/182/290 921/186/293
f 921/186/293 922/188/294 919/185/291
f 919/185/291 922/188/294 923/210/295
f 922/188/294 921/186/293 924/190/296
f 925/200/297 926/202/298 923/210/295
f 927/201/299 926/202/298 925/200/297
f 925/200/297 928/199/300 927/201/299
f 924/190/296 929/192/301 922/188/294
f 922/188/294 929/192/301 930/210/302
f 929/192/301 924/190/296 931/193/303
f 932/198/304 925/200/297 930/210/302
f 928/199/300 925/200/297 932/198/304
f 929/192/301 933/130/305 930/210/302
f 931/193/303 933/130/305 929/192/301
f 932/198/304 934/197/306 928/199/300
f 933/130/305 931/193/303 935/195/307
f 934/197/306 932/198/304 936/196/308
f 936/196/308 935/195/307 934/197/306
f 935/195/307 936/196/308 933/130/305
f 936/196/308 932/198/304 937/210/309
f 933/130/305 936/196/308 937/210/309
f 675/41/47 938/209/310 676/42/48
f 840/177/212 676/42/48 938/209/310
f 938/209/310 675/41/47 680/46/52
f 938/209/310 844/179/216 840/177/212
f 680/46/52 939/211/311 938/209/310
f 844/179/216 938/209/310 939/211/311
f 939/211/311 680/46/52 685/50/57
f 939/211/311 834/172/206 844/179/216
f 685/50/57 694/59/66 939/211/311
f 834/172/206 939/211/311 694/59/66
